<?xml version="1.0" encoding="utf-8"?>
<!-- Generator: Adobe Illustrator 16.0.0, SVG Export Plug-In . SVG Version: 6.00 Build 0)  -->
<!DOCTYPE svg PUBLIC "-//W3C//DTD SVG 1.1//EN" "http://www.w3.org/Graphics/SVG/1.1/DTD/svg11.dtd">
<svg version="1.1" id="Layer_1" xmlns="http://www.w3.org/2000/svg" xmlns:xlink="http://www.w3.org/1999/xlink" x="0px" y="0px"
	 width="50px" height="50px" viewBox="0 0 50 50" enable-background="new 0 0 50 50" xml:space="preserve">
<g>
	<g>
		<g>
			<path d="M24.357,1.361c0,12.592,0,25.184,0,37.775c0,2.674,0,5.343,0,8.017c0,0.526,0,1.055,0,1.581
				c0,0.219,0.319,0.072,0.199-0.06c-0.197-0.213-0.394-0.426-0.59-0.639c-4.743-5.126-9.485-10.254-14.228-15.381
				c-2.437-2.635-4.873-5.269-7.309-7.902c-0.25-0.271-0.217,0.083-0.055-0.086c0.282-0.293,0.565-0.587,0.848-0.883
				c1.309-1.366,2.618-2.73,3.927-4.095c5.822-6.074,11.646-12.146,17.469-18.219c0.135-0.143-0.08-0.357-0.215-0.215
				C16.95,9.025,9.497,16.798,2.045,24.569c-0.059,0.062-0.057,0.154,0,0.216c7.452,8.058,14.904,16.112,22.357,24.169
				c0.091,0.1,0.259,0.021,0.259-0.108c0-15.827,0-31.656,0-47.485C24.661,1.164,24.357,1.164,24.357,1.361z"/>
		</g>
	</g>
	<g>
		<g id="path4688">
			<g>
				<path d="M25.802,48.394c12.522,0,20.951-11.613,20.986-23.393c0.03-11.864-8.338-23.27-20.836-23.491c0,0-0.007,0.507,0,0.507
					C38.62,2.241,47.258,14.093,46.741,26.184c-0.481,11.208-9.294,21.702-20.939,21.702C25.799,47.886,25.799,48.394,25.802,48.394
					L25.802,48.394z"/>
			</g>
		</g>
		<g id="path4708">
			<g>
				<path d="M25.886,41.083c18.604,0,18.658-31.299,0.102-31.776c0.001,0-0.008,0.507,0,0.507C34.933,10.044,40.79,18.58,39.9,27.11
					c-0.746,7.13-6.648,13.468-14.015,13.468C25.883,40.578,25.883,41.083,25.886,41.083L25.886,41.083z"/>
			</g>
		</g>
		<g id="path4710">
			<g>
				<path d="M26.212,33.365c9.43,0,9.361-15.736,0.051-16.202c0.005,0-0.013,0.506,0,0.507c9.059,0.453,9.081,15.188-0.051,15.188
					C26.208,32.858,26.208,33.365,26.212,33.365L26.212,33.365z"/>
			</g>
		</g>
	</g>
</g>
<rect x="14.375" y="23.958" fill="none" width="5" height="5"/>
<text transform="matrix(1 0 0 1 12.3306 27.958)" font-family="'MyriadPro-Regular'" font-size="10">X</text>
</svg>
