<!-- Generator: Adobe Illustrator 19.0.0, SVG Export Plug-In  -->
<svg version="1.1"
	 xmlns="http://www.w3.org/2000/svg" xmlns:xlink="http://www.w3.org/1999/xlink" xmlns:a="http://ns.adobe.com/AdobeSVGViewerExtensions/3.0/"
	 x="0px" y="0px" width="348.409px" height="40.702px" viewBox="0 0 348.409 40.702"
	 style="enable-background:new 0 0 348.409 40.702;" xml:space="preserve">
<style type="text/css">
	.st0{fill:#D9D9DE;}
</style>
<defs>
</defs>
<path id="Logo_1_" class="st0" d="M12.728,14.114l7.184-10.409c1.357-1.96,3.111-2.941,5.262-2.941c1.753,0,3.271,0.623,4.553,1.866
	c1.282,1.246,1.923,2.735,1.923,4.47c0,1.283-0.339,2.413-1.018,3.394l-6.478,9.418l7.92,10.04c0.792,1.001,1.188,2.17,1.188,3.508
	c0,1.772-0.623,3.295-1.867,4.568c-1.245,1.273-2.753,1.909-4.526,1.909c-1.942,0-3.422-0.631-4.44-1.896l-9.702-12.105v6.676
	c0,1.904-0.33,3.385-0.99,4.441c-1.207,1.924-2.961,2.885-5.261,2.885c-2.093,0-3.715-0.707-4.865-2.121
	C0.538,36.516,0,34.79,0,32.64V7.891c0-2.035,0.547-3.713,1.64-5.034c1.15-1.395,2.734-2.093,4.752-2.093
	c1.923,0,3.526,0.698,4.809,2.093c0.716,0.774,1.168,1.556,1.358,2.348c0.113,0.49,0.169,1.404,0.169,2.744V14.114z M48.409,8.656
	v23.957c0,2.074-0.537,3.78-1.612,5.119c-1.15,1.472-2.744,2.206-4.781,2.206c-1.866,0-3.441-0.688-4.723-2.064
	c-1.075-1.15-1.612-2.904-1.612-5.261V8.656c0-2.678,0.537-4.62,1.612-5.828c1.226-1.377,2.8-2.064,4.723-2.064
	c1.924,0,3.498,0.679,4.724,2.038C47.853,4.045,48.409,5.997,48.409,8.656z M71.315,0c4.695-0.019,9.013,1.556,12.954,4.724
	c3.093,2.489,4.639,5.063,4.639,7.722c0,2.262-0.943,4.017-2.828,5.26c-1.075,0.718-2.245,1.076-3.507,1.076
	c-1.037,0-2.027-0.246-2.97-0.735c-0.396-0.208-1.377-1.16-2.942-2.857c-1.453-1.584-3.271-2.377-5.458-2.377
	c-2.112,0-3.88,0.732-5.304,2.192c-1.424,1.462-2.136,3.248-2.136,5.361c0,2.093,0.712,3.87,2.136,5.332
	c1.423,1.461,3.182,2.191,5.275,2.191c1.734,0,3.347-0.584,4.837-1.754c0.924-0.886,1.838-1.771,2.743-2.659
	c0.981-0.849,2.225-1.273,3.734-1.273c1.735,0,3.239,0.609,4.511,1.826c1.273,1.215,1.909,2.69,1.909,4.426
	c0,2.358-1.386,4.742-4.158,7.155c-3.884,3.395-8.372,5.092-13.463,5.092c-3.149,0-6.119-0.67-8.909-2.009
	c-3.526-1.697-6.331-4.19-8.414-7.481c-2.085-3.289-3.126-6.887-3.126-10.791c0-5.844,2.168-10.822,6.506-14.933
	C61.169,1.867,65.827,0.038,71.315,0z M103.984,14.114l7.184-10.409c1.358-1.96,3.112-2.941,5.262-2.941
	c1.753,0,3.271,0.623,4.554,1.866c1.282,1.246,1.923,2.735,1.923,4.47c0,1.283-0.339,2.413-1.018,3.394l-6.477,9.418l7.919,10.04
	c0.792,1.001,1.188,2.17,1.188,3.508c0,1.772-0.622,3.295-1.866,4.568c-1.245,1.273-2.754,1.909-4.526,1.909
	c-1.942,0-3.422-0.631-4.441-1.896l-9.702-12.105v6.676c0,1.904-0.33,3.385-0.99,4.441c-1.206,1.924-2.96,2.885-5.26,2.885
	c-2.093,0-3.715-0.707-4.865-2.121c-1.075-1.301-1.612-3.027-1.612-5.177V7.891c0-2.035,0.547-3.713,1.641-5.034
	c1.15-1.395,2.734-2.093,4.752-2.093c1.923,0,3.526,0.698,4.809,2.093c0.716,0.774,1.169,1.556,1.357,2.348
	c0.113,0.49,0.17,1.404,0.17,2.744V14.114z M132.483,25.061c1.415,0,2.923,0.621,4.526,1.866c1.997,1.565,3.365,2.347,4.101,2.347
	c1.094,0,1.641-0.565,1.641-1.696c0-0.622-0.32-1.149-0.962-1.584c-0.34-0.227-2.245-0.951-5.714-2.178
	c-5.676-1.998-8.513-5.694-8.513-11.088c0-4.072,1.499-7.287,4.497-9.644C134.68,1.029,137.924,0,141.789,0
	c3.337,0,6.241,0.797,8.711,2.39c2.471,1.593,3.705,3.645,3.705,6.153c0,1.508-0.465,2.768-1.399,3.775
	c-0.933,1.009-2.146,1.513-3.635,1.513c-1.565,0-3.3-0.744-5.205-2.233c-1.188-0.924-2.083-1.386-2.686-1.386
	c-1.037,0-1.556,0.508-1.556,1.526c0,0.962,1.282,1.839,3.846,2.631c3.546,1.113,6.289,2.47,8.231,4.073
	c2.583,2.149,3.875,5.167,3.875,9.051c0,4.226-1.453,7.523-4.357,9.899c-2.696,2.206-6.203,3.31-10.521,3.31
	c-4.318,0-7.892-1.149-10.72-3.451c-2.263-1.828-3.394-3.968-3.394-6.42c0-1.642,0.556-3.008,1.67-4.102
	C129.466,25.636,130.843,25.08,132.483,25.061z M166.538,12.898h-3.366c-1.866,0-3.413-0.509-4.639-1.527
	c-1.301-1.094-1.952-2.555-1.952-4.384c0-1.094,0.307-2.145,0.92-3.154c0.611-1.008,1.405-1.726,2.376-2.15
	c0.971-0.424,3.276-0.636,6.915-0.636h12.843c3.147,0,5.186,0.188,6.108,0.566c1.019,0.415,1.843,1.128,2.476,2.135
	c0.631,1.009,0.947,2.07,0.947,3.183c0,1.753-0.698,3.281-2.094,4.582c-0.999,0.924-2.63,1.385-4.894,1.385h-2.913v19.234
	c0,2.092-0.357,3.714-1.073,4.863c-1.209,1.924-2.952,2.886-5.233,2.886c-2.282,0-4.035-0.877-5.261-2.631
	c-0.773-1.094-1.16-2.752-1.16-4.978V12.898z M197.481,34.649c-0.605,1.433-1.226,2.498-1.866,3.196
	c-1.282,1.395-2.837,2.093-4.668,2.093c-2.243,0-3.987-0.905-5.231-2.716c-0.735-1.075-1.103-2.28-1.103-3.619
	c0-1.112,0.264-2.236,0.792-3.366l12.076-25.712c1.169-2.507,3.121-3.762,5.855-3.762c2.773,0,4.761,1.291,5.968,3.876
	l12.191,25.908c0.49,1.038,0.734,2.065,0.734,3.083c0,1.508-0.49,2.848-1.471,4.017c-1.282,1.528-2.923,2.291-4.922,2.291
	c-1.641,0-3.007-0.509-4.101-1.527c-0.811-0.753-1.622-2.008-2.433-3.762H197.481z M250.359,24.778l2.997,4.808
	c0.83,1.339,1.245,2.716,1.245,4.13c0,1.792-0.617,3.275-1.853,4.455c-1.235,1.178-2.749,1.768-4.539,1.768
	c-2.302,0-4.045-0.98-5.233-2.942l-5.318-8.711v5.233c0,1.791-0.588,3.309-1.767,4.554c-1.179,1.244-2.663,1.866-4.456,1.866
	c-2.187,0-3.846-0.782-4.977-2.349c-1.019-1.375-1.527-3.186-1.527-5.43V8.373c0-4.884,2.63-7.326,7.892-7.326h8.089
	c2.658,0,5.129,0.769,7.41,2.305c2.283,1.537,3.951,3.531,5.006,5.983c0.792,1.848,1.188,3.705,1.188,5.571
	C254.517,18.394,253.13,21.685,250.359,24.778z M265.484,12.898h-3.365c-1.867,0-3.412-0.509-4.638-1.527
	c-1.303-1.094-1.953-2.555-1.953-4.384c0-1.094,0.308-2.145,0.919-3.154c0.613-1.008,1.405-1.726,2.375-2.15
	c0.972-0.424,3.276-0.636,6.916-0.636h12.842c3.149,0,5.186,0.188,6.109,0.566c1.019,0.415,1.844,1.128,2.476,2.135
	c0.631,1.009,0.946,2.07,0.946,3.183c0,1.753-0.697,3.281-2.092,4.582c-1.001,0.924-2.631,1.385-4.893,1.385h-2.915v19.234
	c0,2.092-0.357,3.714-1.074,4.863c-1.207,1.924-2.951,2.886-5.233,2.886c-2.28,0-4.034-0.877-5.26-2.631
	c-0.773-1.094-1.16-2.752-1.16-4.978V12.898z M303.216,27.719h5.786c2.39,0,4.168,0.491,5.333,1.47
	c1.375,1.171,2.062,2.679,2.062,4.526c0,1.886-0.689,3.413-2.065,4.582c-1.074,0.906-2.838,1.357-5.288,1.357h-9.929
	c-2.338,0-3.94-0.179-4.809-0.537c-1.697-0.697-2.818-1.839-3.365-3.423c-0.34-1.019-0.508-2.686-0.508-5.006V9.703
	c0-1.754,0.057-2.932,0.168-3.537c0.207-1.225,0.708-2.262,1.5-3.111c0.904-0.962,2.056-1.574,3.45-1.839
	c0.659-0.112,1.999-0.169,4.017-0.169h7.608c2.074,0,3.281,0.019,3.62,0.057c1.358,0.132,2.47,0.528,3.337,1.187
	c1.547,1.17,2.321,2.697,2.321,4.583c0,2.036-0.679,3.592-2.032,4.667c-1.206,0.961-2.851,1.443-4.94,1.443h-6.266v2.629h4.993
	c1.465,0,2.679,0.387,3.639,1.161c1.015,0.829,1.522,1.969,1.522,3.421c0,3.074-1.872,4.611-5.613,4.611h-4.541V27.719z
	 M344.165,24.778l3,4.808c0.829,1.339,1.244,2.716,1.244,4.13c0,1.792-0.619,3.275-1.854,4.455
	c-1.234,1.178-2.748,1.768-4.539,1.768c-2.301,0-4.046-0.98-5.232-2.942l-5.318-8.711v5.233c0,1.791-0.59,3.309-1.767,4.554
	c-1.18,1.244-2.664,1.866-4.455,1.866c-2.189,0-3.847-0.782-4.979-2.349c-1.018-1.375-1.526-3.186-1.526-5.43V8.373
	c0-4.884,2.63-7.326,7.892-7.326h8.089c2.66,0,5.129,0.769,7.41,2.305c2.281,1.537,3.951,3.531,5.007,5.983
	c0.792,1.848,1.188,3.705,1.188,5.571C348.323,18.394,346.939,21.685,344.165,24.778z"/>
</svg>