<!-- Generator: Adobe Illustrator 19.0.0, SVG Export Plug-In  -->
<svg version="1.1"
	 xmlns="http://www.w3.org/2000/svg" xmlns:xlink="http://www.w3.org/1999/xlink" xmlns:a="http://ns.adobe.com/AdobeSVGViewerExtensions/3.0/"
	 x="0px" y="0px" width="91.237px" height="84.736px" viewBox="0 0 91.237 84.736"
	 style="enable-background:new 0 0 91.237 84.736;" xml:space="preserve">
<style type="text/css">
	.st0{opacity:0.9;}
	.st1{fill:#D1D1D1;}
	.st2{fill:#EDEDED;}
	.st3{fill:#B8B8B8;}
	.st4{fill:#9F9F9F;}
	.st5{fill:#8C8C8C;}
	.st6{fill:#767676;}
</style>
<defs>
</defs>
<g>
	<g>
		<g>
			<g class="st0">
				<g class="st0">
					<g>
						<path class="st1" d="M83.432,49.171c-0.463-0.172-0.375-0.651-0.466-1.008c-0.041-1.377,0.006-2.753,0.025-4.116
							c0.172-0.928-0.05-1.958-0.79-2.616c0.201-0.303,0.369-0.572,0.582-0.871c-0.23-1.056-0.541-2.148-0.524-3.138
							c0.057-0.387,0.081-0.803,0.145-1.194c0.586-0.961,0.192-1.805,0.788-2.328c0.066-0.315-0.199-0.543-0.33-0.832
							c0.366-0.925,0.193-1.897-0.014-2.511c0.059-0.386,0.122-0.741,0.141-1.131c-0.032,0.001-0.099,0.003-0.165,0.005
							c-0.047-1.641-0.127-3.278-0.335-4.987c0.072-0.517,0.137-0.894,0.133-1.201c-0.007-0.336-0.067-0.561-0.247-0.708
							c-0.041-0.215-0.089-0.462-0.13-0.675c-0.086-0.462-0.207-0.918-0.315-1.377c0.125-0.535,0.259-1.056,0.348-1.626
							c0.47,0.26,0.953,0.536,1.424,0.847c0.13,0.507,0.259,1.013,0.365,1.524c0.047,0.236,0.103,0.511,0.15,0.747
							c0.113,0.412,0.237,0.866,0.349,1.277c0.055,0.636,0.067,1.267,0.09,1.883c0.197-0.02,0.427-0.043,0.625-0.063
							c0.079,0.427,0.172,0.834,0.272,1.252l-0.79,0.058c-0.121,0.138-0.211,0.301-0.301,0.461c-0.187,0.2-0.405,0.433-0.591,0.632
							c0.021,0.459,0.04,0.886,0.059,1.315c-0.052,0.215-0.095,0.393-0.147,0.61c0.202,0.174,0.439,0.378,0.64,0.552
							c-0.188,0.607,0.013,0.782,0.178,0.72c0.431,0.139,0.625-0.254,0.953-0.322l0.801,0.71c-0.097,0.243-0.192,0.485-0.324,0.723
							c-0.032,0.502,0.695,0.704,0.794,1.138c-0.154,0.41-0.303,0.808-0.465,1.242c-0.098,0.227-0.198,0.448-0.331,0.675
							c-0.198,0.341,0.366,0.381,0.331,0.657c-0.029,0.796-0.045,1.593-0.043,2.272l0.071,2.311
							c-0.253,0.684-0.266,0.993-0.054,1.181c0.081,1.224,0.165,2.463,0.284,3.736c-0.183,0.685,0.119,1.471,0.204,2.204
							c-0.758,0.274-0.898,0.439-1.039,0.604c-0.338-0.023-0.643-0.052-0.987-0.106c-0.379-0.075-0.372,0.379-0.919,0.303
							C83.74,48.396,83.604,48.793,83.432,49.171z"/>
					</g>
					<g>
						<path class="st2" d="M84.424,29.952c-0.201-0.174-0.438-0.378-0.64-0.552c0.052-0.217,0.095-0.395,0.147-0.61
							c-0.019-0.429-0.038-0.857-0.059-1.315c0.186-0.199,0.404-0.432,0.591-0.632c0.09-0.159,0.18-0.323,0.301-0.461l0.79-0.058
							c-0.044,0.294-0.094,0.615-0.11,0.902c-0.031,0.573,0.396,0.64,0.344,0.896c-0.028,0.129-0.091,0.224-0.12,0.318
							c0.145,0.339,0.318,0.67,0.495,1.006c-0.193,0.224-0.421,0.412-0.615,0.63l0.005,0.273c-0.327,0.069-0.522,0.462-0.953,0.322
							C84.437,30.734,84.236,30.559,84.424,29.952z"/>
					</g>
					<g>
						<path class="st1" d="M80.989,23.9c-0.772-0.25-0.884-0.334-1.035-0.433c0.195-0.665-0.049-1.291-0.266-1.884
							c-0.217-0.6-0.396-1.172-0.132-1.934c-0.378-0.423-0.752-0.867-1.179-1.257c-0.345-0.484-0.1-1.501-0.91-1.485
							c-0.119-0.406-0.278-0.798-0.443-1.191c-0.382-0.455-0.831-0.851-1.298-1.208c-0.261-0.313-0.518-0.647-0.835-0.899
							c-0.209-0.14-0.38-0.281-0.625-0.421c-0.277,0.07-0.57,0.164-0.995,0.159c0.453,0.626,0.693,0.773,0.935,0.952
							c-0.037,0.095-0.049,0.208-0.087,0.303l-0.502,0.658c-0.306-0.096-0.617-0.172-0.955-0.194
							c-0.313-0.156-0.675-0.218-1.017-0.303c-0.218-0.067-0.46-0.11-0.702-0.168c-0.093-0.023-0.191-0.048-0.29-0.072
							c-0.074-0.028-0.148-0.057-0.245-0.095c-0.146-0.19-0.26-0.391-0.435-0.615c-0.465,0.325-0.718-0.311-0.91-0.569
							c-0.073-0.047-0.136-0.127-0.239-0.179c-0.398-0.151-0.865-0.292-1.318-0.362c0.43-0.428,0.895-0.168,1.452-0.12
							c0.127-0.448,0.172-0.606,0.217-0.767c0.212,0.044,0.396,0.068,0.727,0.143c0.393-0.168,0.786-0.337,1.159-0.496
							c0.318-0.461,0.632-0.916,0.947-1.371c0.067-0.151,0.121-0.273,0.188-0.424c0.292-0.157,0.681-0.161,1.051-0.089
							c0.608,0.127,1.123,0.526,1.037,0.927c0.112,0.093,0.177,0.194,0.238,0.297c0.057,0.311,0.142,0.632,0.153,0.984
							c0.423,0.041,0.869,0.13,1.283,0.231c0.007-0.236,0.059-0.482,0.09-0.704l0.631-0.525c0.374-0.324,1.619,0.185,1.172-0.911
							c0.236-0.039,0.436-0.081,0.641-0.128c0.269,0.393,0.587,0.78,0.83,1.174c0.857,0.655,1.178-0.353,2.079-0.355
							c-0.237-0.264-0.442-0.502-0.732-0.775c-0.147-0.42-0.307-0.91-0.497-1.312l-0.53-0.437c-0.105-0.089-0.218-0.17-0.331-0.249
							c-1.158-0.445-1.74-0.867-2.383-0.777c-0.324-0.343-0.606-0.64-0.928-0.98c-0.402-0.046-0.697-0.194-0.957-0.376
							c-0.64-0.42-1.114-1.055-2.153-0.755c-0.012,0.03-0.036,0.091-0.061,0.153c-0.553,0.036-1.098,0.081-1.697,0.205
							c-0.351-0.07-0.661-0.132-1.232-0.245c-0.491,0.11-0.981,0.297-1.412,0.443c-0.939-0.611-2.872,0.096-3.357-0.833l0.035-1.29
							c0.239,0.006,0.481,0.012,0.674,0.017c0.406-0.715,1.103-0.819,1.741-0.82c0.639,0.009,1.219,0.133,1.516-0.2
							c0.571-0.029,1.073,0.271,1.042,0.776c0.893,0.248,1.8,0.426,2.648,0.76c0.417-0.151,0.795-0.311,1.229-0.45
							c0.582,0.201,1.185,0.409,1.775,0.613c0.647,0.253,1.254,0.55,1.715,0.948c0.474,0.372,0.794,0.856,0.882,1.432
							c0.385,0.257,0.949,0.464,0.947,0.99c0.352-0.071,0.678-0.173,1.033-0.219c0.186,0.152,0.597,0.266,0.943,0.471
							c0.336,0.215,0.596,0.53,0.481,1.015c0.136,0.135,0.24,0.23,0.334,0.337c0.665,0.291,1.002,0.647,1.291,1.028
							c-0.003,0.571,0.185,1.313-0.065,1.728c-0.666,0.224-0.833-0.685-1.513-0.694c-0.034,0.544-0.072,1.142-0.108,1.709
							c-0.575,0.976-0.118,1.467,0.162,2.056c0.01,0.287,0.008,0.618-0.036,0.916c0.136,0.51,0.542,0.645,0.706,1.144
							c-0.234,0.297-0.427,0.61-0.651,0.931c-0.602-1.058-1.455-0.483-1.728-0.853c-0.248-0.588-0.477-1.159-0.801-1.717
							c-0.241-0.395-0.504-0.733-0.779-1.108c-0.614-0.55-1.257-1.012-1.979-1.399c0.772,1.021,1.024,1.646,1.508,1.811
							c0.266,0.364,0.521,0.688,0.749,1.074c0.336,0.518,0.612,1.037,0.879,1.596c0.126,0.28,0.279,0.588,0.399,0.91
							c-0.037,0.444-0.108,0.89-0.181,1.32c0.204,0.309,0.424,0.642,0.635,0.962c0.231,1.09,0.398,2.23,0.518,3.331
							c0.037,0.025,0.112,0.076,0.182,0.096C81.186,23.87,81.086,23.885,80.989,23.9z"/>
					</g>
					<g>
						<path class="st2" d="M69.374,4.304c-1.075,0.17-1.656,0.091-2.256,0.067c-0.204-0.211-0.608-0.394-0.587-0.658
							c1.425-0.414,2.227-0.342,2.75-0.088C69.449,3.98,69.407,4.141,69.374,4.304z"/>
					</g>
					<g>
						<path class="st1" d="M54.804,12.188l-1.333-0.095c-0.423-0.381-0.979-0.186-1.435-0.16c-0.483,0.024-0.949,0.078-1.419,0.067
							c-0.52-0.105-1.036-0.208-1.556-0.313c-0.38-0.072-0.758-0.144-1.14-0.216l-0.964-0.174l-1.14-0.187
							c-0.176-0.028-0.38-0.06-0.556-0.088c-0.165-0.12-0.353-0.257-0.519-0.377l-1.436,0.094c-0.298,0.025-0.568,0.053-0.86,0.048
							c-0.615-0.013-1.229-0.064-1.81-0.069c-0.589-0.939-1.536,0.237-2.598-0.493c-0.352,0.129-0.68,0.249-1.009,0.37
							c-0.358-0.179-0.716-0.325-1.045-0.467c-0.263,0.065-0.468,0.138-0.704,0.237c-0.245-0.098-0.436-0.191-0.657-0.254
							c-0.343,0.052-0.599-0.249-0.612-0.715c-0.273,0.225-0.488,0.426-0.739,0.688c-0.497-0.032-0.999-0.064-1.471-0.094
							c-0.051-0.042-0.098-0.118-0.121-0.153c-1.045-0.034-2.116-0.069-3.161-0.103c-0.156,0.171-0.358,0.5-0.509,0.536
							l-0.256-0.051l-0.636-0.432c-0.269-0.124-0.508-0.026-0.728,0.005c-1.248-0.458-1.327,0.314-1.946,0.427
							c-0.282,0.007-0.562,0.018-0.811-0.005c-0.536-0.651-1.593-0.691-2.329-0.695c-0.042-0.213-0.09-0.46-0.132-0.673
							l-1.055-0.253L19.52,8.144c-0.201,0.018-0.399,0.002-0.709,0.129c-0.019,0.097-0.038,0.196-0.063,0.323l-0.715,0.125
							c-0.102-0.058-0.227-0.158-0.355-0.224c-0.191,0.087-0.416,0.2-0.613,0.318c-0.517-0.029-1.002-0.051-1.533-0.052
							c-0.933,0.63-1.73-0.177-2.451,0.448c-0.3-0.062-0.491-0.546-0.821-0.276c-0.269-0.096-0.561-0.201-0.829-0.297
							c-0.829-0.52-1.638,0.507-2.231-0.675C8.942,7.687,8.669,8.113,8.413,8.155C7.912,7.968,7.44,7.792,6.939,7.604
							C6.703,8.22,6.191,7.44,5.674,7.688C5.202,7.526,4.702,7.375,4.202,7.228c-0.108-0.098-0.186-0.19-0.273-0.249
							c0.067-0.358,0.109-0.758,0.142-1.125l1.011-0.537C5.345,5.261,5.6,5.159,5.867,5.076C6.27,5.105,6.718,5.143,7.139,5.156
							C7.976,5.167,8.108,4.7,8.498,4.806C8.554,4.827,8.611,4.848,8.641,4.86c0.431,0.055,0.836,0.107,1.241,0.159l0.611,0.238
							c0.291-0.061,0.592-0.12,0.847-0.196c0.417,0.093,0.845,0.57,1.324,0.018c0.204-0.027,0.389-0.066,0.59-0.13
							c0.206,0.217,0.411,0.39,0.641,0.57c0.411-0.092,0.687-0.269,0.959-0.354c0.25-0.156,0.742-0.258,1.112-0.367
							c0.514,0.303,0.948-0.129,1.451,0.204c0.183,0.082,0.333,0.187,0.509,0.3c0.154-0.198,0.33-0.358,0.507-0.549
							c0.268,0.067,0.51,0.128,0.779,0.195c0.346,0.087,0.667,0.168,1.013,0.255c0.616,0.103,1.204,0.201,1.794,0.299
							c1.164-0.732,2.951,0.611,4.09,0.097c1.443-0.017,2.586,0.065,3.72,0.044c1.572,0.005,3.331-0.052,4.919-0.129
							c0.137,0.019,0.272,0.039,0.381,0.054c0.033,0.27,0.069,0.508,0.071,0.807c0.067,0.207,0.239,0.164,0.405,0.185
							c0.139-0.279,0.328-0.52,0.33-0.885c0.79-0.424,1.378-0.187,1.826-0.426c0.258,0.032,0.543,0.067,0.801,0.099
							c-0.049,0.591-0.096,1.148-0.145,1.74l-0.159,0.479c-0.457-0.014-0.945-0.029-1.373-0.042
							c-0.795,0.063-1.564,0.125-2.329,0.185c-0.167-0.023-0.359-0.05-0.525-0.073c-0.297-0.107-0.616-0.224-0.911-0.301
							c-0.535,0.088-1.058,0.166-1.582,0.213c-0.397-0.069-0.769-0.134-1.168-0.204c-0.384,0.067-0.778,0.227-1.223,0.57
							c0.27,0.214,0.562,0.446,0.833,0.661c0.3-0.012,0.602-0.023,0.9-0.005c0.195-0.026,0.359-0.047,0.556-0.073l0.243,0.04
							l0.406,0.065c0.938,0.518,1.334,0.27,1.815,0.444c0.028,0.004,0.085,0.012,0.139,0.02c0.342-0.053,0.712-0.101,1.086-0.182
							c0.298,0.108,0.603,0.212,0.938,0.29c0.405-0.113,0.812-0.193,1.252-0.303c0.027,0.003,0.084,0.011,0.142,0.018
							c0.201,0.325,0.373,0.678,0.601,1.039l0.224-1.265c0.002-0.033,0.007-0.098,0.012-0.165c0.202,0.025,0.374,0.047,0.575,0.072
							c1.89,0.967,2.694-0.693,4.254-0.084c0.478-0.267,0.766-0.165,1.029-0.324c0.12,0.22,0.255,0.467,0.376,0.688
							c0.208-0.237,0.418-0.472,0.658-0.705c0.386,0.089,0.741,0.215,1.123,0.341c0.086-0.254,0.171-0.505,0.257-0.76
							c0.402-0.008,0.782-0.005,1.183,0.031c0.105,0.35,0.202,0.672,0.308,1.025c-0.005,0.031-0.015,0.097-0.025,0.162L46.57,8.829
							c-0.044,0.328-0.088,0.653-0.128,0.948c0.775-0.112,1.073,1.392,1.574,0.271c0.615,0.342,0.778-0.054,1.01,0.022
							c0.306,0.024,0.588,0.011,0.892,0.039c0.55-0.283,0.317-1.411,0.961-1.39c0.126,0.037,0.27,0.056,0.433,0.084
							c-0.011,0.131-0.024,0.296-0.038,0.459c-0.122,0.31-0.227,0.6-0.327,0.908c0.378,0.404,0.52,0.915,1.14,0.979
							c0.405-0.071,0.777-0.136,1.15-0.201c0.137-0.05,0.334-0.624,0.656-0.403c0.41,0.027,0.792,0.053,1.202,0.08
							c0.166,0.305,0.332,0.643,0.528,0.983C55.343,11.787,55.086,11.979,54.804,12.188z"/>
					</g>
					<g>
						<path class="st2" d="M35.936,5.675c-0.002,0.365-0.191,0.606-0.33,0.885c-0.166-0.021-0.339,0.022-0.405-0.185
							c-0.002-0.298-0.038-0.537-0.071-0.807C35.408,5.605,35.686,5.642,35.936,5.675z"/>
					</g>
					<g>
						<path class="st3" d="M80.212,81.363c-0.042-0.186-0.078-0.344-0.114-0.505c0.138-0.9-0.236-0.756-0.492-0.695
							c-0.154-0.24-0.307-0.458-0.5-0.698c-0.003-0.31-0.018-0.647-0.053-0.952c-0.152-1.072,0.959-1.549,0.143-2.097
							c-0.818-0.428,0.403-1.408-0.482-1.963c-0.02-0.9,0.392-1.567-0.141-1.927c-0.034-0.137-0.062-0.248-0.097-0.386l-0.166-0.66
							c-0.493-0.198-0.52-0.311-0.81-0.651c0.252-0.213,0.537-0.435,0.827-0.63l-0.167-0.669c0.285-0.758,0.229-0.98,0.331-1.247
							c0.037-0.398,0.112-0.775,0.181-1.183c-0.703-0.624-0.821-1.914-0.799-2.525c0.254-0.216,0.017-0.485-0.007-0.72
							c-0.94-0.095,0.214-0.657-0.076-1.005c0.01-1.399-0.006-2.982-0.711-4.342l-0.154-0.69c0.881-1.166-0.611-2.208-0.23-3.448
							c-0.362-1.299,0.034-3.042-0.687-4.561c0.223-0.682,0.412-1.529-0.057-2.182c-0.092-0.661-0.184-1.319-0.28-2.007
							c0.54-1.959-0.23-3.877,0.071-5.413c0.03-0.8,0.008-1.651,0.011-2.53c-0.004-0.829-0.008-1.668-0.012-2.502
							c-0.005-1.628-0.002-3.177,0.141-4.585c0.294-0.148,0.093-0.448,0.152-0.665c-0.798-0.162,0.157-0.364-0.022-0.794
							c-0.135-1.239,0.12-2.772-0.582-3.645l-0.026-0.23c0.109-0.223,0.179-0.439,0.247-0.657c-0.101-0.295,0.028-0.714-0.319-0.979
							c-0.042-0.208-0.085-0.417-0.123-0.608c-0.005-0.468,0.131-0.745-0.199-0.814c-0.253-1.255-0.487-2.288-1.227-2.875
							l-0.111-0.163c-0.12-0.183-0.234-0.344-0.376-0.512c-0.476-0.289-0.521-0.788-0.636-1.166
							c-0.098-0.388-0.289-0.615-0.914-0.254c-0.25-0.139-0.467-0.295-0.731-0.407c-0.269-0.3-0.545-0.52-0.772-0.691
							c-0.309-0.221-0.611-0.371-0.922-0.494c-0.308-0.137-0.619-0.263-0.97-0.377c-0.654-0.04-1.304-0.002-1.943,0.036
							c-0.578-0.327-0.854-0.349-1.12-0.354c-0.048-0.231-0.099-0.429-0.125-0.628c-0.287-0.164-0.629-0.329-0.937-0.493
							c-0.358,0.695-1.753-0.08-2.171,0.564c-0.537,0.265-0.553-0.766-1.071-0.198c-0.2,0.122-0.541,0.272-0.542,0.601
							c-0.111-0.005-0.198-0.01-0.282-0.014c-0.17,0.191-0.368,0.414-0.538,0.605c-0.742,0.006-0.854,0.266-1.226,0.418
							c-0.232-0.141-0.464-0.313-0.698-0.485c-0.2,0.653-0.776,0.272-0.986,0.592c-0.205,0.288-0.851,0.067-1.262-0.052
							l-1.421-0.081c-0.18-0.015-0.39-0.032-0.57-0.047c-0.211,0.578-0.658,0.375-0.888,0.255c-0.544-0.133-1.047-0.255-1.583-0.366
							c-0.434,0.024-0.567,0.269-0.774,0.198c-0.218-0.173-0.456-0.311-0.653-0.457c-0.187-0.071-0.347,0.198-0.689,0.027
							c-0.249-0.05-0.527-0.105-0.804-0.161c-0.171,0-0.376,0.029-0.552,0.062c-0.256-0.005-0.543-0.01-0.827-0.016l-0.252-0.044
							c-0.333,0.609-0.904,0.143-1.171,0.47c-0.069-0.144-0.141-0.253-0.213-0.366c-0.283-0.044-0.535-0.083-0.817-0.126
							c-0.219-0.103-0.442-0.166-0.662-0.264c-0.91,0.233-1.984-0.31-3.041-0.08c-0.014,0.164-0.025,0.296-0.038,0.459
							c-0.12,0.052-0.267,0.066-0.413,0.115c-0.373-0.018-0.751,0.004-1.097,0.027c-0.104-0.147-0.181-0.255-0.259-0.365
							l-0.697,0.077c-0.009,0.1-0.017,0.198-0.028,0.33c-0.058-0.007-0.086-0.011-0.143-0.018l-1.642-0.074
							c-0.349-0.254-0.711-0.518-1.059-0.77c-0.036,0.061-0.096,0.087-0.158,0.145c-0.387,0.113-0.745,0.235-1.13,0.311
							c-0.16,0.144-0.746,0.193-0.752,0.524c-0.216-0.164-0.428-0.358-0.637-0.556c-0.408-0.263-0.609,0.239-0.74,0.352
							c-0.732-0.208-1.434-0.43-2.162-0.654l-0.254-0.046c-0.252,0.556-0.657,0.314-0.866,0.14c-0.198-0.038-0.368-0.07-0.536-0.103
							c-0.291,0.577-0.71,0.257-0.918,0.485c-0.638-0.362-1.293-0.667-1.936-1.028c-0.208,0.026-0.387,0.06-0.561,0.058
							c-0.585,0.385-0.811,0.339-1.011,0.13c-0.541-0.079-1.087-0.129-1.66-0.192c-0.246,0.552-0.639,0.297-0.838,0.115
							l-1.094-0.255c-0.287,0.573-0.671,0.279-0.875,0.129c-0.299-0.13-0.59-0.257-0.89-0.387c-1.072-0.061-2.296-0.372-3.189-0.329
							c-0.463,0.526-1.011,0.185-1.404-0.017c-0.506,0.544-1.174-0.02-1.583,0.19c-1.164-0.091-2.334,0.397-3.501-0.397
							c-0.401,0.376-1.119-0.463-1.219,0.555c-1.337-0.721-2.25,0.19-3.555-0.458c-0.579,0.024-0.822,0.319-1.407,0.223
							c0.142-0.267-0.012-0.447-0.07-0.838c-0.713-0.131-1.43-0.213-2.123-0.311c0.001-0.466,0.006-0.966,0.039-1.428
							c0.05-0.358,0.105-0.75,0.155-1.108c0.209-0.13,0.275-0.352,0.531-0.542c0.238-0.662,0.474-1.323,0.7-1.952
							c0.019-0.367,0.04-0.764,0.059-1.131c0.231-0.052,0.491-0.11,0.721-0.161c0.381,0.357,0.759,0.686,1.105,1.08
							c-0.089,0.077-0.182,0.16-0.238,0.247c-0.052,0.6-0.096,1.168-0.119,1.777C2.927,9.374,2.812,9.581,2.736,9.766
							c-0.122-0.03-0.211-0.053-0.302-0.075C2.166,9.62,1.86,9.552,1.552,9.486c0.164,0.305,0.292,0.602,0.444,0.909
							c0.041,0.216,0.088,0.463,0.129,0.677c0.074,0.36,0.142,0.688,0.216,1.046c0.301-0.295,0.58-0.595,0.933-0.9
							c0.037-0.023,0.11-0.07,0.147-0.094c0.443,0.057,0.849,0.13,1.279,0.233c0.713,0.458,0.62-0.133,0.922-0.202
							c0.11,0.04,0.192,0.071,0.274,0.101C6,11.426,6.094,11.578,6.176,11.711c0.441,0.056,0.85,0.109,1.296,0.135
							c0.302,0.187,0.631,0.384,0.968,0.549c0.222-0.126,0.483-0.275,0.705-0.401c0.05,0.125,0.099,0.249,0.165,0.414
							c0.16,0.06,0.349,0.131,0.508,0.19c0.199,0.118,0.405,0.24,0.606,0.359c0.608,0.563,0.578-0.533,1.039-0.616
							c0.347,0.112,0.669,0.216,1.016,0.328c0.285,0.127,0.602,0.268,0.889,0.396c0.376-0.007,0.726-0.013,1.103-0.02
							c0.137-0.236,0.276-0.473,0.443-0.702c0.042-0.056,0.107-0.075,0.176-0.125c0.294-0.096,0.6-0.188,0.878-0.252
							c0.409-0.134,0.81-0.236,1.211-0.338c0.268,0.1,0.348,0.563,0.743,0.49c0.13,0.644,0.513,0.196,0.775,0.193
							c0.229,0.022,0.463,0.013,0.698,0.001c0.382,0.263,0.743,0.511,1.128,0.776c0.043-0.226,0.08-0.42,0.117-0.614
							c0.274-0.073,0.568-0.105,0.836-0.145c0.075,0.22,0.117,0.467,0.165,0.678c0.31,0.038,0.63,0.042,0.974,0.048
							c0.307,0.237,0.64,0.476,0.978,0.715c0.179-0.029,0.386-0.055,0.559-0.053l0.541-0.698c0.142,0.197,0.284,0.393,0.461,0.561
							l0.712-0.167c0.225-0.592,0.636-0.324,0.88-0.181c0.343,0.033,0.721,0.045,1.1,0.053c0.207-0.591,0.907,0.112,1.269-0.225
							c0.785-0.114,1.43,0.216,2.053,0.024c0.742,0.012,1.457,0.024,2.2,0.036l0.679,0.097c0.298-0.125,0.031-0.625,0.356-0.747
							c0.112,0.015,0.255,0.034,0.396,0.053c0.489-0.663,1.109-0.583,1.261-0.331c0.011,0.864,0.186,0.82,0.357,0.843
							c0.273-0.164,0.106-0.551,0.069-0.788c0.282-0.224,0.581-0.461,0.863-0.685l0.682,0.086c0.42,0.815,1.297,0.028,2.046,0.423
							c0.845-0.026,1.891-0.022,2.463-0.776c0.312,0.086,0.631,0.174,0.972,0.269c-0.014,0.131-0.025,0.229-0.035,0.327
							c0.756,0.339,0.589-0.28,0.846-0.21c0.118,0.017,0.204,0.03,0.291,0.043c0.495,0.837,1.301,1.167,1.352,0.544
							c0.75,0.357,0.624-0.265,0.88-0.189l0.977,0.041c0.658,0.755,0.621,1.156,0.619,1.558c0.316,0.231,0.93,0.56,1.386,0.112
							c0.167-0.136,0.33-0.273,0.486-0.377c0.199,0.172,0.372,0.371,0.607,0.583c0.314,0.025,0.759-0.095,0.851-0.509l0.655,0.386
							c0.314-0.013,0.661-0.027,0.976-0.04c0.157,0.38,0.69-0.039,0.667,0.68c0.29-0.047,0.554-0.097,0.844-0.113
							c0.453-0.891,1.246-1.289,2.223-1.154c0.632,0.155,1.064,0.203,1.378-0.116c0.951,0.295,0.43-0.579,0.949-0.463
							c0.229,0.075,0.461,0.151,0.692,0.194c0.489,0.286,0.607-0.405,0.985-0.419c0.171,0.211,0.368,0.454,0.537,0.661
							c0.694-0.062,1.113,0.008,1.554-0.676c0.777,0.092,1.565,0.061,2.346,0.14c0.667,0.029,1.3,0.05,1.928,0.133
							c0.453,0.069,0.92,0.211,1.318,0.362c0.103,0.052,0.166,0.131,0.239,0.179c0.192,0.259,0.446,0.894,0.91,0.569
							c0.175,0.224,0.289,0.426,0.435,0.615c0.097,0.037,0.171,0.066,0.245,0.095c0.098,0.025,0.197,0.049,0.29,0.072
							c0.242,0.059,0.484,0.102,0.702,0.168c0.342,0.085,0.704,0.147,1.017,0.303c0.338,0.022,0.649,0.097,0.955,0.194l0.502-0.658
							c0.038-0.095,0.05-0.208,0.087-0.303c-0.241-0.179-0.481-0.326-0.935-0.952c-1.056,0.126-1.394-0.164-1.338-0.569
							c0.187-0.111,0.359-0.214,0.506-0.301c0.308,0.146,0.605,0.376,0.898,0.537c0.712-0.194,1.116,0.351,1.554,0.596
							c0.317,0.252,0.574,0.586,0.835,0.899c-0.115,0.257-0.204,0.494-0.345,0.774c0.042,0.042,0.082,0.082,0.104,0.105
							c0.258,0.157,0.474,0.319,0.687,0.526c0.216,0.002,0.438,0.005,0.629-0.003c0.053,0.364,0.111,0.706,0.117,1.039
							c-0.157,0.124-0.34,0.269-0.497,0.393c0.003,0.072-0.023,0.162-0.064,0.229c-0.244,0.191-0.516,0.403-0.788,0.615
							c0.202,0.203,0.415,0.436,0.567,0.683c0.012,0.023,0.035,0.07,0.048,0.095c0.095,0.251,0.131,0.534,0.166,0.784
							c0.01,0.113-0.019,0.217-0.019,0.306l0.48,0.446c0.674,0.539,0.915,1.103,0.478,1.686c-0.015,0.089-0.062,0.185-0.103,0.306
							c0.265,0.427,0.512,0.877,0.753,1.344c0.762-0.479,0.513,0.523,0.275,0.756c0.858,0.964,0.322,1.808,0.375,2.528
							c0.089,0.362,0.175,0.724,0.226,1.09c0.743,1.801-1.268,3.711,0.248,5.323c0.033,0.342-0.365,0.69-0.001,0.947
							c0.1,0.544,0.232,0.63,0.33,0.688c0.528,0.195,0.661-0.581,0.133-0.693c0-0.229-0.001-0.428-0.001-0.689
							c0.662,0.025,0.1-0.632,0.496-0.805c-0.297-0.516-0.099-1.205-0.172-1.807c0.696,0.102,0.555-0.674,0.781-0.854
							c0.199-0.005,0.43-0.012,0.628-0.017c0.006,0.755,0.012,1.508,0.018,2.233c-0.295,0.347-0.098,0.836,0.166,1.123
							c0.054,0.457,0.108,0.911,0.163,1.37l-0.487,1.368c0.002,0.17,0.005,0.367,0.008,0.538c0.007,0.255,0.014,0.533,0.021,0.815
							c0.016,0.746,0.096,1.514,0.143,2.274c-0.509,0.839-0.655,1.434-0.307,1.828c0.027,0.254,0.057,0.537,0.084,0.794
							c-0.003,0.287-0.038,0.578-0.075,0.841c0.173,0.382-0.12,0.449-0.399,0.603c-1.116-0.467-1.555,0.118-0.87,0.701
							c0.024,0.172,0.051,0.373,0.075,0.543c0.003,0.266-0.022,0.563-0.047,0.86c-0.455,0.573,0.437,0.787,0.367,1.354
							c-0.035,0.389-0.077,0.749-0.145,1.144c0.061,0.373,0.123,0.746,0.18,1.092c-0.029,0.948-0.096,1.647,0.525,1.91
							c0.042,0.225,0.085,0.455,0.128,0.682c-0.16,0.212-0.346,0.458-0.507,0.671c0.128,0.299,0.018,0.738,0.356,0.903
							c0.146,1.038,0.322,2.042,0.485,3.046c0.199,0.13,0.551,0.198,0.57,0.432c-0.077,0.257-0.188,0.519-0.299,0.785
							c-1.145,0.034-0.319,1.121-0.134,1.463c0.228,0.094,0.613,0.15,0.711,0.272c0.007,0.03,0.019,0.086,0.025,0.113
							c-0.088,0.376-0.17,0.727-0.252,1.08c0.053,0.222,0.108,0.449,0.162,0.672c-0.222,0.205-0.542,0.288-0.672,0.587
							c0.59,0.745,0.208,1.829-0.007,2.601c0.09,0.362,0.174,0.699,0.265,1.063c0.178,0.431,0.353,0.862,0.498,1.3
							c0.07,0.279,0.133,0.53,0.202,0.808c-0.645,0.821-0.086,0.736-0.081,1.03c0.014,0.233,0.028,0.471,0.041,0.702
							c0.249,1.119-0.618,2.551-0.066,3.672c-0.04,0.945-0.401,1.825-0.122,2.832c0.051,0.648,0.097,1.272,0.117,1.926
							c-0.193,0.047-0.418,0.102-0.771,0.189c-0.131,0.342-0.269,0.7-0.4,1.042c0.265,0.727,0.182,1.423,0.01,2.164
							C80.674,81.62,80.437,81.477,80.212,81.363z"/>
					</g>
					<g>
						<path class="st3" d="M87.693,57.96c-0.521-0.629-0.585-1.198-0.169-1.469C88.215,57.165,88.287,57.585,87.693,57.96z"/>
					</g>
					<g>
						<path class="st3" d="M87.333,52.65c-0.904-0.63-0.948-1.315-0.317-1.556c0.266,0.172,0.509,0.349,0.745,0.527
							C87.63,51.961,87.5,52.301,87.333,52.65z"/>
					</g>
					<g>
						<path class="st3" d="M86.995,49.179c-0.762-0.642-0.986-1.025-1.211-1.376c0.141-0.165,0.282-0.331,1.039-0.604
							c0.226,0.156,0.48,0.277,0.705,0.429c-0.104,0.378-0.218,0.732-0.311,1.117C87.144,48.896,87.072,49.051,86.995,49.179z"/>
					</g>
					<g>
						<path class="st3" d="M86.361,35.494c0.034-0.276-0.529-0.316-0.331-0.657c0.133-0.227,0.233-0.448,0.331-0.675
							c0.53,0.136,0.364,0.471,0.628,0.667C87.154,35.16,86.66,35.268,86.361,35.494z"/>
					</g>
					<g>
						<path class="st3" d="M86.356,31.059l-0.801-0.71l-0.005-0.273c0.193-0.218,0.422-0.406,0.615-0.63
							c-0.176-0.336-0.35-0.667-0.495-1.006c0.029-0.095,0.092-0.189,0.12-0.318l1.285-0.058c0.017,0.472,0.032,0.915,0.048,1.356
							c0.105,0.277,0.206,0.489,0.313,0.736c-0.093,0.311-0.19,0.614-0.286,0.89c-0.092,0.636-0.19,1.261-0.322,1.874
							c-0.1-0.434-0.826-0.636-0.794-1.138C86.164,31.544,86.259,31.301,86.356,31.059z"/>
					</g>
					<g>
						<path class="st3" d="M83.172,15.21l-0.285-0.564c-0.315,0.046-0.655,0.118-0.992,0.19c-0.28-0.589-0.736-1.08-0.162-2.056
							c0.036-0.567,0.074-1.165,0.108-1.709c0.68,0.008,0.846,0.918,1.513,0.694c0.18,0.267,0.334,0.496,0.514,0.764
							c0.509,0.762,1.031,1.578,1.492,2.44c-0.141,0.337-0.23,0.379-0.348,0.44C84.402,15.31,83.779,15.249,83.172,15.21z"/>
					</g>
					<g>
						<path class="st3" d="M78.134,14.561c-0.484-0.165-0.736-0.79-1.508-1.811c0.722,0.387,1.365,0.849,1.979,1.399
							C78.457,14.279,78.307,14.41,78.134,14.561z"/>
					</g>
					<g>
						<path class="st3" d="M81.404,10.567c-0.901,0.002-1.222,1.01-2.079,0.355c-0.243-0.395-0.562-0.782-0.83-1.174
							c0.03-0.104,0.029-0.232,0.027-0.362c-0.499-0.454-1.018-0.903-1.595-1.267c-0.178-0.189-0.421-0.363-0.62-0.527
							c0.219-0.188,0.397-0.394,0.625-0.575c0.644-0.09,1.225,0.331,2.383,0.777c0.113,0.079,0.226,0.16,0.331,0.249l0.53,0.437
							c0.19,0.402,0.35,0.892,0.497,1.312C80.962,10.064,81.167,10.303,81.404,10.567z"/>
					</g>
					<g>
						<path class="st3" d="M74.677,11.784c-0.011-0.352-0.096-0.672-0.153-0.984c0.603-0.222,1.09,0.252,1.526,0.511
							c-0.031,0.222-0.083,0.467-0.09,0.704C75.545,11.914,75.1,11.825,74.677,11.784z"/>
					</g>
					<g>
						<path class="st3" d="M65.134,4.629c-0.73,0.19-0.99,0.385-1.247,0.459c-0.233,0.075-0.381,0.02-0.606-0.275
							c0.04-0.634,0.894-0.684,1.337-1.009c0.317-0.073-0.518-0.322-0.216-0.457c0.241-0.003,0.524-0.006,0.767-0.009L65.134,4.629z
							"/>
					</g>
					<g>
						<path class="st4" d="M61.141,12.444c-0.378,0.013-0.496,0.705-0.985,0.419c-0.231-0.043-0.463-0.119-0.692-0.194
							c-0.518-0.116,0.003,0.758-0.949,0.463c-0.314,0.318-0.746,0.27-1.378,0.116c-0.977-0.135-1.77,0.263-2.223,1.154
							c-0.29,0.016-0.554,0.066-0.844,0.113c0.022-0.719-0.51-0.3-0.667-0.68c-0.315,0.013-0.662,0.027-0.976,0.04l-0.655-0.386
							c-0.092,0.414-0.537,0.534-0.851,0.509c-0.234-0.212-0.408-0.412-0.607-0.583c-0.155,0.104-0.319,0.241-0.486,0.377
							c-0.456,0.447-1.07,0.119-1.386-0.112c0.003-0.402,0.039-0.803-0.619-1.558l-0.977-0.041c-0.256-0.076-0.13,0.546-0.88,0.189
							c-0.051,0.623-0.857,0.293-1.352-0.544c0.212-0.231,0.433-0.473,0.644-0.704c0.176,0.028,0.38,0.06,0.556,0.088l1.14,0.187
							l0.964,0.174c0.382,0.072,0.761,0.144,1.14,0.216c0.519,0.104,1.035,0.208,1.556,0.313c0.471,0.01,0.936-0.043,1.419-0.067
							c0.456-0.026,1.013-0.221,1.435,0.16l1.333,0.095c0.282-0.209,0.539-0.401,0.82-0.582c0.255-0.122,0.535-0.207,0.817-0.293
							c0.143,0.202,0.572,0.218,0.404,0.806c0.143,0.005,0.286,0.01,0.401,0.014c0.43,0.048,0.83,0.125,1.265,0.207
							c0.26,0.009,0.549,0.018,0.808,0.027l-0.002-0.494c0.611,0.091,1.219,0.178,1.83,0.243c0.699,0.108,1.392,0.177,2.086,0.313
							c-0.441,0.684-0.86,0.614-1.554,0.676C61.51,12.898,61.313,12.655,61.141,12.444z"/>
					</g>
					<g>
						<path class="st3" d="M59.319,12.367c-0.26-0.009-0.548-0.018-0.808-0.027c-0.435-0.082-0.835-0.159-1.265-0.207
							c0.112-0.261,0.197-0.521,0.28-0.781c0.596-0.341,1.301,0.01,1.791,0.522L59.319,12.367z"/>
					</g>
					<g>
						<path class="st1" d="M53.017,4.604c-0.187-0.054-0.355-0.148-0.531-0.239c-0.319-0.246-0.562,0.256-0.649,0.564
							c0.016,0.466,0.033,0.929,0.05,1.427c-0.513-0.065-1.023-0.092-1.455-0.161c0.049-0.491,0.095-0.947,0.157-1.567
							c-0.034-0.01-0.05-0.015-0.082-0.025c0.089-0.577,0.154-1.16,0.223-1.704c0.12-0.023,0.238-0.043,0.39-0.048
							c0.374,0.071,0.74,0.118,1.182,0.13c0.4,0.031,0.855,0.042,1.295,0.1c0.025,0.2-0.093,0.516,0.123,0.965L53.017,4.604z"/>
					</g>
					<g>
						<path class="st3" d="M52.555,6.284c-0.227,0-0.453,0.048-0.668,0.072c-0.018-0.498-0.034-0.961-0.05-1.427
							c0.234,0.18,0.494,0.38,0.738,0.568L52.555,6.284z"/>
					</g>
					<g>
						<path class="st3" d="M50.275,4.533c-0.059,0.136-0.253,0.224-0.391,0.287c-0.143,0.063-0.273,0.099-0.393,0.117
							c-0.24,0.036-0.441-0.001-0.635-0.036c-0.121-0.257-0.424-0.445-0.377-0.705c0.527-0.158,0.94-0.225,1.246-0.178
							C50.033,4.067,50.259,4.232,50.275,4.533z"/>
					</g>
					<g>
						<path class="st3" d="M45.187,8.146c-0.24,0.233-0.45,0.468-0.658,0.705c-0.121-0.222-0.256-0.468-0.376-0.688
							c-0.262,0.16-0.55,0.057-1.029,0.324c-1.56-0.609-2.365,1.052-4.254,0.084c0.149-0.412,0.328-0.789,0.507-1.196
							c1.357-0.132,2.297,0.023,3.047-0.578c0.252,0.2,0.534,0.405,0.815,0.607c0.269,0.037,0.566,0.079,0.985,0.137
							c0.34-0.019,0.708-0.031,1.043-0.017C45.229,7.82,45.208,7.983,45.187,8.146z"/>
					</g>
					<g>
						<path class="st4" d="M38.87,8.571c-0.201-0.025-0.373-0.047-0.575-0.072c-0.005,0.067-0.01,0.132-0.012,0.165
							c-0.268,0.065-0.557,0.128-0.825,0.227c-0.058-0.007-0.115-0.014-0.142-0.018c-0.44,0.11-0.847,0.19-1.252,0.303
							c-0.335-0.078-0.64-0.183-0.938-0.29c-0.374,0.081-0.744,0.129-1.086,0.182c-0.054-0.008-0.111-0.016-0.139-0.02
							c-0.029-0.27-0.062-0.541-0.064-0.807c-0.993-0.051-1.226,0.052-1.752,0.363l-0.406-0.065l-0.243-0.04
							c-0.196,0.026-0.361,0.047-0.556,0.073c-0.298-0.019-0.6-0.007-0.9,0.005c-0.271-0.215-0.563-0.446-0.833-0.661
							c0.181-0.164,0.392-0.357,0.573-0.521c0.62,0.01,1.149-0.219,1.818,0.155c0.523-0.047,1.047-0.125,1.582-0.213
							c0.295,0.077,0.613,0.194,0.911,0.301c0.166,0.023,0.358,0.05,0.525,0.073c0.765-0.061,1.534-0.122,2.329-0.185
							c0.428,0.013,0.916,0.028,1.373,0.042l0.159-0.479c0.312,0.093,0.646,0.193,0.961,0.287
							C39.198,7.782,39.019,8.159,38.87,8.571z"/>
					</g>
					<g>
						<path class="st3" d="M38.059,9.929c-0.228-0.361-0.4-0.714-0.601-1.039c0.268-0.098,0.557-0.162,0.825-0.227L38.059,9.929z"/>
					</g>
					<g>
						<path class="st3" d="M32.085,8.603c0.526-0.311,0.758-0.414,1.752-0.363c0.002,0.266,0.034,0.537,0.064,0.807
							C33.419,8.874,33.023,9.122,32.085,8.603z"/>
					</g>
					<g>
						<path class="st3" d="M33.788,2.985c-0.224,0.1-0.447,0.229-0.674,0.36c-0.186-0.029-0.343-0.054-0.501-0.079
							c-0.334,0.117-0.627,0.228-0.927,0.313c-0.516,0.381-0.785-0.038-1.067-0.491c-0.143,0.176-0.304,0.373-0.448,0.549
							c-0.35-0.129-0.793-0.025-1.051-0.378c0-0.202-0.02-0.44-0.045-0.646c-0.338-0.07-0.65-0.134-0.989-0.204
							c0.055-0.358,0.114-0.748,0.169-1.105c0.277-0.148,0.484-0.336,0.7-0.491c0.082,0.52,0.192,1.013,0.283,1.501
							c0.51,0.079,1.046,0.109,1.575,0.178c0.041-0.392,0.079-0.752,0.117-1.112c0.385,0.016,0.817,0.034,1.227,0.051
							c0.134,0.222,0.109,0.485,0.286,0.847c0.072,0.077,0.147,0.123,0.244,0.204c0.124-0.18,0.275-0.389,0.425-0.564
							c0.262,0.041,0.499,0.078,0.762,0.119c0.018,0.102,0.064,0.209,0.109,0.315C33.907,2.57,33.838,2.76,33.788,2.985z"/>
					</g>
					<g>
						<path class="st3" d="M30.881,8.571c-0.298-0.019-0.6-0.007-0.9,0.005C30.281,8.564,30.583,8.553,30.881,8.571z"/>
					</g>
					<g>
						<path class="st3" d="M28.496,7.954c-0.455,0.986-1.353,0.126-1.763,0.622c-0.644,0.161-0.569-0.522-0.779-0.765
							c0.008-0.065,0.017-0.13,0.021-0.164c0.28-0.214,0.668-0.429,1.003-0.634C27.49,7.281,28.385,6.894,28.496,7.954z"/>
					</g>
					<g>
						<path class="st5" d="M34.831,4.563c-0.026,0.295-0.054,0.623-0.083,0.951c-1.588,0.077-3.347,0.134-4.919,0.129
							c-1.134,0.021-2.277-0.06-3.72-0.044c-1.139,0.514-2.926-0.829-4.09-0.097c-0.59-0.098-1.178-0.196-1.794-0.299
							c-0.346-0.087-0.667-0.168-1.013-0.255c-0.269-0.068-0.511-0.128-0.779-0.195c-0.178,0.191-0.353,0.351-0.507,0.549
							c-0.176-0.113-0.326-0.219-0.509-0.3c0.282-0.812,0.533-1.628,0.774-2.414c0.702,0.008,1.423,0.025,2.127,0.065
							c0.321,0.184,0.619,0.354,0.94,0.538c0.42,0.373,0.751-0.256,1.041-0.726c0.128,0.031,0.231,0.056,0.358,0.087
							c0.22,0.285,0.413,0.537,0.634,0.823c0.435,0.403,0.677-0.449,1.057-0.43c0.727-0.206,1.024-0.211,1.27-0.358
							c0.208,0.041,0.356,0.083,0.614,0.124l0.789,0.122c0.255,0.252,0.506,0.539,0.733,0.784c0.292,0.193,0.543,0.142,0.764,0.023
							c0.201-0.122,0.39-0.308,0.601-0.381c0.258,0.353,0.701,0.249,1.051,0.378c0.144-0.176,0.305-0.373,0.448-0.549
							c0.282,0.453,0.552,0.872,1.067,0.491c0.3-0.085,0.593-0.196,0.927-0.313c0.159,0.025,0.316,0.05,0.501,0.079
							c0.223,0.201,0.469,0.408,0.729,0.578c0.325,0.047,0.676,0.097,1.029,0.148C34.85,4.333,34.842,4.43,34.831,4.563z"/>
					</g>
					<g>
						<path class="st3" d="M24.349,2.943c-0.136-0.299-0.476-0.445-0.383-0.727c0.374-0.923,0.937-0.29,1.392-0.326
							c0.101,0.192,0.2,0.381,0.261,0.694C25.373,2.732,25.076,2.737,24.349,2.943z"/>
					</g>
					<g>
						<path class="st3" d="M21.342,7.908c-0.389-0.307-0.787-0.621-1.175-0.927c0.598-0.631,1.097-0.341,1.53-0.274
							C21.551,7.215,21.581,7.829,21.342,7.908z"/>
					</g>
					<g>
						<path class="st3" d="M17.152,2.962c-0.377,0.04-1.312,0.169-1.277-0.632c0.46-1.046,0.976-0.326,1.286-0.656
							c0.398,0.002,0.593,0.289,0.794,0.681L17.152,2.962z"/>
					</g>
					<g>
						<path class="st3" d="M14.072,3.584l-0.465-0.17c-0.397,0.232-0.747-0.077-1.102,0.099C12.4,3.753,12.068,3.448,11.823,3.42
							c-0.022-0.009-0.067-0.026-0.111-0.044c0.021-0.414,0.016-0.803,0.003-1.197c0.24-0.539,0.403-0.295,0.543-0.274
							c0.368,0.146,0.716,0.285,1.084,0.431c0.057,0.023,0.115,0.046,0.192,0.077c0.27-0.189,0.514-0.359,0.77-0.538
							c0.245,0.139,0.554,0.287,0.834,0.413C14.78,2.723,14.431,3.148,14.072,3.584z"/>
					</g>
					<g>
						<path class="st1" d="M81.055,84.736c-0.366-0.473-0.61-0.829-0.363-1.103c-0.139-0.352-0.285-0.732-0.392-1.092
							c-0.042-0.374-0.073-0.79-0.089-1.177c0.226,0.114,0.462,0.257,0.724,0.364c0.03,0.134,0.059,0.268,0.083,0.375
							c0.034,0.487,0.06,0.951,0.126,1.432C81.129,83.95,81.108,84.339,81.055,84.736z"/>
					</g>
					<g>
						<path class="st1" d="M76.057,80.352c0.426-0.78-0.799-1.234-0.13-1.993l0.769-0.193c0.373-0.431,0.372-0.72,0.933-0.921
							c0.054-1.168-0.409-1.537-0.193-2.724c-0.077-0.449-0.125-0.905-0.171-1.363c-0.048-0.192-0.089-0.358-0.13-0.52
							c-0.063-0.25-0.111-0.442-0.167-0.663c0.537-0.169,0.03-0.691,0.208-1.062c-0.036-0.378-0.069-0.723-0.105-1.1
							c-0.078-0.307-0.162-0.642-0.239-0.947c0.302-0.017,0.791-0.236,0.508-0.553c-0.241-0.417,0.487-0.907-0.15-1.28
							c-0.282,0.102-0.182-0.312-0.294-0.494c0.415-0.105,0.171-0.401,0.51-0.548c-0.124-0.63-1.509-0.462-1.015-1.493
							c0.166-0.709,0.584-1.623-0.079-2.435c-1.928-1.267,1.995-1.72-0.299-2.575c-0.265-0.273,0.269-0.459,0.165-0.771
							c-0.193-0.565-0.396-1.158-0.564-1.762c0.628-0.383-0.341-1.309,0.289-1.688c-0.305-0.333-0.674-0.806-0.424-1.225
							c0.071-0.845-0.038-1.438,0.081-2.225c-0.271-0.379,0.608-1.027-0.213-1.154c-0.596,0.045-0.351-0.707-0.514-1.08
							c0.639-0.386-0.281-1.461,0.497-1.862c0.006-0.678,0.011-1.355,0.045-2.062l-0.59-0.656c-0.076-1.815-0.063-3.423-0.005-5.086
							c0.016-0.794,0.036-1.721,0.077-2.591c0.037-0.872,0.07-1.752,0.08-2.673c0.727-1.042-0.69-1.431,0-2.442
							c0.36-1.178-0.05-2.148,0.279-3.153c0.48-0.375-0.313-0.468-0.196-0.764c-0.32-1.166,0.312-1.885,0.409-2.812
							c0.703,0.873,0.448,2.406,0.582,3.645c0.18,0.431-0.775,0.632,0.022,0.794c-0.06,0.218,0.141,0.517-0.152,0.665
							c-0.143,1.409-0.146,2.957-0.141,4.585c0.004,0.835,0.008,1.673,0.012,2.502c-0.004,0.879,0.019,1.73-0.011,2.53
							c-0.301,1.536,0.469,3.454-0.071,5.413c0.096,0.688,0.188,1.346,0.28,2.007c0.47,0.653,0.281,1.5,0.057,2.182
							c0.721,1.519,0.324,3.263,0.687,4.561c-0.382,1.24,1.111,2.282,0.23,3.448l0.154,0.69c0.705,1.361,0.721,2.943,0.711,4.342
							c0.29,0.348-0.864,0.91,0.076,1.005c0.024,0.235,0.261,0.504,0.007,0.72c-0.022,0.611,0.095,1.901,0.799,2.525
							c-0.069,0.408-0.144,0.785-0.181,1.183c-0.103,0.267-0.047,0.489-0.331,1.247l0.167,0.669c-0.29,0.195-0.575,0.418-0.827,0.63
							c0.29,0.34,0.318,0.453,0.81,0.651l0.166,0.66c0.035,0.139,0.062,0.249,0.097,0.386c0.533,0.36,0.121,1.028,0.141,1.927
							c0.885,0.555-0.336,1.535,0.482,1.963c0.816,0.549-0.296,1.026-0.143,2.097c0.035,0.305,0.05,0.642,0.053,0.952
							c-0.146-0.048-0.326-0.088-0.511-0.156c-0.321,0.078-0.611,0.148-0.931,0.226c-0.188,0.358-0.364,0.742-0.559,1.093
							c0.062,0.288,0.229,0.579-0.12,0.828C76.121,81.69,76.561,80.603,76.057,80.352z"/>
					</g>
					<g>
						<path class="st1" d="M80.098,80.858c-0.491-0.079-0.407-0.465-0.492-0.695C79.861,80.101,80.235,79.958,80.098,80.858z"/>
					</g>
					<g>
						<path class="st5" d="M84.66,63.552c-1.538-1.417-1.022-3.062-1.874-4.394c0.366-0.743-0.07-0.724-0.091-0.959
							c0.109-1.18-0.19-1.762,0.32-2.203c-0.05-0.519-0.09-1.01-0.159-1.523c-0.449-0.697,0.085-1.368-0.739-2.104l-0.048-0.254
							c0.156-0.239,0.352-0.454,0.509-0.691c-0.205-0.192-0.403-0.357-0.613-0.578c0.285-0.816,0.187-1.146-0.092-1.387
							c0.009-0.35,0.016-0.73-0.014-1.103c-0.088-0.535-0.176-1.071-0.269-1.636c-0.024-0.171-0.047-0.341-0.075-0.54
							c0.331-0.745,0.449-1.103,0.159-1.263c-0.628-0.201,0.395-0.287,0.038-0.694c-0.111-0.503,0.01-1.09-0.317-1.622
							c0.015-0.261,0.032-0.548,0.046-0.806c0.153-0.131,0.308-0.232,0.463-0.333c-0.226-0.489-0.411-0.949-0.615-1.444
							c-0.047-0.76-0.128-1.528-0.143-2.274c-0.007-0.282-0.014-0.56-0.021-0.815c-0.002-0.171-0.005-0.368-0.008-0.538l0.487-1.368
							c-0.055-0.459-0.109-0.913-0.163-1.37c-0.263-0.287-0.461-0.776-0.166-1.123c-0.006-0.725-0.012-1.478-0.018-2.233
							c0.065-0.029,0.131-0.089,0.163-0.12c0.545-0.893-0.153-0.787-0.189-0.99c-0.183-0.547-0.333-1.098-0.535-1.673
							c-0.021-0.32-0.042-0.645-0.063-0.967c0.312-0.733,0.603-1.482,0.871-2.262c-0.054-0.146-0.133-0.289-0.191-0.438
							c-0.07-0.02-0.145-0.071-0.182-0.096c-0.121-1.101-0.287-2.241-0.518-3.331l0.278-0.103c0.139-0.745,0.071-0.919,0.017-1.084
							c0.219-0.282,0.463-0.586,0.835-0.921c-0.516-0.09-1.046-0.148-1.584-0.175c-0.12-0.323-0.273-0.631-0.399-0.91l0.425-0.257
							c0.273,0.369,1.125-0.205,1.728,0.853c0.012,0.116-0.008,0.251-0.02,0.422c0.133,0.185,0.279,0.407,0.383,0.609
							c-0.089,0.57-0.222,1.091-0.348,1.626c0.107,0.46,0.229,0.915,0.315,1.377c0.041,0.213,0.089,0.461,0.13,0.675
							c0.181,0.147,0.24,0.372,0.247,0.708c0.004,0.307-0.061,0.684-0.133,1.201c0.208,1.709,0.289,3.346,0.335,4.987
							c0.008,0.385,0.016,0.74,0.024,1.126c0.207,0.614,0.38,1.586,0.014,2.511c0.131,0.288,0.396,0.516,0.33,0.832
							c-0.597,0.523-0.202,1.367-0.788,2.328c-0.063,0.391-0.088,0.807-0.145,1.194c-0.017,0.99,0.294,2.083,0.524,3.138
							c-0.213,0.299-0.381,0.567-0.582,0.871c0.741,0.658,0.963,1.688,0.79,2.616c-0.019,1.363-0.066,2.738-0.025,4.116
							c0.091,0.357,0.003,0.836,0.466,1.008l0.078,0.418c-0.21,0.851-0.038,1.049,0.062,1.232c-0.001,0.229-0.003,0.466-0.004,0.696
							c0.181,0.893,0.363,1.787,0.543,2.678c-0.207,0.135-0.384,0.262-0.584,0.424c0.173,0.196,0.316,0.397,0.464,0.599
							c0.037,0.166,0.081,0.363,0.118,0.529c0.068,0.306,0.137,0.612,0.206,0.922c-0.25,0.408,0.336,1.358,0.079,1.833
							C84.263,60.127,84.92,61.854,84.66,63.552z"/>
					</g>
					<g>
						<path class="st1" d="M83.528,54.618c0.2-0.162,0.377-0.289,0.584-0.424c0.369,0.152,0.709,0.803-0.12,1.023
							C83.844,55.015,83.701,54.814,83.528,54.618z"/>
					</g>
					<g>
						<path class="st1" d="M87.762,51.621c-0.236-0.178-0.479-0.355-0.745-0.527c0.012-0.655-0.003-1.272-0.022-1.915
							c0.078-0.128,0.149-0.283,0.221-0.435c0.094-0.385,0.207-0.739,0.311-1.117c0.034-0.006,0.098-0.018,0.163-0.03
							c0.082,0.234,0.174,0.496,0.255,0.728c0.115,0.257,0.231,0.513,0.307,0.75c0.289,0.472-0.63,0.767-0.769,1.106
							c0.332,0.156,0.888-0.098,1.008,0.187l0.124,0.647c-0.005,0.141-0.041,0.29-0.078,0.44c-0.032,0.007-0.097,0.021-0.129,0.028
							C88.182,51.531,87.989,51.572,87.762,51.621z"/>
					</g>
					<g>
						<path class="st1" d="M83.51,49.589c0.414,0.239,0.722,0.983,0.062,1.232C83.472,50.638,83.301,50.439,83.51,49.589z"/>
					</g>
					<g>
						<path class="st1" d="M87.254,26.032c-0.161-0.358-0.353-0.738-0.559-1.096c-0.003-0.032-0.009-0.102-0.016-0.17
							c0.144-0.587,0.292-1.241,0.407-1.865c-0.202-0.221-0.364-0.413-0.584-0.728c0.29-1.081-0.734-2.304-0.413-3.238
							c-0.118-0.631-0.225-1.269-0.436-1.921c-0.167-0.474-0.346-0.942-0.55-1.4c-0.036-0.084-0.072-0.166-0.09-0.206
							c0.118-0.061,0.207-0.103,0.348-0.44c0.385,0.22,0.775,0.45,1.162,0.697c0.127,0.516,0.567,1.123,0.404,1.597
							c0.096,0.527,0.227,1.035,0.294,1.565c0.184,0.447,0.326,0.853,0.492,1.305c0.653,0.201,0.459,1.183,0.651,1.755
							c-0.045,0.127-0.096,0.28-0.154,0.416c-0.06,0.126-0.12,0.275-0.174,0.468c0.546,0.618,0.594,0.956,0.63,1.304
							c-0.146,0.193-0.281,0.489-0.753,0.43c0.003,0.035,0.01,0.104,0.014,0.139c0.255,0.222,0.471,0.411,0.725,0.631
							c-0.041,0.313,0.193,0.745-0.089,0.968C88.108,25.936,87.576,26.344,87.254,26.032z"/>
					</g>
					<g>
						<path class="st1" d="M75.403,25.253c-0.517-0.666-0.378-0.883-0.389-1.549c-0.071-0.195-0.178-0.376-0.245-0.547
							c-0.028-0.27-0.027-0.556-0.069-0.832c-0.149-1.017-0.435-2.049-0.919-3.005c0.74,0.587,0.974,1.619,1.227,2.875
							c0.33,0.069,0.194,0.346,0.199,0.814c0.039,0.191,0.081,0.4,0.123,0.608c0.347,0.265,0.218,0.684,0.319,0.979
							C75.582,24.814,75.512,25.03,75.403,25.253z"/>
					</g>
					<g>
						<path class="st1" d="M73.67,19.157c-0.497,0.117-0.576,0.007-0.726-0.175c-0.241,0.089-0.449,0.156-0.671,0.271
							c-0.53-0.086,0.158-0.723-0.208-0.942c0.243-0.794-1.297,0.025-0.321-1.086c0.625-0.361,0.816-0.134,0.914,0.254
							c0.116,0.378,0.16,0.877,0.636,1.166C73.436,18.814,73.549,18.974,73.67,19.157z"/>
					</g>
					<g>
						<path class="st1" d="M70.168,16.826c-0.101,0.058-0.205,0.107-0.315,0.145c-0.916,0.316-1.967,0.153-2.668-0.457
							c-0.145,0.319-0.284,0.302-0.464,0.413c-0.138-0.148-0.279-0.342-0.43-0.512c0.037-0.363,0.078-0.759,0.115-1.122
							c0.639-0.039,1.288-0.076,1.943-0.036c0.351,0.114,0.662,0.24,0.97,0.377c0.311,0.123,0.613,0.273,0.922,0.494
							c0.227,0.172,0.504,0.391,0.772,0.691C70.739,16.805,70.45,16.786,70.168,16.826z"/>
					</g>
					<g>
						<path class="st1" d="M65.158,15.238c-1.476-0.141-3.233-0.31-4.718-0.452c0-0.329,0.342-0.479,0.542-0.601
							c0.518-0.569,0.534,0.462,1.071,0.198c0.418-0.644,1.813,0.131,2.171-0.564c0.308,0.164,0.65,0.329,0.937,0.493
							c0.026,0.199,0.077,0.397,0.125,0.628C65.234,15.037,65.182,15.137,65.158,15.238z"/>
					</g>
					<g>
						<path class="st1" d="M58.958,18.052c-0.291-0.009-0.552-0.017-0.841-0.027c0.056-0.296-0.206-0.403-0.408-0.343
							c-0.868-0.387-2.61-0.127-3.62,0.17c-0.527-0.206-0.639-0.941-1.273-1.059c-0.821,0.082-1.76-0.287-2.676-0.528
							c-0.69,0.259-1.147,0.232-1.659,0.127c-0.489-0.106-0.939-0.285-1.322-0.376c-0.111-0.021-0.195-0.037-0.278-0.052
							c-0.493,0.518-1.156,0.196-1.667,0.183c-0.364-0.057-0.7-0.109-1.061-0.166c-0.91,0.562-2.529-0.427-3.444,0.153
							c0.037-0.424-0.404-0.317-0.215-0.824c0.014-0.163,0.025-0.295,0.038-0.459c1.057-0.23,2.131,0.313,3.041,0.08
							c0.22,0.098,0.443,0.162,0.662,0.264c0.282,0.043,0.534,0.082,0.817,0.126c0.071,0.113,0.144,0.222,0.213,0.366
							c0.268-0.327,0.838,0.14,1.171-0.47l0.252,0.044c0.284,0.005,0.571,0.011,0.827,0.016c0.176-0.034,0.381-0.062,0.552-0.062
							c0.277,0.055,0.555,0.111,0.804,0.161c0.342,0.172,0.502-0.098,0.689-0.027c0.198,0.147,0.435,0.285,0.653,0.457
							c0.208,0.071,0.34-0.174,0.774-0.198c0.536,0.111,1.039,0.233,1.583,0.366c0.23,0.12,0.677,0.323,0.888-0.255
							c0.18,0.015,0.39,0.032,0.57,0.047l1.421,0.081c0.41,0.119,1.057,0.34,1.262,0.052c0.21-0.32,0.786,0.061,0.986-0.592
							c0.233,0.172,0.466,0.344,0.698,0.485c0.372-0.152,0.483-0.412,1.226-0.418c-0.083,0.325-0.167,0.62-0.277,0.946l0.43,0.806
							C59.577,17.516,59.669,18.408,58.958,18.052z"/>
					</g>
					<g>
						<path class="st1" d="M58.274,20.369c-0.501-0.573-2.823,0.302-1.732-1.145c0.304,0.01,0.606,0.021,0.878,0.03
							c0.088,0.003,0.176,0.006,0.294,0.01c0.265,0.101,0.557,0.212,0.849,0.323C58.711,19.988,58.243,20.007,58.274,20.369z"/>
					</g>
					<g>
						<path class="st1" d="M54.448,5.352c0.053,0.795-0.081,1.019-0.607,1.07c-0.466,0.493-0.942,0.803-1.08,0.055
							c-0.069-0.075-0.136-0.149-0.206-0.193l0.021-0.787c0.138-0.178,0.299-0.386,0.438-0.565c0.243,0.124,0.465,0.238,0.707,0.362
							C53.946,5.312,54.198,5.332,54.448,5.352z"/>
					</g>
					<g>
						<path class="st1" d="M43.825,4.588c0.031,0.804-0.236,1.001-1.017,1.162c-0.105,0.12-0.214,0.273-0.318,0.424
							c-0.361-0.372-0.705-0.727-1.065-1.1c0.029-0.295,0.061-0.623,0.093-0.953c0.208,0.027,0.388,0.05,0.597,0.077
							c0.165,0.153,0.338,0.276,0.541,0.402C43.057,4.596,43.423,4.592,43.825,4.588z"/>
					</g>
					<g>
						<path class="st4" d="M41.425,5.074c-0.127,0.051-0.277,0.065-0.433,0.112c-0.23-0.13-0.451-0.255-0.674-0.417
							c-0.248,0.103-0.492,0.172-0.88,0.223c-0.014,0.165-0.028,0.328-0.04,0.461c-0.259-0.032-0.547-0.068-0.836-0.104
							c-0.258-0.032-0.543-0.067-0.801-0.099c-0.447,0.24-1.036,0.002-1.826,0.426c-0.25-0.033-0.528-0.07-0.806-0.107
							c-0.109-0.016-0.244-0.035-0.381-0.054c0.028-0.328,0.057-0.656,0.083-0.951c0.011-0.132,0.019-0.229,0.041-0.492
							c0.043-0.193,0.118-0.415,0.187-0.604c0.138,0.019,0.247,0.033,0.385,0.052c0.162,0.089,0.351,0.146,0.512,0.235l1.103-0.022
							c0.258,0.001,0.545-0.029,0.832-0.059c0.491,0.061,1.009,0.125,1.499,0.186c0.778-0.071,1.604-0.632,2.128,0.263
							C41.485,4.451,41.453,4.779,41.425,5.074z"/>
					</g>
					<g>
						<path class="st1" d="M40.933,5.808c-0.525-0.099-1.016-0.226-1.535-0.356c0.011-0.132,0.025-0.296,0.04-0.461
							c0.388-0.051,0.632-0.12,0.88-0.223c0.223,0.162,0.444,0.287,0.674,0.417C40.973,5.383,40.952,5.611,40.933,5.808z"/>
					</g>
					<g>
						<path class="st4" d="M44.324,11.683c-0.256-0.071-0.09,0.549-0.846,0.21c-0.329-0.212-0.631-0.421-0.937-0.595
							c-0.572,0.755-1.619,0.75-2.463,0.776c-0.75-0.395-1.626,0.393-2.046-0.423l-0.682-0.086c-0.282,0.224-0.58,0.461-0.863,0.685
							c0.036,0.237,0.204,0.624-0.069,0.788c-0.171-0.023-0.345,0.02-0.357-0.843c-0.152-0.252-0.772-0.332-1.261,0.331
							c-0.141-0.019-0.284-0.038-0.396-0.053c-0.325,0.122-0.058,0.622-0.356,0.747l-0.679-0.097
							c-0.743-0.012-1.458-0.024-2.2-0.036c-0.623,0.192-1.268-0.138-2.053-0.024c-0.362,0.336-1.062-0.367-1.269,0.225
							c-0.379-0.008-0.757-0.02-1.1-0.053c-0.244-0.143-0.655-0.412-0.88,0.181l-0.712,0.167c-0.177-0.168-0.319-0.364-0.461-0.561
							l-0.541,0.698c-0.173-0.003-0.38,0.024-0.559,0.053c-0.338-0.24-0.671-0.478-0.978-0.715c-0.343-0.006-0.664-0.01-0.974-0.048
							c-0.048-0.212-0.09-0.458-0.165-0.678c0.029-0.162,0.058-0.322,0.082-0.454c-0.58-0.437-0.881-0.204-0.965,0.08
							c-0.002,0.168,0.021,0.343,0.048,0.519c-0.037,0.194-0.074,0.388-0.117,0.614c-0.384-0.264-0.745-0.513-1.128-0.776
							c0.405-0.445,0.643-0.183,0.919-0.423c-0.422-0.945-2.004-0.386-1.498-1.481c0.389-0.073,0.42-0.234,0.92-0.453
							c-0.072-0.22-0.108-0.464-0.153-0.68c-0.268-0.233-0.571-0.446-0.836-0.681c0.025-0.128,0.044-0.226,0.063-0.323
							c0.31-0.126,0.508-0.11,0.709-0.129l0.596,0.451l1.055,0.253c0.042,0.213,0.09,0.46,0.132,0.673
							c0.736,0.004,1.793,0.044,2.329,0.695c0.25,0.023,0.529,0.012,0.811,0.005c0.276,0.191,0.558,0.347,0.843,0.505
							c0.271-0.348,0.861,0.337,1.004-0.28c0.428,0.065,0.853,0.152,1.248,0.234c0.051-0.157,0.133-0.309,0.215-0.459l0.256,0.051
							l0.594,0.619c1.139,0.219,1.819-0.056,3.28-0.385c0.88,0.674,1.219,0.185,1.359-0.126l0.028-0.294
							c0.251-0.263,0.466-0.463,0.739-0.688c0.013,0.466,0.268,0.767,0.612,0.715c0.221,0.064,0.412,0.156,0.657,0.254
							c0.236-0.099,0.441-0.172,0.704-0.237c0.33,0.142,0.687,0.288,1.045,0.467c0.329-0.121,0.657-0.241,1.009-0.37
							c1.062,0.729,2.009-0.446,2.598,0.493c0.581,0.004,1.195,0.055,1.81,0.069c0.293,0.005,0.562-0.023,0.86-0.048
							c0.06,0.274,0.12,0.549,0.21,0.827C43.774,11.604,44.063,11.645,44.324,11.683z"/>
					</g>
					<g>
						<path class="st1" d="M40.079,15.426c-0.631,0.981-0.812,0.393-1.123,0.322c-0.165,0.609-0.548,0.362-0.959-0.252
							c-0.058-0.007-0.086-0.011-0.143-0.018c0.07-0.124,0.106-0.22,0.172-0.312l0.697-0.077c0.078,0.11,0.155,0.218,0.259,0.365
							C39.328,15.43,39.706,15.408,40.079,15.426z"/>
					</g>
					<g>
						<path class="st1" d="M34.872,4.071c-0.353-0.051-0.704-0.102-1.029-0.148c-0.259-0.17-0.506-0.377-0.729-0.578
							c0.227-0.131,0.45-0.26,0.674-0.36c0.049-0.224,0.119-0.415,0.195-0.636c-0.045-0.106-0.092-0.212-0.109-0.315
							c0.338-0.449,0.496-0.427,0.87,0.292c-0.002,0.033-0.007,0.098-0.01,0.131c-0.019,0.23-0.035,0.426-0.055,0.657l0.379,0.354
							C34.989,3.655,34.914,3.878,34.872,4.071z"/>
					</g>
					<g>
						<path class="st1" d="M30.812,2.489c-0.054,0.023-0.112,0.079-0.14,0.108c-0.47-0.094-0.965-0.192-1.435-0.286
							c-0.091-0.488-0.202-0.98-0.283-1.501c0.652-0.359,1.005-0.016,1.31-0.028c-0.027,0.461,0.34,0.566,0.664,0.595
							C30.891,1.737,30.854,2.097,30.812,2.489z"/>
					</g>
					<g>
						<path class="st1" d="M29.12,3.257c-0.211,0.072-0.4,0.259-0.601,0.381c-0.221,0.119-0.472,0.169-0.764-0.023
							c-0.227-0.246-0.478-0.532-0.733-0.784c0.167-0.171,0.353-0.361,0.521-0.533c-0.074-0.283-0.12-0.56-0.166-0.838
							c0.39-0.827,0.768-0.215,0.878-0.159C28.2,1.659,28.14,2.048,28.086,2.407c0.339,0.07,0.651,0.134,0.989,0.204
							C29.1,2.818,29.12,3.056,29.12,3.257z"/>
					</g>
					<g>
						<path class="st1" d="M24.349,2.943c-0.38-0.019-0.622,0.833-1.057,0.43c-0.221-0.286-0.414-0.538-0.634-0.823
							c0.756-0.259,1-0.506,1.308-0.333C23.873,2.497,24.213,2.643,24.349,2.943z"/>
					</g>
					<g>
						<path class="st1" d="M22.299,2.463c-0.29,0.47-0.621,1.099-1.041,0.726c-0.321-0.184-0.619-0.354-0.94-0.538
							c0.171-0.196,0.314-0.36,0.485-0.556C21.294,2.216,21.811,2.343,22.299,2.463z"/>
					</g>
					<g>
						<path class="st1" d="M10.215,2.782c-0.01-0.142-0.003-0.247-0.025-0.361c0.83-0.662,1.19-0.341,1.525-0.242
							c0.013,0.394,0.018,0.783-0.003,1.197C11.229,3.185,10.723,2.984,10.215,2.782z"/>
					</g>
					<g>
						<path class="st1" d="M9.306,2.081C8.937,1.735,8.621,1.368,8.212,1.019c-0.18,0.112-0.379,0.183-0.589,0.285
							C6.819,1.215,6.565,1.652,6.024,1.32c-0.982-0.233-2.189-0.521-3.16-0.484c-0.395,0.226-0.916-0.066-1.38-0.08
							c0.015-0.064,0.022-0.098,0.037-0.162C3.182,0.578,3.468-0.26,4.5,0.082c0.282-0.238,1.004,0.114,1.65,0.273
							c0.264-0.086,0.554-0.182,0.82-0.269C7.424,0.33,7.793,0.207,8.348,0.227l1.153-0.11c0.111,0.811-0.276,1.196-0.087,2.006
							C9.387,2.112,9.332,2.091,9.306,2.081z"/>
					</g>
					<g>
						<path class="st4" d="M3.395,7.174C3.048,6.78,2.671,6.451,2.29,6.094C2.358,5.804,2.412,5.578,2.474,5.32
							C2.261,5.278,2.013,5.229,1.8,5.186C1.562,5.243,1.296,5.287,1.06,5.355c-0.657-0.27-0.64-0.401-0.58-0.724
							c-0.01-0.37-0.014-0.772,0.015-1.136C0.401,2.946,0.301,2.398,0.237,1.854c0.348-0.087,0.668-0.21,1.07-0.32
							c0.308,0.316,0.638,0.649,0.923,0.97c0.528,0.023,1.008,0.111,1.518,0.155c-0.01,0.169,0.021,0.344,0.047,0.522
							c-0.292,0.341-0.588,0.714-0.874,1.09c0.067,0.185,0.131,0.368,0.239,0.53C3.126,4.929,3.1,5.026,3.074,5.122
							c0.337,0.248,0.674,0.495,0.997,0.732C4.038,6.221,3.996,6.621,3.929,6.979C3.741,7.03,3.587,7.09,3.395,7.174z"/>
					</g>
					<g>
						<path class="st1" d="M2.29,6.094c-0.23,0.052-0.491,0.11-0.721,0.161c-0.151-0.301-0.343-0.608-0.508-0.9
							C1.296,5.287,1.562,5.243,1.8,5.186C2.013,5.229,2.261,5.278,2.474,5.32C2.412,5.578,2.358,5.804,2.29,6.094z"/>
					</g>
					<g>
						<path class="st4" d="M82.127,69.2c-0.005-0.294-0.564-0.208,0.081-1.03C82.192,68.501,82.178,68.86,82.127,69.2z"/>
					</g>
					<g>
						<path class="st4" d="M82.006,67.362c-0.145-0.438-0.32-0.868-0.498-1.3c-0.091-0.364-0.175-0.701-0.265-1.063
							c0.214-0.773,0.596-1.857,0.007-2.601c0.13-0.3,0.45-0.382,0.672-0.587c-0.054-0.224-0.108-0.45-0.162-0.672
							c-0.597-0.51-0.225-0.663,0.228-1.193c-0.098-0.123-0.483-0.178-0.711-0.272c-0.185-0.341-1.012-1.429,0.134-1.463
							c0.111-0.265,0.222-0.528,0.299-0.785c-0.019-0.234-0.371-0.301-0.57-0.432c-0.163-1.004-0.339-2.008-0.485-3.046
							c-0.338-0.165-0.228-0.604-0.356-0.903c0.161-0.213,0.347-0.459,0.507-0.671c-0.043-0.227-0.085-0.457-0.128-0.682
							c-0.621-0.263-0.554-0.962-0.525-1.91c-0.057-0.346-0.118-0.719-0.18-1.092c0.068-0.395,0.11-0.755,0.145-1.144
							c0.07-0.567-0.822-0.781-0.367-1.354c0.025-0.297,0.049-0.594,0.047-0.86c-0.024-0.171-0.051-0.372-0.075-0.543
							c-0.685-0.583-0.246-1.168,0.87-0.701c0.278-0.154,0.572-0.22,0.399-0.603c0.038-0.263,0.073-0.555,0.075-0.841
							c-0.027-0.257-0.057-0.539-0.084-0.794c-0.348-0.394-0.202-0.989,0.307-1.828c0.205,0.495,0.389,0.955,0.615,1.444
							c-0.155,0.101-0.31,0.202-0.463,0.333c-0.015,0.258-0.031,0.545-0.046,0.806c0.327,0.532,0.206,1.119,0.317,1.622
							c0.356,0.407-0.666,0.494-0.038,0.694c0.289,0.159,0.172,0.518-0.159,1.263c0.028,0.199,0.051,0.369,0.075,0.54
							c0.093,0.564,0.181,1.101,0.269,1.636c0.03,0.373,0.023,0.753,0.014,1.103c0.279,0.241,0.376,0.571,0.092,1.387
							c0.209,0.222,0.407,0.386,0.613,0.578c-0.157,0.237-0.353,0.451-0.509,0.691c0.175,0.228,0.397,0.475,0.61,0.693
							c0.135,0.322,0.117,0.736-0.154,0.883c-0.33,0.366,0.239,0.507,0.331,0.781c0.069,0.514,0.109,1.005,0.159,1.523
							c-0.51,0.441-0.212,1.023-0.32,2.203c0.022,0.234,0.458,0.216,0.091,0.959c0.851,1.331,0.336,2.976,1.874,4.394
							c0.16,0.462,0.33,0.954,0.49,1.416c-0.033,0.275-0.08,0.495-0.12,0.744c0.027,0.35,0.052,0.665,0.077,0.987
							c-0.38,0.248-0.931,0.629-1.623,0.722C83.001,67.402,82.488,67.381,82.006,67.362z"/>
					</g>
					<g>
						<path class="st4" d="M87.551,55.097c-0.726-0.816-0.854-1.449-0.243-1.753C88.039,53.465,88.021,54.18,87.551,55.097z"/>
					</g>
					<g>
						<path class="st4" d="M86.335,41.258c-0.213-0.188-0.2-0.497,0.054-1.181C86.762,40.355,87.002,40.943,86.335,41.258z"/>
					</g>
					<g>
						<path class="st4" d="M78.902,36.15c0.859-0.012,0.862,0.444,0.51,0.975C78.526,37.441,79.069,36.465,78.902,36.15z"/>
					</g>
					<g>
						<path class="st4" d="M79.063,34.477c-0.364-0.256,0.034-0.604,0.001-0.947c-1.515-1.612,0.496-3.522-0.248-5.323
							c-0.051-0.365-0.137-0.728-0.226-1.09c-0.053-0.721,0.483-1.565-0.375-2.528c0.238-0.232,0.487-1.235-0.275-0.756
							c-0.241-0.467-0.488-0.917-0.753-1.344c0.041-0.121,0.088-0.217,0.103-0.306c0.437-0.583,0.196-1.147-0.478-1.686l-0.48-0.446
							c-0.001-0.089,0.028-0.193,0.019-0.306c-0.035-0.249-0.071-0.532-0.166-0.784c-0.012-0.024-0.036-0.072-0.048-0.095
							c-0.152-0.247-0.365-0.48-0.567-0.683c0.271-0.212,0.543-0.424,0.788-0.615c0.041-0.067,0.066-0.157,0.064-0.229
							c0.156-0.124,0.34-0.269,0.497-0.393c-0.006-0.334-0.065-0.676-0.117-1.039c-0.191,0.008-0.413,0.005-0.629,0.003
							c-0.213-0.207-0.429-0.37-0.687-0.526c-0.022-0.022-0.062-0.062-0.104-0.105c0.141-0.28,0.23-0.517,0.345-0.774
							c0.467,0.357,0.916,0.753,1.298,1.208c0.165,0.394,0.324,0.786,0.443,1.191c0.809-0.015,0.565,1.001,0.91,1.485
							c0.427,0.391,0.802,0.834,1.179,1.257c-0.264,0.763-0.084,1.334,0.132,1.934c0.216,0.592,0.46,1.218,0.266,1.884
							c0.151,0.098,0.262,0.182,1.035,0.433c0.062-0.04,0.084-0.107,0.145-0.145c0.037,0.025,0.112,0.076,0.182,0.096
							c0.058,0.149,0.137,0.292,0.191,0.438c-0.268,0.78-0.559,1.53-0.871,2.262c0.021,0.322,0.042,0.647,0.063,0.967
							c0.202,0.575,0.352,1.126,0.535,1.673c0.036,0.203,0.734,0.097,0.189,0.99c-0.032,0.031-0.098,0.091-0.163,0.12
							c-0.198,0.005-0.429,0.012-0.628,0.017c-0.226,0.179-0.085,0.956-0.781,0.854c0.073,0.602-0.125,1.291,0.172,1.807
							c-0.396,0.174,0.166,0.83-0.496,0.805c0,0.26,0.001,0.459,0.001,0.689c0.527,0.111,0.394,0.887-0.133,0.693
							C79.295,35.107,79.163,35.021,79.063,34.477z"/>
					</g>
					<g>
						<path class="st4" d="M82.849,30.558c-0.008-0.386-0.016-0.741-0.024-1.126c0.066-0.002,0.133-0.004,0.165-0.005
							C82.971,29.817,82.907,30.172,82.849,30.558z"/>
					</g>
					<g>
						<path class="st4" d="M85.788,28.122c0.052-0.256-0.375-0.324-0.344-0.896c0.016-0.287,0.066-0.608,0.11-0.902
							c-0.1-0.418-0.193-0.825-0.272-1.252c-0.198,0.02-0.428,0.043-0.625,0.063c-0.024-0.615-0.036-1.246-0.09-1.883
							c-0.112-0.41-0.237-0.865-0.349-1.277c-0.048-0.236-0.103-0.512-0.15-0.747c0.231-0.179,0.465-0.365,0.681-0.592
							c-0.055-0.375-0.22-0.638-0.45-1.126c-0.19,0.062-0.409,0.133-0.597,0.194c-0.471-0.311-0.953-0.586-1.424-0.847
							c-0.105-0.202-0.251-0.424-0.383-0.609c0.012-0.172,0.031-0.306,0.02-0.422c0.224-0.321,0.417-0.634,0.651-0.931
							c-0.164-0.499-0.57-0.634-0.706-1.144c0.044-0.298,0.046-0.629,0.036-0.916c0.337-0.071,0.677-0.144,0.992-0.19l0.285,0.564
							c0.607,0.039,1.23,0.1,1.841,0.198c0.018,0.041,0.053,0.122,0.09,0.206c0.204,0.457,0.383,0.926,0.55,1.4
							c0.211,0.652,0.318,1.29,0.436,1.921c0.18,0.799,0.307,1.607,0.42,2.365c-0.2,0.43-0.06,0.641,0.136,0.872
							c0.098,0.109,0.212,0.234,0.299,0.352c0.084,0.102,0.144,0.221,0.143,0.376c-0.116,0.624-0.263,1.278-0.407,1.865
							c0.006,0.067,0.013,0.137,0.016,0.17c0.207,0.357,0.398,0.737,0.559,1.096c-0.073,0.306-0.153,0.636-0.232,0.97
							c0.315,0.246,0.137,0.709,0.052,1.062L85.788,28.122z"/>
					</g>
					<g>
						<path class="st4" d="M79.762,17.231c-0.267-0.559-0.542-1.078-0.879-1.596c-0.228-0.385-0.483-0.71-0.749-1.074
							c0.173-0.151,0.323-0.282,0.471-0.412c0.275,0.375,0.538,0.713,0.779,1.108c0.325,0.558,0.553,1.129,0.801,1.717
							L79.762,17.231z"/>
					</g>
					<g>
						<path class="st4" d="M76.306,7.592C75.73,7.293,75.14,7.021,74.53,6.785c-0.434-0.155-0.864-0.331-1.305-0.462
							c0.138-0.408-0.743-0.853-0.392-1.264c0.025-0.062,0.049-0.123,0.061-0.153c1.038-0.3,1.513,0.336,2.153,0.755
							c0.26,0.182,0.555,0.33,0.957,0.376c0.322,0.34,0.604,0.638,0.928,0.98C76.703,7.198,76.525,7.404,76.306,7.592z"/>
					</g>
					<g>
						<path class="st4" d="M53.013,4.932c-0.139,0.179-0.3,0.387-0.438,0.565c-0.244-0.188-0.505-0.388-0.738-0.568
							c-0.018-0.07-0.055-0.144-0.093-0.186c0.301-0.696,0.848-0.233,1.273-0.139l0.703-0.559c0.325,0.135,0.723,0.254,1.092,0.408
							c0.057,0.397-0.046,0.852-0.364,0.9C53.929,5.219,53.479,5.071,53.013,4.932z"/>
					</g>
					<g>
						<path class="st4" d="M46.31,8.487c-0.381-0.127-0.737-0.253-1.123-0.341c0.021-0.163,0.042-0.326,0.079-0.622
							c0.423,0.066,0.879,0.137,1.3,0.203C46.481,7.983,46.396,8.233,46.31,8.487z"/>
					</g>
					<g>
						<path class="st4" d="M46.908,4.237c-1.048,0.609-1.736,0.338-2.309,0.159l-0.773,0.192c-0.403,0.004-0.769,0.008-1.169,0.013
							c-0.203-0.126-0.376-0.249-0.541-0.402c0.02-0.197,0.043-0.427,0.063-0.623c0.092-0.021,0.192-0.076,0.29-0.13
							c0.728,0.161,1.447,0.322,2.192,0.461C45.623,3.67,46.55,3.453,46.908,4.237z"/>
					</g>
					<g>
						<path class="st5" d="M19.396,12.313c-0.235,0.012-0.469,0.021-0.698-0.001c-0.262,0.003-0.645,0.452-0.775-0.193
							c-0.395,0.073-0.475-0.39-0.743-0.49c-0.401,0.102-0.802,0.204-1.211,0.338c-0.062-0.255-0.161-0.483-0.258-0.712l-0.74,0.119
							c-0.317,0.022-0.574,0.057-0.863,0.118c-0.28-0.139-0.554-0.282-0.826-0.401c-0.517,0.022-1.337,0.238-1.605-0.518
							c-0.153,0.056-0.285,0.104-0.44,0.161c-0.092,0.315-0.185,0.63-0.269,0.916c-0.15,0.017-0.301,0.03-0.442,0.016
							c-0.261-0.2-0.517-0.399-0.768-0.636c-0.205-0.006-0.383-0.003-0.551-0.031c-0.52-0.236-1.006-0.491-1.498-0.752
							c-0.1,0.141-0.194,0.275-0.294,0.418c-0.392-0.114-0.82-0.206-1.234-0.284c-0.092,0.281-0.193,0.594-0.285,0.876
							c-0.082-0.03-0.164-0.061-0.274-0.101c-0.301,0.07-0.208,0.661-0.922,0.202c-0.429-0.103-0.836-0.176-1.279-0.233
							c-0.037,0.023-0.11,0.07-0.147,0.094c-0.048-0.05-0.088-0.13-0.109-0.169c-0.335-0.003-0.703,0.013-1.04,0.023
							c-0.041-0.214-0.088-0.461-0.129-0.677l0.438-0.703c0.09,0.022,0.18,0.045,0.302,0.075c0.076-0.185,0.191-0.392,0.301-0.568
							c0.023-0.609,0.067-1.177,0.119-1.777c0.056-0.087,0.148-0.17,0.238-0.247C3.587,7.09,3.741,7.03,3.929,6.979
							c0.087,0.059,0.165,0.151,0.273,0.249c0.205,0.604,0.383,1.22,0.557,1.828C4.988,9.055,5.183,9.051,5.395,9.09l0.17,0.371
							c0.313,0.003,0.6,0.006,0.914,0.009l1.377,0.339c0.38-0.13,0.759-0.261,1.161-0.399c-0.219-0.404-0.41-0.829-0.604-1.255
							c0.256-0.042,0.53-0.467,0.788-0.191c0.593,1.182,1.402,0.155,2.231,0.675c0.268,0.096,0.56,0.2,0.829,0.297
							c0.33-0.27,0.521,0.214,0.821,0.276c0.72-0.624,1.517,0.182,2.451-0.448c0.531,0.001,1.015,0.023,1.533,0.052
							c0.197-0.118,0.422-0.232,0.613-0.318c0.129,0.066,0.254,0.167,0.355,0.224l0.715-0.125c0.266,0.235,0.568,0.447,0.836,0.681
							c0.045,0.215,0.082,0.46,0.153,0.68c-0.5,0.219-0.531,0.38-0.92,0.453c-0.506,1.095,1.076,0.536,1.498,1.481
							C20.039,12.13,19.801,11.868,19.396,12.313z"/>
					</g>
					<g>
						<path class="st4" d="M18.698,12.311c-0.262,0.003-0.645,0.452-0.775-0.193C18.053,12.763,18.436,12.314,18.698,12.311z"/>
					</g>
					<g>
						<path class="st4" d="M18.191,2.587c-0.241,0.786-0.492,1.603-0.774,2.414C16.914,4.668,16.48,5.1,15.966,4.797
							c-0.37,0.108-0.862,0.211-1.112,0.367c-0.481,0-0.776,0.422-0.959,0.354c-0.23-0.181-0.435-0.354-0.641-0.57
							c0.353-0.527,0.433-0.502,0.852-1.009c-0.02-0.109-0.041-0.22-0.034-0.355c0.359-0.436,0.708-0.861,1.067-1.296l0.737,0.043
							c-0.035,0.801,0.9,0.672,1.277,0.632l0.803-0.607C18.05,2.448,18.124,2.5,18.191,2.587z"/>
					</g>
					<g>
						<path class="st4" d="M15.969,11.967c-0.278,0.064-0.584,0.155-0.878,0.252c-0.069,0.049-0.134,0.068-0.176,0.125
							c-0.168,0.229-0.306,0.466-0.443,0.702c-0.267,0.027-0.564,0.057-0.858,0.087l-0.245-0.067
							c-0.287-0.128-0.604-0.269-0.889-0.396c-0.347-0.112-0.669-0.216-1.016-0.328c-0.461,0.083-0.431,1.179-1.039,0.616
							c-0.201-0.119-0.407-0.241-0.606-0.359c-0.16-0.06-0.348-0.13-0.508-0.19c-0.066-0.165-0.115-0.289-0.165-0.414
							c-0.222,0.126-0.483,0.275-0.705,0.401c-0.338-0.165-0.666-0.362-0.968-0.549c-0.446-0.026-0.856-0.079-1.296-0.135
							C6.094,11.578,6,11.426,5.895,11.256c0.092-0.282,0.194-0.595,0.285-0.876c0.414,0.077,0.842,0.169,1.234,0.284
							c0.101-0.143,0.195-0.276,0.294-0.418c0.492,0.261,0.978,0.516,1.498,0.752c0.168,0.029,0.346,0.025,0.551,0.031
							c0.25,0.237,0.507,0.436,0.768,0.636c0.141,0.014,0.293,0.001,0.442-0.016c0.084-0.286,0.177-0.601,0.269-0.916
							c0.154-0.056,0.287-0.105,0.44-0.161c0.268,0.756,1.089,0.54,1.605,0.518c0.272,0.119,0.546,0.262,0.826,0.401
							c0.289-0.061,0.546-0.095,0.863-0.118l0.74-0.119C15.807,11.483,15.906,11.711,15.969,11.967z"/>
					</g>
					<g>
						<path class="st4" d="M13.534,2.413c-0.077-0.031-0.135-0.054-0.192-0.077c-0.369-0.147-0.716-0.285-1.084-0.431
							c0.465-0.587,0.766-0.639,1.17-0.371c0.427-0.143,0.771-0.181,0.876,0.341C14.049,2.054,13.805,2.224,13.534,2.413z"/>
					</g>
					<g>
						<path class="st4" d="M12.663,5.078C12.184,5.63,11.756,5.153,11.34,5.06c-0.255,0.076-0.556,0.135-0.847,0.196l0.238-0.753
							c0.308-0.126,0.618-0.213,0.871-0.324c0.397,0.256,0.815,0.526,1.212,0.782C12.754,5.009,12.702,5.023,12.663,5.078z"/>
					</g>
					<g>
						<path class="st4" d="M8.418,2.773C8.187,2.616,7.89,2.446,7.625,2.318C7.608,1.963,7.61,1.65,7.623,1.304
							c0.21-0.102,0.41-0.173,0.589-0.285c0.409,0.348,0.725,0.716,1.094,1.062C8.97,2.413,8.831,2.891,8.418,2.773z"/>
					</g>
					<g>
						<path class="st1" d="M31.736,15.408c-0.044,0.893-0.512,0.391-0.638,0.701c-1.267-0.202-2.971-0.506-4.14-0.589
							c-0.731-0.074-1.482-0.13-2.204-0.24c-0.117,0.38-0.434,0.151-0.498,0.541c-1.914-0.246-3.476-0.98-5.135-0.631
							c-1.333-0.251-2.946-0.315-4.358-0.138c-0.575-0.932-1.668,0.477-2.006-0.658c-0.635,1.001-1.714-1.15-1.947,0.712
							c-1.221,0.013-2.311-0.362-3.596,0.026c-0.021,0.697-0.543-0.103-0.798,0.223c-0.47-0.11-0.844,0.309-1.443,0.119
							c-0.838,0.251-1.467-0.367-2.4-0.349c-0.095,0.72-0.717,0.573-0.84,1.081c-0.774,0.123-0.387-0.684-0.884-1.051
							c-0.197-0.008-0.399,0.015-0.599,0.036c0.032-0.26,0.061-0.522,0.221-0.755c-0.128-0.395-0.233-0.819-0.349-1.209
							c-0.247-0.079-0.044-0.543-0.038-0.81c0.693,0.098,1.409,0.18,2.123,0.311c0.058,0.391,0.212,0.571,0.07,0.838
							c0.586,0.096,0.828-0.198,1.407-0.223c1.305,0.649,2.218-0.263,3.555,0.458c0.1-1.018,0.818-0.179,1.219-0.555
							c1.167,0.794,2.337,0.306,3.501,0.397c0.41-0.21,1.078,0.354,1.583-0.19c0.393,0.202,0.941,0.542,1.404,0.017
							c0.893-0.043,2.117,0.268,3.189,0.329c0.3,0.13,0.591,0.257,0.89,0.387c0.204,0.15,0.588,0.444,0.875-0.129l1.094,0.255
							c0.199,0.182,0.592,0.438,0.838-0.115c0.573,0.063,1.119,0.112,1.66,0.192c0.199,0.209,0.425,0.255,1.011-0.13
							c0.175,0.002,0.353-0.032,0.561-0.058c0.643,0.361,1.298,0.666,1.936,1.028c0.208-0.227,0.627,0.092,0.918-0.485
							c0.169,0.032,0.338,0.065,0.536,0.103c0.209,0.174,0.614,0.416,0.866-0.14l0.254,0.046
							C30.302,14.978,31.003,15.2,31.736,15.408z"/>
					</g>
					<g>
						<path class="st4" d="M5.621,11.155c-0.301,0.07-0.208,0.661-0.922,0.202C5.413,11.816,5.32,11.225,5.621,11.155z"/>
					</g>
					<g>
						<path class="st4" d="M2.341,12.118c-0.054-0.015-0.109-0.03-0.137-0.038c-0.041-0.351-0.062-0.662-0.079-1.008
							c0.336-0.009,0.705-0.025,1.04-0.023l0.256,0.075c-0.037,0.023-0.11,0.07-0.147,0.094C2.921,11.522,2.642,11.823,2.341,12.118
							z"/>
					</g>
					<g>
						<path class="st4" d="M1.996,10.395c-0.152-0.306-0.28-0.604-0.444-0.909C1.86,9.552,2.166,9.62,2.434,9.691L1.996,10.395z"/>
					</g>
					<g>
						<path class="st6" d="M14.106,3.939c-0.419,0.506-0.499,0.482-0.852,1.009c-0.141,0.018-0.305,0.028-0.44,0.013
							c-0.059,0.048-0.112,0.062-0.15,0.117c-0.152-0.164-0.303-0.325-0.442-0.518c-0.208-0.115-0.628-0.105-0.62-0.381
							c0.083-0.285,0.148-0.506,0.221-0.759c0.245,0.028,0.577,0.333,0.682,0.092c0.355-0.176,0.705,0.133,1.102-0.099l0.465,0.17
							C14.065,3.719,14.086,3.83,14.106,3.939z"/>
					</g>
					<g>
						<path class="st6" d="M7.856,9.809L6.479,9.47C6.165,9.467,5.878,9.464,5.565,9.461L5.395,9.09
							C5.183,9.051,4.988,9.055,4.759,9.056C4.585,8.448,4.407,7.832,4.202,7.228c0.5,0.147,1,0.298,1.472,0.461
							C6.191,7.44,6.703,8.22,6.939,7.604c0.501,0.187,0.973,0.363,1.474,0.55C8.607,8.581,8.798,9.006,9.017,9.41
							C8.615,9.548,8.235,9.679,7.856,9.809z"/>
					</g>
					<g>
						<path class="st5" d="M11.602,4.179c-0.253,0.111-0.564,0.198-0.871,0.324l-0.238,0.753L9.882,5.018
							C9.478,4.967,9.072,4.915,8.641,4.86c-0.03-0.011-0.087-0.033-0.143-0.054C8.223,4.565,7.977,4.293,7.692,4.02
							C7.485,4.227,7.31,4.446,7.137,4.664c0.006,0.179-0.016,0.345,0.002,0.491C6.718,5.143,6.27,5.105,5.867,5.076
							c0.061-0.19,0.131-0.409,0.192-0.6c0.113-0.344,0.236-0.72,0.349-1.067C6.395,3.232,6.372,3.086,6.391,2.92
							c-1.02-0.295-2.052-0.56-2.643-0.261c-0.51-0.043-0.99-0.131-1.518-0.155c-0.285-0.321-0.615-0.655-0.923-0.97l0.178-0.778
							c0.464,0.013,0.985,0.305,1.38,0.08c0.97-0.037,2.178,0.252,3.16,0.484c0.541,0.332,0.795-0.105,1.599-0.015
							C7.61,1.65,7.608,1.963,7.625,2.318C7.89,2.446,8.187,2.616,8.418,2.773c0.413,0.118,0.552-0.36,0.888-0.692
							c0.027,0.01,0.081,0.031,0.108,0.041C9.682,2.225,9.95,2.328,10.19,2.421c0.021,0.114,0.015,0.219,0.025,0.361
							c0.508,0.202,1.015,0.403,1.497,0.594c0.044,0.017,0.089,0.035,0.111,0.044C11.75,3.673,11.685,3.894,11.602,4.179z"/>
					</g>
					<g>
						<path class="st6" d="M8.498,4.806C8.108,4.7,7.976,5.167,7.139,5.156C7.121,5.009,7.143,4.843,7.137,4.664
							C7.31,4.446,7.485,4.227,7.692,4.02C7.977,4.293,8.223,4.565,8.498,4.806z"/>
					</g>
					<g>
						<path class="st6" d="M6.059,4.476c-0.061,0.19-0.131,0.41-0.192,0.6C5.6,5.159,5.345,5.261,5.082,5.317
							c-0.23-0.278-0.493-0.595-0.75-0.866c-0.469,0.081-0.67,0.296-1.172,0.35c-0.108-0.162-0.172-0.345-0.239-0.53
							c0.286-0.376,0.581-0.749,0.874-1.09C3.769,3.003,3.738,2.827,3.748,2.659c0.59-0.299,1.623-0.034,2.643,0.261
							C6.372,3.086,6.395,3.232,6.408,3.41C6.294,3.756,6.172,4.132,6.059,4.476z"/>
					</g>
					<g>
						<path class="st5" d="M84.218,21.976c0.113,0.412,0.237,0.866,0.349,1.277C84.455,22.843,84.33,22.388,84.218,21.976z"/>
					</g>
					<g>
						<path class="st5" d="M83.702,19.705c0.187-0.061,0.407-0.132,0.597-0.194c0.23,0.489,0.395,0.752,0.45,1.126
							c-0.216,0.226-0.45,0.412-0.681,0.592C83.961,20.717,83.832,20.211,83.702,19.705z"/>
					</g>
					<g>
						<path class="st5" d="M44.615,11.726c-0.086-0.013-0.173-0.026-0.291-0.043c-0.261-0.038-0.55-0.079-0.811-0.117
							c-0.089-0.278-0.149-0.553-0.21-0.827l1.436-0.094c0.166,0.121,0.354,0.258,0.519,0.377
							C45.048,11.253,44.826,11.495,44.615,11.726z"/>
					</g>
					<g>
						<path class="st5" d="M33.242,10.378c-0.14,0.311-0.479,0.8-1.359,0.126c-1.461,0.33-2.141,0.605-3.28,0.385l-0.594-0.619
							c0.151-0.037,0.353-0.365,0.509-0.536c1.045,0.034,2.116,0.069,3.161,0.103c0.023,0.036,0.07,0.111,0.121,0.153
							c0.472,0.03,0.974,0.062,1.471,0.094L33.242,10.378z"/>
					</g>
					<g>
						<path class="st5" d="M27.538,10.678c-0.396-0.081-0.82-0.169-1.248-0.234c-0.143,0.617-0.733-0.068-1.004,0.28
							c-0.285-0.158-0.567-0.314-0.843-0.505c0.618-0.113,0.697-0.885,1.946-0.427c0.22-0.03,0.459-0.129,0.728-0.005l0.636,0.432
							C27.671,10.37,27.589,10.521,27.538,10.678z"/>
					</g>
					<g>
						<path class="st5" d="M21.476,12.33c-0.268,0.04-0.562,0.072-0.836,0.145c-0.027-0.176-0.05-0.351-0.048-0.519
							c0.084-0.284,0.385-0.517,0.965-0.08C21.534,12.008,21.505,12.168,21.476,12.33z"/>
					</g>
					<g>
						<path class="st5" d="M5.082,5.317L4.071,5.854c-0.323-0.237-0.66-0.484-0.997-0.732C3.1,5.026,3.126,4.929,3.16,4.801
							c0.503-0.055,0.703-0.269,1.172-0.35C4.589,4.722,4.852,5.039,5.082,5.317z"/>
					</g>
					<g>
						<path class="st1" d="M69.064,13.242c-0.073-0.047-0.136-0.127-0.239-0.179C68.928,13.115,68.991,13.195,69.064,13.242z"/>
					</g>
					<g>
						<path class="st1" d="M48.032,8.944c0.015,0.104,0.058,0.212,0.105,0.321C48.09,9.157,48.047,9.048,48.032,8.944z"/>
					</g>
					<g>
						<path class="st1" d="M37.854,15.477c-0.267,0.762-0.808,0.331-1.009,0.636c-0.044,0.193-0.808,0.295-0.661-0.383
							c-0.274,0.131-0.486,0.237-0.73,0.372c-0.293,0.027-0.65-0.221-0.851,0.052c0.002,0.298-0.384,0.049-0.561,0.091
							c0.029-0.594-0.644-0.289-0.93-0.631c0.005-0.331,0.592-0.381,0.752-0.524c0.385-0.077,0.743-0.199,1.13-0.311
							c0.063-0.057,0.123-0.083,0.158-0.145c0.347,0.253,0.709,0.516,1.059,0.77L37.854,15.477z"/>
					</g>
					<g>
						<path class="st4" d="M81.744,18.316c-0.372,0.334-0.616,0.638-0.835,0.921c0.054,0.164,0.123,0.338-0.017,1.084l-0.278,0.103
							c-0.211-0.32-0.431-0.653-0.635-0.962c0.073-0.43,0.144-0.876,0.181-1.32C80.698,18.168,81.228,18.226,81.744,18.316z"/>
					</g>
					<g>
						<path class="st4" d="M81.895,18.249c-0.031,0.014-0.09,0.04-0.151,0.068C81.805,18.289,81.864,18.263,81.895,18.249z"/>
					</g>
					<g>
						<path class="st4" d="M3.395,7.174c-0.089,0.077-0.182,0.16-0.238,0.247C3.213,7.334,3.305,7.251,3.395,7.174z"/>
					</g>
					<g>
						<path class="st5" d="M22.299,2.463c-0.489-0.12-1.005-0.247-1.496-0.368c0.262-0.543,0.483-0.555,0.733-0.46
							C22.021,1.451,22.056,2.337,22.299,2.463z"/>
					</g>
					<g>
						<path class="st1" d="M33.113,15.613c-0.557,0.589-1.051,0.245-1.377-0.205c0.131-0.112,0.333-0.615,0.74-0.352
							C32.685,15.255,32.897,15.449,33.113,15.613z"/>
					</g>
				</g>
			</g>
		</g>
	</g>
</g>
</svg>