<!-- Generator: Adobe Illustrator 19.0.0, SVG Export Plug-In  -->
<svg version="1.1"
	 xmlns="http://www.w3.org/2000/svg" xmlns:xlink="http://www.w3.org/1999/xlink" xmlns:a="http://ns.adobe.com/AdobeSVGViewerExtensions/3.0/"
	 x="0px" y="0px" width="153.212px" height="227.511px" viewBox="0 0 153.212 227.511"
	 style="enable-background:new 0 0 153.212 227.511;" xml:space="preserve">
<style type="text/css">
	.st0{display:none;fill:none;stroke:#000000;stroke-miterlimit:10;}
	.st1{fill:#202020;}
</style>
<defs>
</defs>
<rect x="8.712" y="11.011" class="st0" width="144" height="216"/>
<g>
	<ellipse cx="45.748" cy="16.177" rx="4.845" ry="4.717"/>
	<g>
		<path d="M49.092,16.177c-0.229,4.141-6.689,4.178-6.689,0C42.403,11.998,48.863,12.036,49.092,16.177c0.106,1.92,3.107,1.932,3,0
			c-0.189-3.422-2.807-6.217-6.344-6.217c-3.392,0-6.346,2.787-6.346,6.217c0,3.335,2.79,6.07,6.082,6.203
			c3.636,0.147,6.412-2.674,6.608-6.203C52.199,14.248,49.199,14.254,49.092,16.177z"/>
	</g>
</g>
<g>
	<g>
		<g>
			<g>
				<path class="st1" d="M0,174.297c0.883-0.316,14.725-5.108,32.165-16.561c2.164-1.448,4.417-2.944,6.657-4.61
					c2.291-1.598,4.53-3.406,6.864-5.214c4.567-3.735,9.28-7.778,13.753-12.34c2.308-2.212,4.458-4.637,6.672-7.052
					c1.136-1.183,2.133-2.495,3.204-3.755c1.042-1.283,2.147-2.526,3.153-3.854c0.998-1.334,1.999-2.672,3.002-4.013
					c0.497-0.674,1.017-1.334,1.498-2.021l1.4-2.095c0.935-1.397,1.872-2.796,2.81-4.196c0.897-1.425,1.726-2.894,2.594-4.337
					c6.859-11.602,12.073-24.098,15.461-36.23c3.43-12.133,5.043-23.841,5.867-33.888c0.27-5.043,0.633-9.655,0.506-13.768
					c-0.022-4.106,0.052-7.683-0.212-10.628c-0.349-5.891-0.549-9.251-0.549-9.251s0.774,4.532,1.547,9.064
					c0.194,1.14,0.389,2.28,0.571,3.349c0.122,1.073,0.235,2.074,0.332,2.932c0.193,1.721,0.322,2.869,0.322,2.869
					s-0.005,0.798-0.016,2.293c-0.036,1.494,0.056,3.692-0.191,6.471c-0.092,1.391-0.193,2.93-0.303,4.606
					c-0.055,0.838-0.112,1.71-0.171,2.614c-0.061,0.904-0.101,1.843-0.247,2.802c-0.243,1.922-0.502,3.968-0.774,6.125
					c-0.136,1.078-0.275,2.183-0.417,3.315c-0.161,1.128-0.415,2.268-0.624,3.44c-0.441,2.339-0.899,4.775-1.374,7.297
					c-0.628,2.485-1.278,5.053-1.945,7.694c-0.166,0.66-0.334,1.324-0.503,1.993c-0.207,0.657-0.416,1.319-0.626,1.984
					c-0.424,1.329-0.854,2.675-1.288,4.035c-0.454,1.353-0.825,2.751-1.359,4.106c-0.526,1.357-1.057,2.728-1.593,4.109
					c-4.292,11.043-10.225,22.273-17.487,32.582c-7.2,10.36-15.854,19.646-24.676,27.506c-8.805,7.901-17.918,14.225-25.999,19.122
					c-8.08,4.923-15.22,8.279-20.224,10.469c-2.51,1.072-4.499,1.858-5.838,2.344c-0.676,0.253-1.175,0.425-1.509,0.539
					C0.155,174.245,0,174.297,0,174.297z"/>
				<path class="st1" d="M23.464,166.075c0.884-0.635,11.299-6.119,24.49-16.718c6.557-5.32,13.745-11.952,20.591-19.748
					c6.855-7.781,13.338-16.737,18.718-26.289c5.406-9.54,9.677-19.655,12.794-29.396c0.377-1.222,0.751-2.434,1.121-3.635
					c0.353-1.205,0.784-2.375,1.038-3.582c0.58-2.392,1.148-4.732,1.7-7.008c0.138-0.569,0.276-1.134,0.412-1.695
					c0.12-0.565,0.207-1.132,0.311-1.692c0.2-1.121,0.397-2.224,0.591-3.309c0.368-2.173,0.808-4.258,1.079-6.283
					c0.449-4.064,0.959-7.777,1.241-11.083c0.187-3.316,0.349-6.205,0.483-8.584c0.189-2.376,0.086-4.253,0.107-5.528
					c-0.003-1.276-0.005-1.956-0.005-1.956s0.103,0.924,0.258,2.309c0.149,1.387,0.401,3.241,0.452,5.095
					c0.194,3.725,0.388,7.45,0.388,7.45s-0.042,0.643-0.121,1.848c-0.107,1.203-0.361,2.957-0.633,5.194
					c-0.141,1.118-0.297,2.355-0.467,3.702c-0.085,0.673-0.173,1.374-0.265,2.101c-0.087,0.728-0.263,1.468-0.398,2.24
					c-0.29,1.541-0.599,3.18-0.925,4.909c-0.347,1.723-0.604,3.558-1.129,5.416c-0.472,1.869-0.964,3.816-1.473,5.831
					c-0.272,1.002-0.472,2.043-0.816,3.059c-0.326,1.022-0.657,2.059-0.992,3.11c-0.693,2.095-1.308,4.279-2.111,6.45
					c-0.836,2.159-1.69,4.365-2.558,6.608c-3.691,8.879-8.408,18.018-14.043,26.568c-5.618,8.559-12.102,16.533-18.809,23.386
					c-6.689,6.875-13.531,12.679-19.648,17.295c-6.131,4.602-11.469,8.125-15.317,10.398c-1.892,1.19-3.439,2.021-4.472,2.625
					C24.017,165.759,23.464,166.075,23.464,166.075z"/>
				<path class="st1" d="M42.405,156.649c0.181-0.132,0.794-0.58,1.785-1.304c0.967-0.756,2.303-1.8,3.953-3.091
					c1.68-1.254,3.531-2.933,5.709-4.735c1.099-0.89,2.172-1.937,3.339-2.989c1.147-1.073,2.398-2.146,3.609-3.356
					c4.93-4.754,10.277-10.593,15.513-17.187c5.197-6.628,10.078-14.137,14.382-21.931c1.024-1.977,2.048-3.952,3.067-5.918
					c0.997-1.977,1.826-4.023,2.738-6.009c0.445-0.998,0.889-1.992,1.33-2.98c0.418-0.998,0.77-2.017,1.155-3.015
					c0.754-2.003,1.498-3.98,2.229-5.924c0.655-1.97,1.226-3.932,1.824-5.837c0.563-1.916,1.234-3.756,1.627-5.619
					c0.448-1.847,0.884-3.644,1.305-5.381c0.211-0.868,0.418-1.722,0.621-2.56c0.209-0.836,0.316-1.678,0.475-2.491
					c0.573-3.263,1.14-6.246,1.568-8.9c0.312-2.671,0.583-4.998,0.806-6.914c0.206-1.917,0.438-3.417,0.48-4.449
					c0.058-1.031,0.089-1.58,0.089-1.58s0.039,0.751,0.096,1.878c0.034,1.126-0.01,2.622-0.013,4.126
					c-0.027,3.017-0.054,6.034-0.054,6.034s-0.066,0.517-0.189,1.486c-0.181,0.96-0.446,2.369-0.783,4.161
					c-0.338,1.791-0.749,3.967-1.22,6.462c-0.621,2.462-1.323,5.239-2.087,8.269c-0.343,1.525-0.86,3.069-1.373,4.673
					c-0.511,1.604-1.039,3.262-1.583,4.966c-0.496,1.72-1.225,3.412-1.887,5.168c-0.677,1.751-1.37,3.539-2.073,5.358
					c-0.809,1.774-1.631,3.578-2.463,5.404c-0.417,0.912-0.837,1.83-1.259,2.752c-0.421,0.922-0.937,1.804-1.405,2.714
					c-0.958,1.807-1.924,3.629-2.893,5.458c-1.038,1.79-2.138,3.554-3.206,5.335c-0.542,0.886-1.066,1.783-1.622,2.657l-1.753,2.566
					c-1.185,1.695-2.287,3.437-3.521,5.066c-1.239,1.624-2.469,3.234-3.683,4.826c-0.592,0.807-1.234,1.567-1.877,2.317
					c-0.638,0.754-1.271,1.502-1.899,2.244c-0.628,0.742-1.25,1.477-1.867,2.206c-0.616,0.729-1.286,1.399-1.916,2.09
					c-1.276,1.368-2.524,2.706-3.739,4.008c-1.273,1.246-2.511,2.457-3.708,3.63c-0.6,0.584-1.189,1.159-1.768,1.723
					c-0.601,0.54-1.192,1.07-1.77,1.589c-1.156,1.038-2.263,2.032-3.317,2.978c-1.074,0.922-2.122,1.763-3.09,2.571
					c-0.974,0.801-1.886,1.551-2.729,2.245c-0.868,0.663-1.664,1.271-2.384,1.821C44.117,155.486,42.405,156.649,42.405,156.649z"/>
				<path class="st1" d="M54.278,149.89c0.27-0.241,1.9-1.563,4.374-3.885c2.527-2.262,5.897-5.529,9.696-9.568
					c7.597-8.07,16.574-19.61,23.575-32.256c0.83-1.602,1.66-3.203,2.486-4.797c0.817-1.598,1.687-3.162,2.368-4.799
					c0.722-1.618,1.437-3.222,2.144-4.806c0.347-0.794,0.717-1.574,1.04-2.366c0.301-0.8,0.6-1.595,0.897-2.382
					c2.492-6.259,4.287-12.275,5.733-17.44c0.633-2.607,1.212-4.996,1.726-7.112c0.268-1.056,0.498-2.048,0.641-2.979
					c0.166-0.926,0.318-1.777,0.455-2.545c0.549-3.073,0.863-4.826,0.863-4.826s-0.171,2.425-0.342,4.85
					c-0.087,1.218-0.174,2.436-0.239,3.35c-0.026,0.459-0.065,0.838-0.107,1.101c-0.035,0.264-0.055,0.415-0.055,0.415
					s-0.412,1.635-1.134,4.495c-0.37,1.427-0.779,3.171-1.323,5.15c-0.623,1.957-1.326,4.165-2.093,6.574
					c-0.703,2.429-1.736,4.969-2.78,7.67c-0.522,1.35-1.059,2.736-1.608,4.153c-0.631,1.383-1.276,2.795-1.932,4.232
					c-0.657,1.435-1.324,2.894-2,4.371c-0.76,1.436-1.529,2.889-2.304,4.354c-0.792,1.455-1.523,2.958-2.379,4.399
					c-0.867,1.434-1.738,2.873-2.609,4.313c-1.671,2.922-3.674,5.632-5.514,8.381c-0.903,1.387-1.929,2.67-2.908,3.962
					c-0.983,1.288-1.954,2.561-2.91,3.812c-2.01,2.423-3.971,4.751-5.865,6.924c-1.977,2.1-3.8,4.128-5.565,5.919
					c-1.797,1.759-3.444,3.372-4.904,4.801c-1.519,1.365-2.844,2.554-3.935,3.534c-1.083,0.988-1.951,1.744-2.566,2.232
					C54.601,149.623,54.278,149.89,54.278,149.89z"/>
				<path class="st1" d="M63.688,143.846c0.207-0.208,1.404-1.409,3.342-3.352c0.989-0.951,2.096-2.154,3.338-3.528
					c1.231-1.384,2.687-2.858,4.116-4.589c5.906-6.751,12.896-16.275,18.585-26.49c1.419-2.552,2.708-5.171,4.043-7.709
					c0.693-1.257,1.217-2.582,1.804-3.856c0.572-1.282,1.136-2.547,1.691-3.792c1.177-2.462,1.989-4.97,2.897-7.29
					c0.439-1.167,0.865-2.301,1.277-3.398c0.432-1.09,0.704-2.191,1.044-3.222c1.27-4.152,2.406-7.585,2.917-10.061
					c0.596-2.454,0.936-3.854,0.936-3.854s-0.26,1.948-0.521,3.896c-0.131,0.978-0.263,1.955-0.362,2.688
					c-0.106,0.732-0.219,1.211-0.219,1.211s-0.413,1.299-1.136,3.571c-0.362,1.136-0.801,2.514-1.305,4.096
					c-0.127,0.395-0.257,0.803-0.392,1.223c-0.159,0.412-0.322,0.835-0.49,1.27c-0.336,0.869-0.689,1.782-1.057,2.736
					c-2.786,7.681-7.488,17.571-13.2,26.832c-5.666,9.299-12.418,17.861-17.85,23.914c-2.775,2.976-5.058,5.481-6.795,7.098
					C64.656,142.898,63.688,143.846,63.688,143.846z"/>
				<path class="st1" d="M69.632,139.924c0.159-0.175,1.08-1.187,2.571-2.824c0.746-0.818,1.634-1.793,2.641-2.897
					c0.955-1.151,2.021-2.436,3.178-3.83c0.578-0.697,1.178-1.421,1.797-2.168c0.616-0.75,1.192-1.571,1.815-2.388
					c1.223-1.652,2.544-3.361,3.838-5.173c1.239-1.852,2.516-3.761,3.811-5.696c0.667-0.955,1.266-1.963,1.859-2.979
					c0.6-1.012,1.201-2.027,1.802-3.041c0.6-1.015,1.199-2.029,1.795-3.039c0.54-1.041,1.078-2.077,1.61-3.104
					c1.042-2.066,2.163-4.051,3.069-6.055c1.761-4.029,3.565-7.717,4.703-11.037c1.206-3.291,2.338-5.986,2.868-7.958
					c0.602-1.948,0.945-3.059,0.945-3.059s-0.308,1.557-0.616,3.115c-0.159,0.779-0.3,1.564-0.437,2.145
					c-0.15,0.576-0.25,0.96-0.25,0.96s-0.396,1.025-1.089,2.82c-0.347,0.897-0.768,1.986-1.251,3.235
					c-0.242,0.624-0.499,1.288-0.77,1.988c-0.293,0.691-0.634,1.405-0.972,2.156c-1.403,2.984-2.862,6.547-4.88,10.144
					c-0.981,1.811-1.922,3.721-3.013,5.587c-1.118,1.849-2.254,3.728-3.39,5.606l-0.852,1.407l-0.922,1.359
					c-0.616,0.903-1.229,1.802-1.837,2.694c-1.216,1.784-2.393,3.553-3.675,5.162c-1.246,1.633-2.451,3.212-3.593,4.709
					c-1.211,1.44-2.357,2.801-3.414,4.058c-2.078,2.545-3.995,4.498-5.291,5.906C70.378,139.124,69.632,139.924,69.632,139.924z"/>
			</g>
		</g>
	</g>
</g>
<g>
	<g>
		<g>
			<g>
				<path class="st1" d="M147.615,73.719c-0.634,0.236-11.802,4.158-25.793,13.521c-3.505,2.32-7.132,5.035-10.846,8.017
					c-3.647,3.059-7.434,6.342-11,10.063c-7.27,7.308-13.96,16.035-19.385,25.454c-5.452,9.407-9.583,19.518-12.262,29.329
					c-2.712,9.811-3.981,19.274-4.631,27.396c-0.114,2.038-0.222,3.99-0.326,5.847c-0.156,1.853-0.048,3.627-0.074,5.285
					c0.015,3.32-0.04,6.213,0.169,8.597c0.277,4.766,0.435,7.485,0.435,7.485s-0.718-3.663-1.436-7.326
					c-0.18-0.923-0.361-1.845-0.53-2.71c-0.122-0.868-0.235-1.679-0.332-2.373c-0.192-1.394-0.32-2.324-0.32-2.324
					s0.006-0.646,0.017-1.858c0.037-1.21-0.044-2.992,0.16-5.243c0.172-2.251,0.294-4.993,0.588-8.119
					c0.198-1.557,0.409-3.213,0.631-4.959c0.11-0.873,0.224-1.768,0.34-2.684c0.109-0.917,0.33-1.837,0.494-2.787
					c0.356-1.893,0.728-3.865,1.112-5.907c0.502-2.012,1.022-4.092,1.555-6.23c0.475-2.154,1.258-4.281,1.93-6.489
					c0.358-1.098,0.68-2.22,1.076-3.329c0.423-1.099,0.85-2.208,1.28-3.326c3.427-8.947,8.165-18.052,13.975-26.42
					c5.761-8.407,12.67-15.98,19.764-22.366c7.069-6.428,14.387-11.595,20.896-15.575c6.503-4.009,12.251-6.746,16.277-8.521
					C145.424,74.408,147.755,73.677,147.615,73.719z"/>
				<path class="st1" d="M128.543,80.027c-0.713,0.517-9.114,5.026-19.714,13.71c-5.284,4.341-11.044,9.778-16.528,16.141
					c-5.489,6.354-10.667,13.656-14.954,21.431c-4.308,7.764-7.699,15.983-10.17,23.89c-0.302,0.991-0.601,1.974-0.897,2.948
					c-0.296,0.974-0.609,1.932-0.815,2.909c-0.464,1.94-0.918,3.836-1.359,5.682c-0.109,0.462-0.217,0.92-0.324,1.376
					c-0.081,0.461-0.162,0.919-0.241,1.373c-0.16,0.908-0.317,1.803-0.472,2.682c-0.289,1.762-0.657,3.45-0.852,5.095
					c-0.355,3.295-0.776,6.303-0.984,8.985c-0.15,2.688-0.28,5.03-0.387,6.958c-0.153,1.926-0.058,3.448-0.081,4.482
					c0.002,1.035,0.004,1.586,0.004,1.586s-0.103-0.749-0.256-1.872c-0.144-1.125-0.398-2.63-0.477-4.135
					c-0.235-3.027-0.47-6.055-0.47-6.055s0.035-0.522,0.101-1.5c0.071-0.978,0.29-2.401,0.509-4.218
					c0.115-0.907,0.242-1.912,0.381-3.006c0.142-1.093,0.261-2.28,0.528-3.526c0.236-1.251,0.486-2.582,0.75-3.985
					c0.132-0.701,0.267-1.42,0.406-2.157c0.07-0.368,0.14-0.74,0.212-1.116c0.094-0.371,0.188-0.747,0.284-1.126
					c0.382-1.517,0.779-3.097,1.191-4.733c0.213-0.815,0.397-1.654,0.644-2.488c0.263-0.829,0.53-1.671,0.801-2.525
					c0.552-1.703,1.072-3.468,1.687-5.242c0.674-1.753,1.362-3.544,2.062-5.365c2.952-7.219,6.726-14.656,11.243-21.621
					c4.492-6.982,9.727-13.462,15.114-19.06c5.377-5.613,10.886-10.356,15.816-14.13c4.938-3.768,9.252-6.637,12.356-8.499
					c1.529-0.969,2.773-1.657,3.61-2.146C128.095,80.285,128.543,80.027,128.543,80.027z"/>
				<path class="st1" d="M112.991,87.418c-0.146,0.109-0.639,0.48-1.436,1.078c-0.781,0.62-1.86,1.477-3.193,2.535
					c-1.346,1.044-2.846,2.41-4.603,3.89c-0.881,0.738-1.743,1.598-2.687,2.457c-0.921,0.883-1.945,1.748-2.903,2.758
					c-3.984,3.885-8.264,8.69-12.464,14.087c-4.194,5.408-8.077,11.565-11.518,17.925c-0.823,1.611-1.645,3.221-2.463,4.823
					c-0.766,1.627-1.457,3.281-2.181,4.902c-0.357,0.813-0.712,1.623-1.065,2.428c-0.306,0.825-0.61,1.645-0.912,2.46
					c-0.605,1.63-1.202,3.24-1.789,4.822c-0.491,1.615-0.974,3.202-1.447,4.755c-0.465,1.555-0.971,3.061-1.29,4.575
					c-0.359,1.502-0.709,2.963-1.047,4.376c-0.169,0.706-0.335,1.4-0.498,2.082c-0.141,0.686-0.246,1.366-0.367,2.028
					c-0.454,2.654-0.925,5.076-1.246,7.237c-0.25,2.171-0.468,4.063-0.647,5.62c-0.162,1.559-0.36,2.776-0.377,3.617
					c-0.047,0.838-0.071,1.284-0.071,1.284s-0.047-0.612-0.117-1.529c-0.068-0.918-0.053-2.136-0.085-3.363
					c-0.041-2.461-0.082-4.922-0.082-4.922s0.053-0.421,0.153-1.209c0.127-0.785,0.357-1.929,0.626-3.389
					c0.274-1.458,0.607-3.228,0.989-5.259c0.5-2.004,1.064-4.266,1.68-6.733c0.16-0.615,0.301-1.248,0.486-1.883
					c0.2-0.63,0.403-1.273,0.61-1.926c0.413-1.306,0.841-2.656,1.28-4.043c0.405-1.399,0.959-2.789,1.509-4.214
					c0.547-1.426,1.107-2.882,1.676-4.363c2.537-5.812,5.41-11.955,9.016-17.679l1.302-2.172c0.456-0.71,0.94-1.4,1.407-2.099
					c0.95-1.388,1.862-2.793,2.829-4.143c2.009-2.647,3.929-5.292,6.014-7.672c1.98-2.466,4.118-4.654,6.068-6.793
					c1.009-1.038,2.025-2.014,2.989-2.976c0.96-0.965,1.902-1.883,2.852-2.716c0.935-0.848,1.831-1.661,2.683-2.434
					c0.853-0.772,1.713-1.446,2.493-2.111c0.787-0.657,1.523-1.272,2.204-1.84c0.702-0.543,1.346-1.042,1.928-1.492
					c1.168-0.895,2.073-1.614,2.711-2.077C112.649,87.662,112.991,87.418,112.991,87.418z"/>
				<path class="st1" d="M103.139,92.705c-0.112,0.097-0.49,0.425-1.102,0.954c-0.607,0.535-1.414,1.31-2.429,2.248
					c-1.009,0.945-2.236,2.043-3.524,3.394c-1.294,1.343-2.817,2.771-4.297,4.481c-6.118,6.639-13.368,16.096-18.952,26.467
					c-2.736,5.205-5.25,10.515-7.159,15.659c-0.938,2.577-1.939,5.034-2.604,7.456c-0.365,1.2-0.72,2.367-1.063,3.496
					c-0.35,1.127-0.684,2.216-0.913,3.286c-0.509,2.126-0.975,4.073-1.387,5.798c-0.224,0.859-0.38,1.673-0.502,2.431
					c-0.133,0.755-0.256,1.448-0.366,2.074c-0.442,2.504-0.693,3.933-0.693,3.933s0.088-1.984,0.175-3.968
					c0.045-0.998,0.09-1.995,0.124-2.743c0.022-0.752,0.086-1.246,0.086-1.246s0.335-1.334,0.92-3.668
					c0.293-1.166,0.65-2.582,1.059-4.206c0.505-1.597,1.075-3.4,1.697-5.366c0.325-0.978,0.603-2.016,1.003-3.053
					c0.398-1.038,0.809-2.11,1.232-3.213c0.423-1.102,0.858-2.234,1.302-3.391c0.474-1.145,1.024-2.288,1.547-3.464
					c0.532-1.172,1.072-2.364,1.619-3.57c0.578-1.192,1.228-2.366,1.848-3.566c0.633-1.193,1.25-2.408,1.909-3.604
					c0.702-1.172,1.407-2.349,2.113-3.526c5.653-9.413,12.62-17.947,18.372-23.785c1.457-1.441,2.792-2.762,3.976-3.933
					c1.213-1.139,2.302-2.099,3.182-2.906c0.885-0.801,1.573-1.44,2.074-1.839C102.877,92.924,103.139,92.705,103.139,92.705z"/>
				<path class="st1" d="M95.284,97.465c-0.168,0.171-1.138,1.16-2.707,2.759c-0.804,0.781-1.678,1.792-2.694,2.913
					c-0.506,0.562-1.042,1.158-1.604,1.782c-0.572,0.617-1.148,1.283-1.717,2.002c-4.758,5.569-10.424,13.381-14.986,21.774
					c-4.634,8.358-8.079,17.238-10.224,23.988c-0.516,1.696-0.988,3.25-1.406,4.626c-0.455,1.367-0.663,2.606-0.929,3.602
					c-0.48,2.005-0.754,3.149-0.754,3.149s0.171-1.6,0.341-3.2c0.087-0.804,0.173-1.607,0.238-2.21c0.054-0.607,0.137-1,0.137-1
					s0.335-1.062,0.922-2.921c0.605-1.852,1.351-4.536,2.618-7.633c2.236-6.294,6.062-14.387,10.659-21.997
					c4.576-7.634,10.036-14.674,14.434-19.657c2.264-2.434,4.095-4.512,5.51-5.839C94.497,98.243,95.284,97.465,95.284,97.465z"/>
				<path class="st1" d="M90.269,100.537c-0.129,0.144-0.876,0.978-2.086,2.328c-0.599,0.679-1.341,1.464-2.13,2.398
					c-0.774,0.947-1.64,2.006-2.577,3.153c-0.469,0.574-0.955,1.17-1.458,1.785c-0.472,0.64-0.959,1.299-1.458,1.976
					c-0.985,1.363-2.077,2.755-3.096,4.267c-1.004,1.523-2.038,3.092-3.087,4.683c-1.038,1.598-1.959,3.301-2.948,4.957
					c-0.478,0.838-0.991,1.656-1.436,2.506c-0.437,0.854-0.872,1.705-1.303,2.548c-0.431,0.844-0.858,1.68-1.279,2.506
					c-0.429,0.823-0.84,1.64-1.186,2.472c-1.44,3.298-2.86,6.339-3.784,9.058c-0.989,2.692-1.868,4.914-2.3,6.527
					c-0.486,1.596-0.763,2.506-0.763,2.506s0.218-1.284,0.436-2.568c0.11-0.644,0.22-1.288,0.303-1.772
					c0.092-0.481,0.174-0.796,0.174-0.796s0.322-0.841,0.885-2.312c0.282-0.735,0.624-1.628,1.017-2.651
					c0.394-1.023,0.815-2.186,1.399-3.405c0.557-1.229,1.16-2.561,1.798-3.97c0.326-0.701,0.633-1.433,0.998-2.159
					c0.377-0.719,0.762-1.454,1.153-2.201c0.79-1.49,1.579-3.044,2.432-4.594c0.909-1.518,1.832-3.061,2.756-4.603
					c3.809-6.092,8.046-11.91,11.578-15.963c0.873-1.021,1.631-1.994,2.378-2.79c0.739-0.802,1.384-1.501,1.915-2.077
					C89.662,101.194,90.269,100.537,90.269,100.537z"/>
			</g>
		</g>
	</g>
</g>
</svg>