<!-- Generator: Adobe Illustrator 19.0.0, SVG Export Plug-In  -->
<svg version="1.1"
	 xmlns="http://www.w3.org/2000/svg" xmlns:xlink="http://www.w3.org/1999/xlink" xmlns:a="http://ns.adobe.com/AdobeSVGViewerExtensions/3.0/"
	 x="0px" y="0px" width="203.926px" height="243.401px" viewBox="0 0 203.926 243.401"
	 style="enable-background:new 0 0 203.926 243.401;" xml:space="preserve">
<style type="text/css">
	.st0{fill:#252525;}
</style>
<defs>
</defs>
<g>
	<g>
		<g>
			<g>
				<g>
					<polygon class="st0" points="9.643,240.579 12.662,241.751 13.712,241.853 					"/>
					<path class="st0" d="M18.234,234.418l-0.007-0.299l0.708-5.093c-1.067,2.631-0.545-0.18-1.686,5.016
						c-0.048,0.296-0.106,1.21-0.178,2.387c0.033,0.799,0.076,1.855,0.121,2.959c-0.262,0.596-0.531,1.206-0.788,1.789
						c-0.253,0.594-0.493,1.159-0.704,1.653c-1.333-0.368-2.312-0.596-1.985-0.352c0.631,0.203,1.343,0.432,2.118,0.681
						c0.617-1.351,1.063-2.395,1.678-3.696c-0.021-0.948-0.026-1.862,0-2.815c0.048,0.313,0.083,0.73,0.113,1.21
						c0.024,0.5,0.05,1.065,0.078,1.65c-0.632,1.397-1.078,2.424-1.642,3.893c0.566-1.063,0.981-1.844,1.306-2.455
						c0.129-0.261,0.241-0.486,0.34-0.687c0.117-0.25,0.219-0.47,0.315-0.675c-0.014-0.471-0.033-0.692-0.052-0.973
						c-0.016-0.28-0.033-0.58-0.054-0.953c-0.032-0.737-0.048-1.811-0.017-3.536C17.899,234.09,18.234,234.418,18.234,234.418z"/>
					<path class="st0" d="M18.606,227.978c-0.029,0.313-0.077,0.681-0.029,0.765c0.025,0.131,0.055,0.211,0.101,0.175
						c-0.002-0.035-0.004-0.082-0.008-0.151C18.782,228.096,19.381,226.022,18.606,227.978z"/>
					<path class="st0" d="M19.679,224.767c1.213-3.292,0.237,0.148,0.397-0.177l0.88-3.821l0.042-0.103l-0.049,0.1L19.679,224.767z"
						/>
					<path class="st0" d="M26.183,211.785c0.302-0.482,0.589-0.939,0.867-1.382C26.672,210.832,26.473,211.248,26.183,211.785z"/>
					<path class="st0" d="M30.622,206.26c-0.556,0.339-1.109,0.743-1.778,1.27c-0.558,0.85-1.122,1.786-1.794,2.873
						c0.049-0.056,0.09-0.102,0.15-0.17c1.228-1.593,0.462,0.17-1.408,2.815c-0.161,0.249-0.306,0.474-0.422,0.653
						c-1.179,2.23-1.415,2.119-2.491,4.565l2.137-3.425c0.184-0.358,0.362-0.704,0.531-1.034c1.629-2.563,2.74-4.62,3.507-6.082
						C29.626,207.177,30.167,206.665,30.622,206.26z"/>
					<path class="st0" d="M26.183,211.785c-0.328,0.504-0.675,1.038-1.038,1.597C25.66,212.711,25.946,212.222,26.183,211.785z"/>
					<polygon class="st0" points="22.529,218.122 21.737,219.758 22.072,219.436 					"/>
					<path class="st0" d="M39.822,198.986c-0.145,0.083-0.547,0.135-1.051,0.166c-1.208,1.309-4.121,3.857-5.34,5.139
						c-0.37,0.314-0.593,0.532-0.676,0.669c0.258-0.2,0.512-0.397,0.751-0.583c3.12-2.941,5.645-4.921,5.115-4.087l0.296-0.3
						l0.133-0.144l3.964-0.118C44.762,199.553,42.547,199.205,39.822,198.986z"/>
					<path class="st0" d="M47.433,195.186c0.01-0.013,0.024-0.026,0.04-0.039c0.013-0.008,0.005-0.01,0.037-0.022l0.138-0.049
						c0.189-0.062,0.391-0.128,0.608-0.199c-0.272,0.088-0.523,0.169-0.722,0.233C47.429,195.152,47.449,195.163,47.433,195.186z"/>
					<path class="st0" d="M63.767,180.055l-1.121,0.969l-0.931,0.817c0.121,0.496,0.36,1.697,0.641,3.148l-2.16,0.689l-0.827,0.272
						l-0.421,0.156l-0.005,0.342l-0.023,0.53l-0.07,1.335c-0.02-0.497-0.067-0.694-0.095-1.005
						c-0.014-0.155-0.024-0.339-0.023-0.603c0.001-0.272-0.006-0.418,0.01-0.77c0.077-0.032,0.265-0.094,0.494-0.166
						c-0.214,0.058-0.417,0.113-0.523,0.142c-0.046,0.526-0.087,0.994-0.124,1.418c-0.037,0.512-0.069,0.973-0.1,1.399
						c-0.058,0.989-0.106,1.818-0.155,2.652c-0.681,0.231-1.367,0.463-2.153,0.73c-0.662,0.219-1.412,0.456-2.334,0.729
						c-0.438-0.006,0.12-0.234,1.02-0.534c0.978-0.307,2.316-0.727,3.323-1.043c0.03-0.383,0.057-0.727,0.079-1.009
						c0.02-0.291,0.021-0.41,0.018-0.53c-0.009-0.208-0.059-0.149-0.176,0.328c-0.028,0.324-0.058,0.663-0.094,1.071
						c-0.763,0.242-1.594,0.505-2.447,0.775c-0.804,0.267-1.629,0.541-2.432,0.808c-1.595,0.57-3.118,1.06-4.175,1.529l-1.139,0.243
						l-0.538,0.112l-0.382,0.069l-0.203,0.392l-0.289,0.6l-0.579,1.203l1.08-1.382c0.178-0.376,0.183-0.374,0.241-0.53
						c0.669-0.237,1.324-0.47,1.915-0.679c0.707-0.244,1.346-0.429,1.89-0.436c0.664,0.028-1.279,0.603-2.649,1.03
						c1.116-0.355,2.566-0.677,4.237-1.124c0.835-0.224,1.73-0.464,2.676-0.717c0.473-0.128,0.959-0.26,1.456-0.395
						c0.765-0.22,1.549-0.446,2.349-0.677c0.113-1.08,0.229-2.196,0.349-3.343c0.041-0.426,0.083-0.858,0.125-1.295l0.059-0.66
						c0.001-0.026-0.001-0.015-0.002-0.026l-0.002-0.008c-0.386,0.094,2.127-0.683,3.523-1.164c-0.151-0.7-0.287-1.28-0.41-1.773
						c-0.138-0.577-0.197-0.668-0.285-0.917c-0.181-0.533-0.279-0.536-0.419-0.82C61.976,181.75,62.684,181.016,63.767,180.055z"/>
					<polygon class="st0" points="64.303,180.36 65.125,180.218 64.512,180.203 					"/>
					<path class="st0" d="M75.817,174.459l-1.142,2.108l-4.118,1.019c-0.349,0.047-0.688,0.075-0.861,0.064
						c-0.14,0.017-0.389,0.075-0.583,0.112c0.266,0.008-1.233,0.834-0.949,0.812c0.266-0.068,0.544-0.15,0.832-0.244
						c0.262-0.092,0.536-0.187,0.82-0.287l0.203-0.033l0.287-0.053c0.192-0.038,0.388-0.077,0.586-0.116
						c0.394-0.088,0.799-0.178,1.211-0.269c0.915-0.225,1.86-0.456,2.798-0.687l0.416-0.759l0.272-0.52
						c0.177-0.337,0.352-0.67,0.523-0.996c0.344-0.652,0.68-1.275,1.004-1.843c0.245-0.384,0.461-0.724,0.643-1.011
						c0.696-0.319,1.198-0.548,1.548-0.709c0.382-0.171,0.602-0.261,0.707-0.294c0.21-0.066-0.041,0.098-0.383,0.314
						c-0.683,0.433-1.727,1.077-0.166,0.51c-0.691,0.342-1.388,0.675-1.304,0.614c-0.027,0.036-0.027,0.027-0.076,0.1l-0.229,0.352
						c-0.153,0.236-0.309,0.476-0.485,0.748c-0.343,0.548-0.763,1.219-1.388,2.218c0.41-0.564,0.818-1.155,1.223-1.764
						c0.338-0.519,0.681-1.048,1.026-1.578l0.049-0.019l0.275-0.134l0.625-0.309c0.414-0.21,0.827-0.419,1.237-0.626
						c0.855-0.449,1.696-0.891,2.507-1.317c0.651-0.597,1.278-1.171,1.868-1.713c0.543-0.507,1.053-0.984,1.519-1.419
						c0.463-0.36,0.88-0.683,1.249-0.97c-0.515,0.336-0.868,0.515-1.362,0.826c-0.236,0.174-0.662,0.525-1.219,1.022l1.17-1.085
						l1.593-1.234c-0.583,0.35-1.151,0.691-1.74,1.046c-1.054,0.785-2.145,1.64-3.558,2.803c-0.676,0.326-1.415,0.683-2.239,1.081
						c-0.794,0.394-1.67,0.829-2.651,1.316C77.041,172.4,76.459,173.379,75.817,174.459z"/>
					<path class="st0" d="M65.879,179.038c2.171-0.939,2.985-1.244,3.205-1.269C68.471,177.899,67.699,178.13,65.879,179.038z"/>
					<path class="st0" d="M89.104,164.646c-0.337,0.208-0.859,0.592-1.543,1.116C87.919,165.528,88.385,165.202,89.104,164.646z"/>
					<path class="st0" d="M85.906,166.312l0.046-0.039l3.49-2.44l0.121-0.163l-0.132,0.151l-1.452,0.811
						c-0.453,0.349-2.034,1.514-2.039,1.625C85.9,166.3,85.895,166.313,85.906,166.312z"/>
					<path class="st0" d="M170.622,220.456c-0.156,0.028-0.441,0.156-0.881,0.403c-0.217,0.129-0.475,0.282-0.778,0.461
						c-0.344,0.22-0.74,0.473-1.19,0.76c-0.704,0.071-1.564,0.157-2.567,0.258c0.085-0.06,0.371-0.127,0.787-0.198
						c0.209-0.032,0.449-0.069,0.713-0.109c0.31-0.04,0.648-0.083,1.003-0.129c0.971-0.68,2.12-1.485,3.056-2.14
						c0.273-0.298,0.52-0.568,0.732-0.8c-0.344,0.317-0.619,0.572-0.79,0.729c-1.792,1.075-0.504,0.107-0.201-0.245
						c0.095-0.145,0.092-0.196-0.074-0.09c0.01-0.018-0.018-0.003-0.054,0.01c-1.096,0.723-2.028,1.363-2.875,1.959
						c-1.702,0.223-3.176,0.417-4.912,0.644c-1.248-0.342-2.544-0.713-4.184-1.226c0.276,0.015,0.184-0.12-0.429-0.388
						c-0.064-0.018-0.129-0.036-0.221-0.061c-0.447-0.984-0.943-2.079-1.526-3.363c-1.837-0.426-3.857-0.894-5.931-1.374
						c-1.025-1.172-2.067-2.364-3.084-3.527c1.037-1.386,2.053-2.744,3.001-4.011c0.66-1.462,1.312-2.872,1.881-4.051
						c0.046-0.1,0.092-0.199,0.132-0.284c-0.163-1.723-0.314-3.323-0.461-4.88c0.15-1.645,0.296-3.25,0.448-4.925
						c0.422-1.026,0.855-2.081,1.377-3.349c-0.759-0.585-1.694-1.307-2.693-2.078c-0.512-0.413-1.024-0.827-1.567-1.266
						c-0.925-2.109-1.854-4.228-2.833-6.459c0.002-2.412,0.004-4.838,0.005-7.294c-0.083-2.454-0.166-4.939-0.252-7.472
						c0.794-1.914,1.592-3.839,2.424-5.846c-0.791-2.206-1.589-4.427-2.415-6.73c-1.877-1.874-3.77-3.766-5.679-5.671
						c-1.943-1.885-4.02-3.691-6.02-5.544c-2.255-1.624-4.524-3.258-6.807-4.903c-1.272-0.487-2.548-0.975-3.833-1.466
						c-0.908,0.321-1.823,0.645-2.74,0.969l-1.238,0.648l-0.619,0.324c-0.186,0.1-0.464,0.235-0.553,0.3
						c-0.062,0.078-0.243,0.243-0.381,0.376c-1.07,0.499-4.593,3.341-4.221,2.708c1.09-0.723,2.061-1.488,3.324-2.413
						c-1.268,0.78-2.71,1.772-4.281,2.901c-2.016,1.071-4.218,2.302-6.318,3.467c-1.635,1.865-3.323,3.775-4.828,5.371
						c0.525-0.463,1.484-0.942,0.308,0.47c-0.046-0.452-2.142,2.053-4.105,4.149c-1.244,0.836-2.245,1.449-2.859,1.645
						c-1.299,0.865-1.965,1.344-2.219,1.565c-0.574,0.963,0.85-0.472-1.974,3.31c-0.046,0.211,0.253-0.119,0.721-0.711
						c0.437-0.575,1.054-1.386,1.661-2.184c0.579-0.386,1.151-0.767,1.626-1.083c0.508-0.33,0.919-0.58,1.141-0.679
						c-0.355,0.318-0.809,0.665-1.29,1.012l-0.732,0.515c-0.2,0.136-0.398,0.27-0.586,0.398c-0.154,0.206-0.3,0.4-0.431,0.574
						c-0.155,0.217-0.291,0.409-0.403,0.565c-0.214,0.318-0.307,0.508-0.197,0.497c0.359-0.483,0.737-0.992,1.136-1.529
						c1.454-1.026,3.078-2.172,4.834-3.41c2.594-2.98,5.543-6.367,8.634-9.917c2.029-1.147,4.111-2.323,6.206-3.507
						c1.756-1.33,3.526-2.671,5.282-4.001c1.719-0.658,3.425-1.312,5.102-1.954c1.216,0.437,2.393,0.861,3.549,1.277l-1.633-0.315
						c0.534,0.186,1.092,0.381,1.677,0.585c1.943,1.327,4.476,3.097,6.804,4.751c1.097,1.001,2.204,2.013,3.295,3.009
						c1.094,1.009,2.181,1.993,3.136,3.026c0.968,1.019,1.893,1.994,2.751,2.898c0.422,0.458,0.828,0.897,1.214,1.316
						c0.191,0.211,0.377,0.416,0.557,0.616l0.265,0.296c0.099,0.11,0.071,0.092,0.109,0.141c-0.005,0.029,0.083,0.322,0.142,0.535
						c-0.075-0.434,0.211,0.304,0.659,1.544c0.415,1.156,0.996,2.773,1.523,4.242c-0.184,0.468-0.362,0.918-0.522,1.324
						c-0.195,0.503-0.362,0.954-0.486,1.322c-0.249,0.736-0.328,1.139-0.113,0.956c-0.208,0.425-0.381,0.781-0.541,1.108
						c-0.171,0.375-0.327,0.717-0.489,1.074c0.014,0.843,0.03,1.768,0.057,3.361l0.216,0.767c0.143,4.103-0.191,3.44-0.168,8.137
						c0.258-3.069,0.335,0.324,0.55,1.694c-0.015,0.296-0.029,0.593-0.044,0.901c0.856,2.219,1.759,4.558,2.582,6.692
						c0.803,0.7,1.564,1.363,2.288,1.994c0.343,0.302,0.677,0.595,1.003,0.882c0.206,0.178,0.226,0.207,0.287,0.269l0.155,0.163
						c-0.058,0.104-0.112,0.202-0.164,0.295c-0.11,0.225-0.214,0.439-0.314,0.644c-0.226,0.464-0.432,0.889-0.633,1.302
						c0.113-0.157,0.233-0.324,0.419-0.634c0.089-0.157,0.198-0.349,0.335-0.59c0.065-0.123,0.138-0.258,0.218-0.408
						c0.037-0.07,0.076-0.143,0.116-0.219c0.024-0.039,0.049-0.08,0.075-0.122c-0.092,0.2-0.175,0.379-0.25,0.54
						c-0.091,0.21-0.172,0.397-0.245,0.563c-0.141,0.334-0.241,0.591-0.312,0.794c-0.14,0.4-0.166,0.587-0.228,0.855
						c0.009,0.105,0.018,0.205,0.029,0.323c0.01,0.086,0.017,0.186,0.018,0.318c-0.299,3.126-0.599,2.763-0.751,2.594
						c-0.067,0.64-0.13,1.242-0.19,1.807c0.06,0.514,0.116,1.002,0.171,1.469c0.06,0.436,0.117,0.852,0.172,1.254
						c0.061,0.4,0.12,0.785,0.177,1.159c0.057,0.353,0.127,0.821,0.156,0.888l-0.037,0.129l-0.092,0.254l-0.209,0.559l-0.424,1.103
						c-0.149,0.365-0.299,0.732-0.452,1.107c-0.155,0.35-0.314,0.707-0.478,1.077c-0.218,0.27-0.449,0.556-0.69,0.855
						c0.275-0.252,0.605-0.577,0.836-0.769c0.043-0.049,0.104-0.136,0.17-0.236c-0.039,0.09-0.078,0.18-0.115,0.268
						c-0.496,0.663-0.981,1.312-1.46,1.952c-0.557,0.729-1.107,1.448-1.656,2.166c1.052,1.269,2.098,2.532,3.173,3.829
						c0.972,0.257,1.964,0.52,2.986,0.79c0.895,0.227,1.816,0.46,2.772,0.703c0.173,0.391,0.367,0.831,0.566,1.281
						c0.221,0.739,0.194,0.839,0.008,0.529c-0.093-0.155-0.226-0.413-0.387-0.744c-0.079-0.166-0.167-0.35-0.262-0.549
						c-0.043-0.084-0.089-0.173-0.138-0.267c-1.837-0.412-4.391-0.984-5.817-1.304c-0.163-0.18-0.299-0.33-0.424-0.468
						c0.11,0.136,0.23,0.283,0.405,0.498c0.746,0.21,1.786,0.502,2.754,0.773c0.86,0.244,1.653,0.478,2.047,0.633
						c0.172,0.032,0.351,0.065,0.567,0.105c0.149,0.031,0.134,0.021,0.161,0.021c0.025,0.001,0.053,0.001,0.084,0.002
						c0.035,0.04,0.043,0.014,0.118,0.143c0.122,0.242,0.255,0.507,0.397,0.789c0.14,0.284,0.29,0.586,0.447,0.903
						c0.084,0.174,0.171,0.352,0.259,0.534c0.129,0.278,0.261,0.562,0.395,0.85c1.638,0.402,3.69,0.905,5.5,1.349
						c0.313-0.045,0.597-0.085,0.874-0.125c-0.49,0.122-0.957,0.228-0.888,0.27c-0.02-0.003-0.017,0.001-0.001,0.009
						c0.027,0.034,0.438,0.024,0.676,0.026c0.294-0.004,0.693-0.023,1.157-0.053c0.464-0.035,0.992-0.074,1.546-0.116
						c0.632-0.056,1.293-0.114,1.935-0.171C168.977,221.535,170.034,220.842,170.622,220.456z"/>
					<path class="st0" d="M154.618,217.743c-0.813-0.138-1.48-0.251-1.871-0.317c0.615,0.13,1.201,0.251,2.123,0.5
						C154.968,217.902,154.844,217.832,154.618,217.743z"/>
					<path class="st0" d="M170.622,220.456c0.033-0.003,0.111-0.041,0.137-0.039c0.165-0.119,0.28-0.201,0.341-0.246
						c0.142-0.153,0.135-0.153-0.011-0.013C171.027,220.197,170.854,220.308,170.622,220.456z"/>
					<path class="st0" d="M152.2,203.196l0.034,0.487l-0.136,0.284c-0.152,0.335-0.288,0.632-0.447,0.983l0.589-1.266L152.2,203.196
						z"/>
					<path class="st0" d="M150.606,198.191c0.092-0.557,0.199-1.209,0.32-1.943c0.057-0.368,0.117-0.756,0.18-1.164
						c0.066-0.459,0.135-0.939,0.207-1.44c0.069-0.143,0.194-0.401,0.32-0.662c-0.047,0.068-0.093,0.134-0.145,0.211
						c-0.038,0.048-0.128,0.218-0.238,0.435c-0.032,0.178-0.071,0.397-0.122,0.683c-0.035,0.217-0.077,0.485-0.131,0.824
						C150.896,195.814,150.772,196.78,150.606,198.191z"/>
					<path class="st0" d="M147.34,161.296c0.215-0.577,0.235-0.709,0.233-0.8c-0.001-0.046-0.008-0.081,0.001-0.156
						c0.005-0.038,0.013-0.085,0.028-0.149c0.018-0.07-0.005-0.043-0.006-0.07c-0.209,0.513-0.384,0.942-0.519,1.271
						c-0.147,0.377-0.243,0.643-0.279,0.779C146.727,162.445,146.889,162.201,147.34,161.296z"/>
					<polygon class="st0" points="159.336,222.151 162.487,223.044 164.656,222.796 166.462,222.543 162.489,223.025 					"/>
					<path class="st0" d="M172.536,141.332c0.019,0.207,0.038,0.419,0.06,0.654c-0.401,0.893-0.868,2.033-1.314,3.162
						c-0.447,1.169-0.917,2.399-1.396,3.654c0.004,2.271,0.008,4.619,0.012,6.841c-0.201,0.393-0.399,0.781-0.593,1.162
						c-1.561,3.256-1.976,4.329-2.072,4.777c0.202,0.842,0.426-0.51,0.45,5.499l-0.655-1.626c0.003,1.115,0.005,2.283,0.008,3.5
						c0.468,2.484,0.969,5.14,1.476,7.831c0.015,2.273,0.03,4.569,0.045,6.801c-1.056,2.347-2.113,4.744-3.017,6.888
						c-0.373,1.752-0.695,3.379-0.95,4.835c-0.246,0.655-0.747,2.253-0.245-0.141c-0.365,1.487-0.549,2.467-0.638,3.16
						c0.056,1.071,0.197,1.619,0.266,2.59c0.034,0.488,0.05,1.087,0.028,1.924c-0.019,0.418-0.04,0.895-0.065,1.448
						c-0.018,0.276-0.038,0.571-0.059,0.887c-0.021,0.257-0.043,0.53-0.067,0.822c0.039,0.086,0.095,0.209,0.152,0.337
						c-0.032-0.056-0.063-0.11-0.092-0.162c-0.017-0.026-0.033-0.051-0.047-0.073c-0.029-0.043-0.053-0.077-0.067-0.091
						c-0.003-0.074-0.006-0.145-0.009-0.212c0-0.122,0.001-0.238,0.001-0.348c-0.001-0.219-0.002-0.413-0.003-0.584
						c-0.004-0.341-0.012-0.59-0.023-0.761c-0.022-0.342-0.057-0.372-0.1-0.213c-0.085,0.295-0.212,1.45-0.327,2.21
						c0.328,0.818,0.605,1.57,0.144,0.958l-0.485-0.889l0.008-0.271c-0.005,0.086-0.01,0.171-0.015,0.272
						c0.801,1.543,1.68,3.238,2.555,4.924c1.701,0.137,3.399,0.274,4.944,0.399c1.509,0.545,2.884,1.041,4.013,1.448
						c-0.111,0.388-0.215,0.746-0.309,1.075c0.058,0.106,0.4-0.705,0.565-0.961c0.079-0.117,0.106-0.068-0.001,0.415
						c-0.059,0.235-0.141,0.568-0.255,1.025c-0.097,0.355-0.219,0.806-0.374,1.375c0.557-1.828,0.528-1.033,0.648-0.84
						c0.102-0.398,0.2-0.784,0.296-1.157c0.129-0.485,0.254-0.953,0.374-1.406c-1.851-0.664-3.393-1.216-4.782-1.714
						c-0.835-0.067-1.609-0.129-2.365-0.189c-0.362-0.021-0.719-0.042-1.077-0.063l-0.537-0.023l-0.27-0.009l-0.154,0.004
						c-0.123-0.032-0.206-0.057-0.234-0.074c-0.103-0.346-0.015-0.208,0.061-0.088c0.197,0.004,0.355,0.007,0.068-0.099
						c-0.001-0.028-0.016-0.089-0.032-0.155c0,0-0.012-0.016-0.032-0.044c-0.011-0.016-0.024-0.034-0.039-0.056
						c-0.037-0.065-0.078-0.138-0.123-0.217c-0.181-0.319-0.421-0.743-0.662-1.168c-0.481-0.85-0.963-1.699-0.963-1.699
						c-0.303-0.633-0.366-0.801-0.318-0.756c0.03,0.01,0.194,0.278,0.331,0.494c0.14,0.222,0.268,0.417,0.258,0.346
						c-0.005-0.036-0.044-0.138-0.133-0.336c-0.067-0.146-0.168-0.366-0.313-0.681c0.001-0.012,0.006-0.052,0.011-0.096
						c-0.098-0.439-0.007-4.12,0.225-7.424l0.019-0.071l-0.007,0.072c0.009,0.028,0.007,0.238,0.01,0.364l0.005,0.433
						c0.009-0.253,0.018-0.518,0.028-0.791c0.282-1.213,0.586-2.518,0.787-3.382c0.187-0.886,0.228-1.331-0.072-0.804l1.121-2.992
						l-0.376,0.484c0.099-0.366,0.194-0.719,0.285-1.058c0.601-1.219,1.226-2.446,1.781-3.506c0.597-1.146,1.16-2.226,1.743-3.346
						c0.035-1.06,0.07-2.152,0.109-3.345c0.008-0.561,0.017-1.145,0.027-1.762c0-0.647,0-1.329,0-2.052
						c-0.122-0.603-0.252-1.25-0.391-1.94c-0.141-0.655-0.291-1.351-0.45-2.089c0.344,2.236-0.171,0.218-0.441-0.97
						c0.165,1.158,0.327,2.048,0.493,2.822c0.089,0.386,0.171,0.744,0.251,1.094c0.092,0.372,0.182,0.735,0.274,1.108
						c0.028,0.515,0.058,1.049,0.091,1.653c0.027,0.578,0.047,1.224,0.054,1.986c-0.247,0.56-0.544-5.797-0.692-1.244
						c0.047-0.807,0.078-1.54,0.099-2.354c-0.275-1.603-0.533-3.106-0.763-4.446c-0.224-1.307-0.419-2.555-0.461-3.409
						c0.058-0.389,0.134-0.889,0.238-1.222c-0.005-1.245-0.009-2.328-0.013-3.317c-0.021-0.925-0.04-1.763-0.058-2.575
						c0.409-0.87,0.804-1.711,1.229-2.613c0.232-0.476,0.472-0.968,0.726-1.489c0.283-0.562,0.581-1.154,0.902-1.791
						c0.008-0.495,0.02-1.179,0.032-1.915l0.093,0.168c-0.136-0.377-0.161-1.053-0.15-1.955c0.019-0.866,0.044-1.951,0.071-3.182
						c0.097-0.258,0.197-0.525,0.3-0.799c0.112-0.318,0.227-0.645,0.344-0.979c0.227-0.671,0.447-1.377,0.647-2.11l-1.219,2.988
						c-0.103-0.202,0.445-1.678,1.18-3.726c-0.028,0.261-0.028,0.261,0.296-0.374c-0.004-0.244,0.175-0.911,0.515-1.964
						c-0.376-1.789-0.786-4.066-1.045-5.42c-0.402-0.333-0.664-0.543-0.791-0.633c0.235,0.209,0.477,0.423,0.743,0.659
						c0.268,1.649,0.636,3.444,1.023,5.387c-0.362,1.072-0.729,2.162-1.091,3.234c0.393-1.497,0.107-1.355,0.819-3.261
						C172.607,141.813,172.574,141.587,172.536,141.332z"/>
					<path class="st0" d="M164.369,201.173l-0.021-1.948C164.322,200.018,164.319,200.745,164.369,201.173z"/>
					<path class="st0" d="M156.206,120.658c-2.48-2.938,0.872,0.612-1.389-2.174c-0.057-0.058-0.11-0.111-0.158-0.16
						c-0.025-0.021-0.048-0.04-0.068-0.057c-0.041-0.033-0.074-0.057-0.093-0.065c-0.073-0.253-0.123-0.215-0.154,0.065
						c0.031,0.063,0.075,0.142,0.131,0.235c0.098,0.14,0.204,0.291,0.311,0.443c0.213,0.304,0.427,0.61,0.567,0.834
						c0.28,0.449,0.263,0.569-0.645-0.314c-0.239-0.32-0.537-0.685-0.812-1.009c-0.136-1.937-0.504-4.403-0.667-5.836
						c0.038-0.212,0.071-0.39,0.099-0.546c-0.027,0.28-0.036,0.499-0.008,0.551c0.097,0.319,0.187,0.418,0.263,0.379
						c0.077-0.029,0.136-0.242,0.187-0.353c0.062-0.073,0.134-0.246,0.186-0.411c0.115-0.941,0.52-2.672,0.911-4.365
						c0.289-0.867,0.609-1.843,0.865-2.682c-2.019,5.88,1.36-5.046-0.505,0.243c-0.043-0.19,0.187-1.253,0.533-2.598
						c1.335-1.446,3.172-3.302,4.237-4.219c-0.003,0.241-1.387,1.574-2.491,2.688c-0.684,1.135,2.901-2.657,3.749-3.095
						c0.559-0.688,1.407-1.5,2.234-2.555c0.858-1.042,1.823-2.212,2.814-3.415c0.62-1.322,1.256-2.678,1.863-3.973
						c1.017-1.081,1.984-2.108,2.818-2.994c1.444-0.94,2.564-1.698,3.081-2.118c0.281-0.224,0.424-0.371,0.332-0.384
						c-0.046-0.007-0.152,0.021-0.334,0.091c-0.159,0.066-0.377,0.156-0.66,0.274c-0.494,0.253-0.956,0.514-1.407,0.784
						c-0.463,0.29-0.921,0.577-1.388,0.87c-0.607,0.645-1.234,1.313-1.927,2.05c4.442-4.241,0.291,0.239,0.014,0.697
						c-0.207,0.195-0.43,0.406-0.666,0.629c-0.698,1.338-1.47,2.974-1.95,3.922c-0.54,0.611-0.813,0.88-0.635,0.532l0.485-0.633
						l1.304-3.087c-0.442,0.867-0.897,1.758-1.506,2.951c-0.727,0.819-1.473,1.661-2.241,2.526
						c-0.388,0.439-0.782,0.884-1.181,1.335c-0.428,0.424-0.861,0.854-1.3,1.29c-1.78,1.772-3.653,3.638-5.627,5.604
						c-0.482,1.61-0.973,3.253-1.502,5.018c-0.321,1.62-0.647,3.265-0.985,4.973c0.173,1.999,0.349,4.023,0.526,6.059
						c1.188,1.346,2.378,2.694,3.557,4.03c1.169,0.824,2.33,1.643,3.445,2.43c0.749,0.831,1.465,1.627,2.172,2.412l-2.153-2.433
						l-2.706-1.941c0.447,0.175,1.582,0.924,2.852,1.778c0.66,0.7,1.387,1.471,2.041,2.164l-1.694-2.55l-0.239-0.219
						c0.09,0.066,0.181,0.133,0.263,0.193c1.26,1.453,2.347,2.593,2.146,2.607c1.699,1.613,1.085,0.742,0.275-0.413
						c1.389,1.507,2.268,2.52,3.018,3.388c0.735,0.845,1.423,1.624,2.233,2.45c0.34,0.256,0.783,0.59,1.297,0.976
						c-0.437-0.418-0.835-0.798-1.163-1.111c-0.412-0.495-0.778-0.934-1.109-1.332c-0.355-0.407-0.672-0.771-0.965-1.107
						c-0.594-0.663-1.098-1.204-1.609-1.729c-0.508-0.528-1.012-1.051-1.612-1.673c-0.293-0.318-0.61-0.661-0.962-1.042
						c-0.366-0.412-0.769-0.867-1.223-1.377c-0.412-0.305-0.875-0.648-1.392-1.03c-0.48-0.365-1.01-0.769-1.592-1.211l-0.281-0.112
						l-0.134-0.051l-0.063-0.001c-0.035,0.021-0.224-0.131-0.352-0.216l-0.42-0.294L156.206,120.658z"/>
					<path class="st0" d="M168.988,133.192c-0.195-0.131-0.444-0.309-0.595-0.402l-0.903-0.808l0.832,0.878l1.373,1.109
						L168.988,133.192z"/>
					<path class="st0" d="M166.118,131.626c0.017-0.137,0.853,0.748,0.867,0.608C164.506,129.294,164.697,129.731,166.118,131.626z"
						/>
					<path class="st0" d="M164.748,94.509l1.788-2.111l1.021-2.125l-1.106,2.068l-0.688,0.745
						C165.899,93.089,165.13,94.035,164.748,94.509z"/>
					<path class="st0" d="M179.968,99.583c-0.889-2.867-1.556-5.018-2.212-7.135c-0.232-1.365-0.471-2.827-0.707-4.415
						c-0.111-0.802-0.258-1.646-0.345-2.569c-0.12-1.146-0.249-2.38-0.39-3.731c-0.03-0.158-0.057-0.299-0.07-0.321
						c-1.205,0.825-1.391,1.034-1.27,1.058c0.13,0.018,0.57-0.152,0.871-0.24c-0.012,0.785-0.066,1.223-0.223,0.855
						c0.14,1.384,0.378,2.414,0.618,3.21c0.264,0.834,0.551,1.681,0.904,3.646c-0.013,0.545,0.11,1.471,0.293,2.578
						c0.576,1.882,1.443,4.414,2.093,6.759C179.502,98.795,179.621,98.76,179.968,99.583z"/>
					<path class="st0" d="M192.57,104.632c0.422-1.124,0.833-2.258,1.157-3.384c0.172-0.56,0.341-1.111,0.506-1.649
						c0.182-0.565,0.359-1.117,0.53-1.649c-0.085-0.353-0.168-0.698-0.248-1.033c-0.066-0.308-0.129-0.606-0.191-0.896
						c0.071,0.086,0.165,0.3,0.274,0.608c0.051,0.155,0.109,0.333,0.173,0.529c0.07,0.245,0.146,0.513,0.227,0.8
						c-0.115,0.358-0.242,0.754-0.375,1.169c-0.125,0.359-0.255,0.735-0.385,1.111c0.163-0.225,0.305-0.513,0.442-0.861
						c0.069-0.174,0.136-0.363,0.204-0.567c0.085-0.264,0.176-0.546,0.273-0.846c-0.171-0.634-0.368-1.363-0.591-2.186
						c-0.199-0.75-0.371-1.599-0.565-2.534c0.05,0.299,0.292,1.524-0.023,0.617c-0.297-1.086-0.537-1.964-0.733-2.682
						c-0.201-0.685-0.356-1.216-0.48-1.637c-0.036-0.985-0.06-1.649-0.086-2.389c-0.012-0.381-0.025-0.781-0.039-1.252
						c-0.006-0.5-0.012-1.076-0.021-1.78c-0.337-0.583-0.742-1.284-1.238-2.144c-0.457-0.833-1.053-1.79-1.648-3.001
						c-0.825-1.364-1.544-2.752-1.644-2.402c-0.389-0.863-0.69-1.529-0.927-2.053c-0.227-0.514-0.419-0.95-0.489-1.143
						c0.064-0.837,0.097-1.27,0.161-2.123c0.054-0.885,0.117-2.207,0.213-4.822c-0.146,0.292-0.482,2.745-0.794,2.698
						c0.354-8.536,0.098-10.323,0.156-14.304c-0.639-0.712-1.323-1.5-2.183-2.524c0.257,0.258,0.54,0.543,0.91,0.914
						c0.182,0.189,0.385,0.399,0.617,0.64c0.243,0.266,0.516,0.564,0.826,0.904c-0.001,0.052-0.003,0.127-0.004,0.204
						c0.02-0.053,0.039-0.117,0.055-0.224c-0.305-0.52-0.902-1.181-1.741-2.043c-0.774-0.776-1.714-1.717-2.656-2.662
						c0.323-0.152,0.647-0.304,0.966-0.455c0.367-0.16,0.728-0.317,1.079-0.47l-0.175,0.487c0.407-0.191,0.85-0.398,1.326-0.621
						c0.761-0.637,1.615-1.352,2.518-2.108c0.221-0.335,0.446-0.677,0.674-1.022c0.207-0.329,0.437-0.649,0.685-0.962
						c0.487-0.629,0.98-1.266,1.468-1.897c0.248-0.312,0.495-0.623,0.74-0.93l0.349-0.427l0.396-0.373
						c0.55-0.487,1.138-0.917,1.695-1.154c-0.008-0.017-0.647,0.608-0.638,0.629c0.355-0.29,0.751-0.541,1.08-0.652
						c0.262-0.092,0.762-0.05,1.253,0.023c0.499,0.071,1.027,0.176,1.594,0.238c0.293,0.029,0.565,0.055,0.928,0.028
						c0.398-0.03,0.771-0.137,1.083-0.367c0.342-0.291,0.562-0.794,0.658-1.158c0.098-0.353,0.16-0.694,0.211-1.034
						c0.094-0.654,0.146-1.396,0.16-1.961c0.219-1.019,0.437-2.033,0.653-3.037l0.253-1.174l-1.058,0.556
						c-0.691,0.363-1.367,0.719-2.036,1.071l0.768,0.686c0.531-1.394,1.046-2.747,1.545-4.056c-0.188-1.176-0.362-2.265-0.531-3.317
						l-0.507,0.59c0.171-0.001,0.339-0.003,0.506-0.004c0.206-0.019,0.46,0.038,0.652-0.053c0.393-0.251,0.677-0.439,0.988-0.758
						c0.305-0.302,0.33-0.754,0.332-1.144c-0.009-0.334-0.043-0.643-0.092-0.94c0,0-0.098-1.051-0.314-2.067
						c-0.098-0.425-0.149-0.984-0.209-1.344c-0.053-0.377-0.089-0.629-0.089-0.629c-0.288-1.261-0.483-2.088-0.585-2.472
						c-0.072-0.239-0.103-0.294-0.1-0.187c0.004,0.063,0.008,0.122,0.034,0.293c0.034,0.201,0.076,0.451,0.124,0.734
						c0.1,0.566,0.224,1.269,0.352,1.993c0.063,0.362,0.127,0.729,0.19,1.088c0.046,0.34,0.152,0.667,0.214,1.01
						c0.137,0.66,0.213,1.236,0.229,1.604c-0.01,0.751-0.019,0.571-0.549-1.267c0.069-0.211,0.074-0.499,0.017-0.857
						c-0.052-0.321-0.116-0.776-0.232-1.265c-0.219-0.976-0.584-2.303-0.94-3.729c0.717-0.717,1.638-1.601,2.62-2.469
						c0.007-0.538,0.022-1.098,0.049-1.671c0.07-0.717,0.114-0.673,0.145-0.263c0.01,0.205,0.024,0.502,0.04,0.84
						c0.01,0.376,0.021,0.798,0.032,1.212c-0.665,0.631-1.073,1.031-1.308,1.292c-0.211,0.24-0.142,0.245,0.468-0.206
						c0.101-0.158,0.218-0.314,0.35-0.472c0.156-0.179,0.357-0.388,0.555-0.586c-0.03-0.74-0.024-1.298-0.015-2.032
						c0.009-0.712,0.021-1.591,0.004-2.496c0.033-0.199,0.07-0.419,0.108-0.646c0.061,0.227,0.209-0.305,0.384-1.089
						c0.18-0.863,0.417-1.997,0.596-2.856c-0.222-0.261-0.422-0.497-0.587-0.691c-0.126-0.156-0.206-0.264-0.257-0.345
						c-0.097-0.157-0.039-0.163,0.261,0.065l-2.733-2.749l-5.67-1.722l-1.657,0.368c-0.898,0.054-2.141,0.221-3.45,0.429
						c-1.314,0.186-2.657,0.594-3.81,0.861c2.921-0.672,2.542-0.457,2.259-0.246c-0.142,0.106-0.259,0.211,0.069,0.205
						c0.326-0.022,1.105-0.117,2.771-0.341c1.095-0.198,2.275-0.412,3.763-0.681c1.591,0.558,3.314,1.162,5.242,1.838
						c0.934,1.029,1.905,2.098,2.943,3.243c-0.264,1.395-0.534,2.826-0.812,4.3c0.003,1.426,0.007,2.872,0.01,4.327l-2.718,2.465
						c0.194,0.986,0.388,1.968,0.58,2.943c0.199,0.921,0.323,1.868,0.579,2.768c0.203,0.875,0.394,1.829,0.363,2.604
						c-0.022,0.171-0.04,0.363-0.181,0.48c-0.121,0.119-0.269,0.224-0.432,0.335l-0.216,0.137c-0.075,0.035-0.167,0.007-0.249,0.014
						l-0.624-0.009l-0.373-0.005l0.053,0.378c0.026,0.185,0.05,0.359,0.074,0.533c0.214,0.398,0.423,1.424,0.615,2.585
						c-0.463,1.197-1.017,2.629-1.504,3.887l-0.117,0.302l0.286-0.151c0.783-0.412,1.489-0.802,2.005-1.131l-0.063-0.048
						c-0.032,0.244-0.052,0.456-0.057,0.634c-0.204,0.247-0.529,1.13-0.734,1.38c-0.082,0.399-0.156,0.754-0.214,1.037
						c-0.059,1.93-0.181,2.254-0.074,2.015c0.089-0.261,0.244-1.172,0.311-1.986c0.251-0.895,0.455-1.557,0.37-0.91
						c-0.07,0.332-0.139,0.657-0.198,0.931c-0.029,0.812-0.121,1.58-0.268,2.225c-0.154,0.643-0.354,1.194-0.684,1.411
						c-0.339,0.175-0.631,0.123-0.777,0.095c-0.171-0.038-0.23-0.083-0.167-0.114c-1.314-0.115-2.088-0.349-2.468-0.353
						c-0.387-0.031-0.386,0.002-0.291,0.04c0.095,0.039,0.272,0.102,0.241,0.148c-0.026,0.064-0.277,0.017-0.979,0.154
						c0.003-0.051-0.939,0.134-1.756,0.651c-0.412,0.24-0.804,0.512-1.094,0.727c-0.282,0.194-0.51,0.431-0.489,0.414
						c-0.603,0.784-1.216,1.583-1.856,2.416c-0.319,0.417-0.645,0.843-0.979,1.279c-0.297,0.442-0.602,0.895-0.917,1.362
						c-0.743,0.606-1.496,1.221-2.342,1.912c-1.179,0.536-2.375,1.081-3.691,1.68c1.555,1.65,3.147,3.341,4.832,5.13
						c0.039,5.965,0.081,12.229,0.122,18.536c0.954,1.831,1.91,3.666,2.863,5.495c0.452,0.92,0.992,1.792,1.499,2.678
						c0.504,0.87,1.006,1.739,1.506,2.603c-0.012,1.805-0.025,3.598-0.037,5.371c0.45,1.698,0.888,3.28,1.289,4.903l-0.087-1.535
						c0.457,1.749,0.83,3.372,1.26,4.927c-0.459,1.513-0.897,2.954-1.323,4.357c-0.473,1.389-0.932,2.739-1.391,4.085
						c-0.318,0.658-0.635,1.316-0.954,1.976c-0.355,0.7-0.711,1.404-1.072,2.116c-0.851,0.096-1.45,0.152-2.105,0.207
						c-0.674,0.048-1.359,0.097-2.058,0.147c-0.288-0.224-0.581-0.451-0.877-0.681l-2.448-1.308
						c1.348,0.715-1.042-1.261,1.065-0.114c-0.321-0.2-0.645-0.402-0.971-0.606c-0.289-0.188-0.581-0.377-0.874-0.567
						c-0.176-0.828-0.354-1.666-0.533-2.505c-0.188-0.878-0.384-1.754-0.603-2.617l0.807,4.48c-0.649-2.138-1.125-4.475-1.348-6.048
						c-0.155-0.697-0.246-1.233-0.269-1.561c-1.424-4.122-0.763-1.287-0.069,1.647c0.261,1.655,0.541,3.389,0.56,3.933
						c0.149,0.552,0.29,1.07,0.422,1.559c0.137,0.551,0.266,1.067,0.387,1.552c2.267,1.436,3.127,2.077,4.662,3.214
						c0.227-0.017,0.452-0.034,0.674-0.051l0.491-0.026l0.961-0.045c0.681-0.034,1.128-0.039,2.445-0.16
						c0.356-0.649,0.737-1.344,1.159-2.113c0.352-0.654,0.685-1.293,1.125-2.177c0.208-0.581,0.462-1.291,0.74-2.07
						C194.897,99.154,192.616,105.023,192.57,104.632z"/>
					<path class="st0" d="M184.526,109.426c-0.514-0.313-0.908-0.54-1.204-0.702C183.729,108.972,184.117,109.199,184.526,109.426z"
						/>
					<path class="st0" d="M186.024,1.948c-0.689,0.164-1.516,0.361-2.607,0.621C182.549,2.851,183.95,2.47,186.024,1.948z"/>
					<path class="st0" d="M179.53,99.277c0,0-0.002,0.001,0,0.023c0.006,0.016,0.017,0.044,0.025,0.063
						C179.547,99.334,179.536,99.298,179.53,99.277z"/>
					<polygon class="st0" points="177.503,95.123 178.208,97.553 178.221,97.09 					"/>
					<path class="st0" d="M171.255,20.45l0.168,0.004C171.334,20.223,171.266,20.135,171.255,20.45z"/>
					<path class="st0" d="M124.34,35.283l1.563,0.008C125.422,35.266,124.861,35.27,124.34,35.283z"/>
					<path class="st0" d="M137.61,63.695c-0.676,0.847-1.403,1.758-2.147,2.691c-0.952,0.832-1.928,1.683-2.873,2.509
						c-1.234,1.486-2.35,2.852-3.304,4.06c-0.005,0.826,0.002,1.473,0.018,2.059l-0.149-0.347c-0.046,2.542-0.19,10.759,0.369,5.485
						l-0.081-1.291c0.018-1.959,0.076-3.103,0.158-3.919c0.041-0.408,0.088-0.734,0.139-1.038c0.027-0.151,0.053-0.296,0.079-0.444
						c0.024-0.084,0.048-0.169,0.074-0.259c0.096-0.076,0.144-0.097,0.277-0.218c0.147-0.141,0.309-0.296,0.493-0.471
						c0.362-0.357,0.8-0.809,1.355-1.416c0.438-0.528,0.852-1.028,1.249-1.506c0.496-0.457,0.967-0.891,1.42-1.308
						c0.474-0.448,0.929-0.878,1.373-1.298c0.845-1.155,1.472-2.052,2.326-3.171c0.425-1.378,0.837-2.614,1.408-4.078
						c0.726-2.085,0.768-1.704,0.667-1.054c0.238-0.674,0.457-1.294,0.66-1.868c-0.121-0.34-0.237-0.666-0.349-0.98
						c-0.097-0.258-0.191-0.507-0.281-0.747c-0.202-0.514-0.39-0.991-0.568-1.443c-0.229-0.168-0.452-0.331-0.671-0.491
						c-0.192-0.136-0.38-0.269-0.565-0.4c-0.371-0.262-0.732-0.517-1.095-0.773c-0.727-0.512-1.444-1.055-2.237-1.713
						c-0.027-0.214-0.207-0.509-0.515-0.875c-0.154-0.183-0.34-0.383-0.555-0.599c-0.23-0.23-0.406-0.404-0.823-0.778
						c-0.337-0.082-0.697-0.169-1.077-0.26c-0.337-0.075-0.692-0.154-1.062-0.236c-0.752-0.153-1.566-0.318-2.425-0.493
						c-1.564-0.111-3.268-0.231-5.004-0.354c-1.167,0.36-2.349,0.724-3.51,1.082c-1.623,1.109-3.039,2.036-4.52,2.917
						c-0.518,0.517-0.925,0.895-1.37,1.293c-1.08,1.213-2.284,2.564-3.588,4.028c-1.455,1.033-2.999,2.129-4.575,3.248
						c-1.615,1.088-3.28,2.175-4.89,3.302c1.256-0.999,0.081-0.214-1.343,0.616c-1.43,0.821-3.066,1.756-2.589,1.274
						c-0.13,0.177-0.446,0.433-0.903,0.749c-0.232,0.153-0.496,0.326-0.786,0.517c-0.343,0.21-0.718,0.439-1.118,0.683
						c-0.076,0.627-0.16,1.31-0.248,2.032c-0.085,0.635-0.175,1.303-0.267,1.988c-0.803,1.404-1.65,2.884-2.426,4.242
						c-0.578,0.475-1.132,0.93-1.642,1.35c-0.526,0.441-1.001,0.852-1.403,1.218c-0.805,0.732-1.32,1.288-1.37,1.557
						c-0.281,0.213-0.537,0.407-0.655,0.495c-6.065-0.589-0.822-0.01-7.278-0.571c-0.28-0.165-0.751-0.442-1.29-0.759
						c0.021-0.031,0.215,0.05,0.481,0.179c0.246,0.126,0.563,0.289,0.851,0.438c0.243,0.011,0.466,0.021,0.622,0.027
						c-0.215-0.024-0.424-0.047-0.61-0.068c-0.196-0.113-0.385-0.223-0.57-0.329c-0.208-0.114-0.41-0.224-0.607-0.332
						c-0.399-0.205-0.777-0.399-1.142-0.586c-0.739-0.367-1.423-0.706-2.108-1.046c-0.967-0.294-1.865-0.614-2.892-1.118
						c-0.77-0.261-1.388-0.47-1.873-0.634c-0.442-0.141-0.763-0.243-0.981-0.312c-0.237-0.3-0.44-0.535-0.5-0.559
						c-0.072-0.042-0.065,0.038-0.085,0.088c-0.039,0.101-0.184,0.083-1.287-1.268c-0.64-0.916-1.166-1.669-1.39-1.99
						c0.369-1.717,0.582-2.608,0.769-3.322c0.186-0.705,0.323-1.108,0.48-1.535c0.234,0.033,0.506,0.071,0.854,0.121
						c0.33,0.045,0.866,0.094,1.471,0.148c0.155-0.098,0.509-0.163,1.011-0.208c0.529-0.045,1.089-0.07,1.961-0.087
						c0.656-0.646,1.417-1.396,2.207-2.174c0.772-0.763,1.565-1.561,2.287-2.337c-0.699,0.639-4.615,4.26-2.208,1.731
						c1.294-1.217,2.214-2.1,2.883-2.757c1.463-0.628,2.347-1.035,3.225-1.448c0.842-0.403,1.595-0.763,2.566-1.227
						c0.907-0.642,2.326-1.6,4.545-3.03c3.916-1.878-7.203,4.519-0.653,0.874c-1.348,0.908-2.598,1.75-3.714,2.502
						c-2.276,1.025-4.248,1.905-5.744,2.674c-0.35,0.388-0.695,0.783-0.979,1.131c0.327-0.311,0.659-0.626,1.06-1.007
						c1.819-0.762,3.739-1.566,5.843-2.448c2.509-1.607,5.159-3.304,7.793-4.991c1.964-1.033,3.915-2.06,5.807-3.055
						c0.088-0.038,0.173-0.074,0.258-0.111c4.098-1.569-2.007,1.048,1.223-0.197c2.304-0.85,4.198-1.632,5.982-2.406
						c3.149-2.187,5.55-4.043,8.673-6.016c0.354-0.259,0.719-0.525,1.093-0.798l-0.885,0.994c1.319-1.209,3.891-3.176,6.705-5.297
						c3.946,0.036,8.635,0.104,12.457,0.006c-0.914-0.125-1.534-0.209-0.566-0.292c-0.089,0.444,5.053,0.094,10.573,0.011
						c2.199-0.447,4.519-0.871,6.582-1.127c-0.173-0.088,0.255-0.272,1.234-0.544c1.1-0.103,2.666-0.184,4.42-0.243
						c1.74-0.07,3.606,0.03,5.158,0.061c1.55,0.172,1.209,0.324,1.187,0.429c-6.244-0.503-6.955,0.062-10.715,0.299
						c-0.512,0.135-1.172,0.292-1.898,0.453c0.589-0.13,1.227-0.27,1.901-0.418c1.676-0.032,3.653-0.051,5.592-0.037
						c1.94,0.066,3.884,0.132,5.618,0.191c1.218,0.38,2.393,0.729,3.337,0.972l-1.636-0.217c1.871,0.638,3.155,1.005,4.121,1.242
						c1.706,0.695,2.819,1.016,5.002,2.107c0.68-0.097,1.691-0.221,2.786-0.327l-0.621,0.319c0.447-0.064,0.897-0.129,1.367-0.197
						c0.338-1.341,0.681-2.701,1.03-4.089c-0.81-1.312-1.629-2.64-2.453-3.974c-0.752-2.108-1.51-4.231-2.262-6.341
						c-0.275-1.797-0.549-3.586-0.818-5.347c-0.003-2.977-0.005-5.889-0.008-8.658c0.944-0.759,1.868-1.502,2.765-2.224
						c0.92-0.756,1.813-1.489,2.675-2.198c0.926-0.551,1.818-1.082,2.674-1.592c0.478-0.399-1.426,0.382-3.033,1.047
						c-0.852,0.538-1.467,0.906-1.597,0.942c-1.632,1.368-3.053,2.56-4.317,3.619c0.155,3.344,0.281,6.055,0.422,9.096
						c0.081,0.412,0.17,0.865,0.261,1.328l-0.36,0.01c0.247,0.644,0.723,2.936,1.007,4.062c0.339,0.734,0.482,0.937,0.196-0.051
						c0.005-0.02-0.005-0.135-0.02-0.286c0.022,0.106,0.044,0.209,0.058,0.276c1.325,3.241,0.787,2.927,2.174,6.406
						c0.111,0.163,0.268,0.393,0.437,0.641c-0.147-0.041-0.35-0.217-0.632-0.546c-0.503-0.88-1.082-2.224-1.31-2.191l0.977,2.354
						l0.959,1.398c-0.804-1.013,1.216,2.182,0.423,1.19c0.345,0.483,0.751,1.077,0.847,1.187l-0.044,0.264
						c-0.037,0.173-0.073,0.343-0.109,0.51c-0.077,0.344-0.152,0.679-0.226,1.005c-0.122,0.508-0.238,0.991-0.35,1.459
						c-0.455,0.058-0.894,0.113-1.327,0.168c-0.285,0.034-0.567,0.068-0.848,0.102l-0.421,0.049l-0.21,0.018
						c-0.689-0.371-1.383-0.744-2.11-1.136c-0.815-0.423-1.668-0.866-2.593-1.347c-1.18-0.4-2.311-0.767-3.704-1.192l3.667,1.283
						l0.551,0.285c-0.051,0.039-0.199,0.01-0.603-0.159c-0.883-0.215-2.434-0.731-3.759-1.126c-0.373-0.183-0.719-0.345-1.065-0.497
						l-0.521-0.223c-0.205-0.081-0.414-0.163-0.628-0.248c-0.639-0.049-1.335-0.102-2.2-0.169c-0.829-0.057-1.818-0.125-3.076-0.212
						c-2.308,0.049-3.884,0.288-6.146,0.398c-1.177,0.287-2.393,0.559-4.013,0.862c0.504-0.304-1.682,0.055-3.84,0.412
						c-2.014-0.044-4.361-0.085-4.763-0.245c-1.005,0.394-9.148,0.141-9.806,0.367c-2.532,0.081-6,0.039-5.961-0.172
						c0.374-0.013,1.111-0.039,1.904-0.068l-2.524-0.013c0.242-0.046,0.156-0.08,0.446-0.087c-0.824-0.004-1.187,0.03-2.02,0.066
						c-0.228,0.196-0.444,0.382-0.671,0.576c-0.162,0.137-0.332,0.281-0.526,0.445c-0.396,0.318-0.907,0.695-1.688,1.216
						c-0.039-0.101,1.196-1.048,2.18-1.856c-2.381,1.786-4.399,3.524-6.269,5.103c-1.989,1.433-3.963,2.813-6.131,4.014
						c-0.274,0.269-1.458,1.098-2.519,1.859c-1.78,0.803-3.729,1.698-2.787,1.59c-1.584,0.492-1.345,0.101-4.529,1.35
						c-0.392,0.198-0.856,0.432-1.392,0.702c-1.388,0.918-2.828,1.56-4.479,2.324c-1.185,0.692-2.407,1.416-3.754,2.373
						c4.12-3.01-0.024-0.111,3.544-2.747c0.01-0.006,0.044-0.026,0.079-0.046c-0.027,0.012-0.053,0.025-0.083,0.039
						c-1.096,0.628-2.21,1.353-3.512,2.227c-1.273,0.86-2.684,1.813-4.204,2.84c-1.404,0.637-3.079,1.368-4.764,2.049
						c-0.273,0.071-0.426,0.087-0.576,0.101c-0.162,0.019-0.246,0.006-0.703,0.152c-0.005-0.003-0.049,0.032-0.096,0.07
						c-0.783,0.844-1.624,1.749-2.456,2.645c-0.804,0.839-1.713,1.706-2.512,2.266c0,0,0.056,0.033,0.143,0.037
						c0.092-0.001,0.184-0.002,0.184-0.002c-0.125,0.111-0.253,0.224-0.391,0.346c-0.757-0.015-1.567-0.03-2.408-0.046
						c-1.048-0.01-2.135-0.02-3.236-0.031c-0.203,0.979-0.408,1.97-0.612,2.953c-0.202,0.929-0.403,1.851-0.598,2.749
						c0.198,0.287,0.394,0.571,0.587,0.85c0.138,0.208,0.275,0.412,0.41,0.614c0.264,0.407,0.522,0.803,0.771,1.188l0.692,0.785
						l0.346,0.393l0.453,0.54l0.519,0.136l0.391,0.093l0.738,0.172l1.476,0.344c0.92,0.385,1.971,0.792,2.921,1.147
						c0.693,0.405,1.402,0.818,2.118,1.236c0.77,0.428,1.547,0.86,2.326,1.293c2.787,0.163,4.99,0.224,7.582,0.282
						c0.439-0.397,0.867-0.784,1.284-1.161c0.387-0.357,0.762-0.705,1.125-1.04c0.719-0.679,1.387-1.312,1.992-1.883
						c0.261-0.208,0.539-0.431,0.828-0.662c1.025-1.784,2.252-3.863,2.596-4.325c0.024-0.101,0.04-0.144,0.051-0.139
						c-0.003,0.032-0.006,0.066-0.013,0.151c-0.236,0.496-0.645,1.358-1.125,2.367c0.427-0.741,0.875-1.52,1.325-2.301
						c0.185-1.296,0.371-2.599,0.539-3.776c0.27-0.161,0.531-0.317,0.781-0.466c0.299-0.188,0.584-0.368,0.853-0.537
						c0.53-0.347,0.98-0.672,1.318-0.967c3.221-2.014,2.55-1.162,4.974-2.626c1.07-0.812,2.385-1.655,3.75-2.624
						c1.374-0.988,2.797-1.977,4.347-3.04c1.701-1.827,3.415-3.668,4.95-5.316c1.608-1.052,3.27-2.166,4.282-2.915
						c0.264-0.093,0.511-0.181,0.739-0.261c0.243-0.095,0.466-0.181,0.667-0.26c0.398-0.166,0.701-0.32,0.891-0.457
						c-0.592,0.164-1.288,0.357-2.437,0.677c-1.174,0.757-2.699,1.739-4.446,2.865c-1.506,1.613-3.218,3.465-4.898,5.337
						c0.985-1.236,0.041-0.445,1.507-2.087c1.194-1.331,2.192-2.4,3.203-3.469c1.57-0.998,2.981-1.894,4.527-2.877
						c1.136-0.308,2.17-0.597,3.493-0.99c0.43,0.035,0.984,0.08,1.564,0.128l-0.774,0.466c1.361,0.211,2.761,0.392,4.049,0.539
						c0.737,0.166,1.468,0.331,2.193,0.495c0.7,0.146,1.394,0.291,2.082,0.434c1.09,0.883,2.161,1.751,3.214,2.603
						c1.082,0.845,2.145,1.674,3.187,2.487c0.344,0.959,0.681,1.897,1.013,2.821c-0.784,2.29-1.689,4.703-2.616,6.685
						C137.748,63.562,137.679,63.629,137.61,63.695z"/>
					<path class="st0" d="M89.261,77.712l3.316-2.389l0.263-0.423c-0.106,0.06-0.267,0.218-0.393,0.314l-0.119,0.042
						C91.233,76.201,90.23,77.022,89.261,77.712z"/>
					<path class="st0" d="M92.327,75.256c0.03-0.025,0.059-0.051,0.084-0.072c0.209-0.409,0.414-0.811,0.612-1.199
						c0.181-0.369,0.356-0.725,0.521-1.062c-0.212,0.384-0.42,0.762-0.619,1.124c-0.2,0.386-0.391,0.754-0.567,1.093
						c-0.067,0.06-0.123,0.11-0.178,0.159L92.327,75.256z"/>
					<path class="st0" d="M128.789,77.753c-0.068,0.932-0.209,2.891-0.237,4.674C128.673,81.295,128.825,78.699,128.789,77.753z"/>
					<polygon class="st0" points="128.658,82.754 128.708,82.708 128.893,80.642 128.847,80.322 128.706,82.707 					"/>
					<path class="st0" d="M53.878,166.357l-1.414,0.305c-0.469,0.101-0.995,0.212-1.222,0.273l-2.185,3.236
						c-0.057,0.058-0.131,0.14-0.218,0.243c-0.122,0.153-0.266,0.334-0.429,0.538c-0.893,0.247-2.285,0.632-3.519,0.973
						c-0.345,0.284-0.673,0.554-0.956,0.787c-0.316,0.251-0.583,0.463-0.768,0.609c-0.377,0.284-0.447,0.288,0.025-0.205
						c-0.175,0.17-0.361,0.352-0.556,0.543c-0.203,0.193-0.374,0.356-0.721,0.662c-0.643,0.181-1.331,0.376-2.03,0.573
						c-0.639,0.17-1.287,0.343-1.915,0.51c-0.744,0.381-1.457,0.747-2.08,1.066c-0.64,0.33-1.185,0.615-1.569,0.832
						c-0.769,0.433-0.896,0.59,0.139,0.274c1.118-0.57,2.262-1.153,3.63-1.849c1.253-0.319,2.532-0.644,4.02-1.023
						c0.927-0.778,1.871-1.569,2.945-2.47c1.124-0.323,2.263-0.651,3.538-1.017c0.927-1.239,1.871-2.499,2.899-3.871
						c0.426-0.071,0.854-0.142,1.286-0.214c0.556-0.085,1.108-0.202,1.679-0.262c1.228-0.153,2.479-0.309,3.763-0.469
						c1.143-0.98,2.298-1.969,3.502-3c1.403-0.468,2.817-0.939,4.271-1.424c1.229-0.528,2.465-1.059,3.723-1.6
						c0.877-1.364,1.758-2.734,2.646-4.117c0.421-1.099,0.843-2.202,1.265-3.306l3.448-0.021c1.251-0.458,2.502-0.915,3.746-1.37
						c1.169-1.191,2.334-2.378,3.489-3.556c1.322-1.018,2.636-2.03,3.936-3.031c0.972-1.515,1.933-3.014,2.881-4.491l0.636-0.571
						l-0.341,0.329c-0.117,0.113-0.24,0.23-0.268,0.266l-1.397,2.402c0.526-0.844,1.023-1.643,1.461-2.346
						c0.638-0.564,1.245-1.101,1.827-1.615c0.614-0.528,1.201-1.033,1.765-1.519c1.133-0.947,2.175-1.818,3.163-2.645
						c0.944-0.661,1.847-1.294,2.737-1.917c0.447-0.318,0.891-0.634,1.337-0.951c0.538-0.392,1.078-0.784,1.623-1.18
						c0.087-0.612,0.176-1.23,0.265-1.857c0.063-0.508,0.128-1.025,0.194-1.553c0.057-0.529,0.115-1.07,0.175-1.627
						c0.057-0.605,0.116-1.226,0.177-1.869c-0.171-0.446-0.273-0.681-0.392-0.958c-0.119-0.277-0.241-0.559-0.365-0.846l0.853,1.111
						c-0.208-0.675-0.428-1.339-0.655-1.994l-0.347-0.978l-0.177-0.485l-0.084-0.227l-0.037-0.084
						c0.072-1.867,0.143-3.715,0.215-5.593l0.228-0.499l0.288-0.608c0.198-0.404,0.398-0.81,0.598-1.219
						c0.21-0.404,0.421-0.811,0.634-1.222c0.203-0.378,0.494-0.918,0.578-1.026l0.142-0.052c0.04-0.013,0.087-0.03,0.194-0.076
						l0.543-0.222l-0.619,0.101c1.388-0.693,2.022-0.917,3.378-1.592c0.061-0.031-0.582,0.197-0.569,0.19
						c0.199-0.112,0.393-0.221,0.548-0.308c0.898-0.3,1.716-0.574,2.496-0.835c0.882-0.272,1.721-0.531,2.565-0.792
						c0.198-0.817,0.398-1.639,0.609-2.508c0.203-0.782,0.416-1.605,0.651-2.508c0.207-0.248-0.368,1.87-0.612,3.102
						c0.178-0.562,0.341-1.264,0.504-2.057c0.078-0.397,0.16-0.817,0.245-1.253c0.041-0.216,0.082-0.437,0.124-0.661
						c0.021-0.135,0.043-0.272,0.065-0.411c0.29-0.154,1.329-0.605,2.472-1.076l-0.087-1.085c-0.005-0.181-0.009-0.34-0.012-0.478
						c0-0.119,0-0.219,0-0.304c0.002-0.169,0.008-0.275,0.017-0.33c0.018-0.11,0.049-0.02,0.085,0.159
						c0.029,0.182,0.073,0.451,0.113,0.696c0.046,0.367,0.088,0.708,0.114,0.843c-0.133-1.513-0.254-2.883-0.361-4.107
						c1.457-0.172,2.781-0.327,4.007-0.472c0.006-1.648,0.011-3.153,0.016-4.616c0.569-0.351,1.129-0.697,1.692-1.045
						c0.336-0.216,0.674-0.432,1.014-0.65c0.357-0.236,0.718-0.474,1.084-0.716c0.161-0.182,0.324-0.366,0.488-0.552
						c0.146-0.17,0.293-0.341,0.441-0.515c0.292-0.351,0.591-0.71,0.897-1.078c0.378-0.555-1.91,1.581,0.5-0.911
						c-0.948,0.885-1.843,1.746-2.692,2.583c-1.433,0.831-2.812,1.664-4.13,2.481c0.044,1.523,0.087,3.017,0.131,4.524
						c-1.273,0.201-2.559,0.404-3.879,0.613l1.304-0.157c-0.344,0.088-0.499,0.147-0.676,0.201c-0.153,0.048-0.29,0.092-0.414,0.131
						c0.071,0.349,0.108,0.585,0.129,0.805c0.029,0.33,0.043,0.693,0.049,1.032c0.015,0.738-0.014,1.298,0.07,2.883
						c-0.802,0.298-1.91,0.733-2.529,1.004c-0.071,0.367-0.163,0.843-0.265,1.371c0.027-0.236,0.055-0.49,0.085-0.756
						c0.029-0.221,0.059-0.453,0.09-0.691c0.528-0.276,1.546-0.723,2.363-1.087c-0.111-1.001-0.199-1.726-0.292-2.216
						c0.018,0.725,0.035,1.412,0.051,2.065c-0.837,0.297-1.586,0.579-2.48,0.93c-0.147,0.647-0.288,1.262-0.422,1.852
						c-0.12,0.568-0.234,1.112-0.345,1.637c-0.211,1.047-0.407,2.02-0.598,2.964c-1.602,0.522-3.156,0.99-4.923,1.365
						c-0.349,0.133-0.722,0.274-1.105,0.42l0.553-0.298c-0.423,0.186-0.954,0.454-1.54,0.763c-0.601,0.325-1.264,0.684-1.929,1.044
						c-0.223,0.487-0.446,0.976-0.66,1.444c0.167-0.246,0.433-0.71,0.774-1.331c0.649-0.291,1.426-0.639,2.044-0.916
						c-0.415,0.224-0.773,0.436-1.085,0.633c-0.154,0.101-0.298,0.196-0.433,0.285c-0.106,0.08-0.205,0.155-0.297,0.226
						c-0.137,0.53-0.237,0.916-0.315,1.222c-0.459,0.673-0.735,1.208-0.989,1.773c-0.235,0.541-0.477,1.097-0.809,1.861
						c-0.002,0.12-0.032,0.53-0.062,0.856c-0.038,0.35-0.081,0.735-0.127,1.163c-0.243,0.797-0.169-0.727-0.109-2.103
						c0.285-0.635,0.638-1.408,0.782-1.811l-0.801,1.806L103,115.731c-0.169,2.143-0.345,3.066-0.514,3.736
						c0.081,0.51,0.144,0.993,0.334,1.763c1.202,2.95-0.453-1.822,0.638,0.533c0.128,0.519,0.302,1.153,0.589,2.107
						c-0.323,1.735-0.678,3.83-1.093,6.434c-1.685,1.226-3.537,2.574-5.412,3.939c-2.313,2.029-4.669,4.095-6.765,5.933
						c-1.082,1.709-2.046,3.23-2.849,4.5l-0.02,0.015c0.008-0.006,0.02-0.015,0.02-0.015c1.594-2.462,0.323-1.007,2.287-3.874
						c-0.503,0.681-1.665,2.512-2.391,3.776c-0.611,0.521-0.948,0.851-0.927,0.924c-0.903,0.706-1.854,1.451-2.835,2.219
						c-0.548,0.554-1.105,1.118-1.668,1.687c-0.599,0.594-1.202,1.193-1.804,1.791c-1.212,0.416-2.421,0.832-3.601,1.237
						c-0.701-0.015-1.392-0.03-2.069-0.044c-0.585-0.018-1.158-0.036-1.714-0.053c-0.288,0.673-0.544,1.269-0.788,1.839
						c0,0,0.187-0.339,0.375-0.677c0.093-0.166,0.185-0.333,0.255-0.458c0.054-0.084,0.089-0.14,0.089-0.14
						c-0.032,0.137-0.123,0.418-0.205,0.67c-0.087,0.255-0.176,0.517-0.268,0.785c-0.198,0.558-0.377,1.042-0.642,1.728
						c-0.388,0.589-0.796,1.208-1.221,1.853c-0.448,0.663-0.914,1.352-1.397,2.067c-1.144,0.459-2.352,0.944-3.609,1.449
						c-0.712,0.225-1.442,0.456-2.186,0.691c-0.716,0.236-1.446,0.476-2.189,0.721c-0.692,0.611-1.397,1.235-2.115,1.869
						l0.132-0.108c-0.222,0.206-0.441,0.408-0.66,0.61c-0.249,0.24-0.497,0.481-0.75,0.725c-0.924,0.192-1.892,0.392-3.032,0.629
						c-0.545,0.103-1.131,0.21-1.77,0.347c-0.321,0.061-0.656,0.124-1.007,0.19c-0.248,0.041-0.507,0.085-0.779,0.13
						c-0.06,0.074-0.129,0.16-0.201,0.249c0.056-0.105,0.059-0.136,0.075-0.184c0.017-0.048,0.039-0.101,0.067-0.161
						c0.063-0.03,0.139-0.061,0.221-0.091l0.493-0.126c0.34-0.084,0.672-0.166,0.957-0.236
						C53.624,166.566,54.005,166.444,53.878,166.357z"/>
					<path class="st0" d="M31.06,179.741l0.622-0.782l0.311-0.391l0.156-0.196l0.086-0.126c0.052-0.05,0.234-0.165,0.397-0.271
						c-0.144,0.069-0.291,0.14-0.44,0.211l-0.437,0.445l-0.488,0.515c-0.158,0.173-0.315,0.344-0.467,0.511l-0.206,0.233
						l-0.107,0.138c-0.007,0.142-0.093,0.619-0.133,0.922c-0.046,0.327-0.079,0.61-0.097,0.834
						c-0.036,0.448-0.012,0.658,0.087,0.495c0.086-0.369,0.179-0.763,0.271-1.159c0.077-0.301,0.154-0.604,0.227-0.891
						c0.334-0.336,0.641-0.645,0.88-0.885c0.287-0.302,0.48-0.528,0.518-0.637C31.978,178.912,31.924,178.82,31.06,179.741z"/>
					<path class="st0" d="M1.796,217.386c-0.041,1.033,0.095,0.783,0.129,1.227c0.05-0.498,0.1-1.004,0.153-1.53
						c1.225-0.774,2.48-1.567,3.735-2.361c1.438-0.963,2.877-1.927,4.288-2.872c1.2-1.549,2.373-3.065,3.486-4.501
						c1.576-1.567,3.043-3.026,4.311-4.287c0.975-0.689,1.853-1.31,2.612-1.846c0.783-0.545,1.447-0.998,1.969-1.339
						c1.433-0.976,2.194-1.761,3.023-2.522c0.408-0.388,0.823-0.784,1.307-1.245c0.246-0.226,0.51-0.468,0.798-0.733
						c0.311-0.273,0.649-0.569,1.023-0.897c0.219-0.265,0.48-0.581,0.761-0.921l1.632-1.42c0.078-0.097,0.161-0.2,0.254-0.316
						c0.116-0.139,0.246-0.294,0.394-0.472c-0.01-0.688-0.021-1.547-0.034-2.457c0.001-0.856,0.001-1.76,0.002-2.6
						c-0.344-0.586-0.669-1.14-0.948-1.616c-0.243-0.406-0.451-0.742-0.606-0.97c-0.045-0.068-0.07-0.101-0.077-0.1
						c-0.016-0.011-0.029-0.021-0.039-0.029c-0.025-0.015-0.048-0.021-0.066-0.013c-0.018,0.008-0.032,0.03-0.037,0.075
						c-0.001,0.025-0.005,0.045,0.004,0.091c0.024,0.069,0.053,0.149,0.086,0.242c0.042,0.101,0.217,0.355,0.472,0.727
						c0.127,0.187,0.273,0.403,0.436,0.642c0.08,0.121,0.163,0.247,0.25,0.379c0.122,0.196,0.249,0.401,0.38,0.611
						c0.005,0.355,0.011,0.732,0.017,1.122c0.001,0.311-0.004,0.633-0.017,0.962l-0.166-0.354l0.033,3.172l-1.569,1.831l0.9-1.345
						c-1.043,1.095-1.713,1.849-2.279,2.536c-1.256,1.066-1.754,1.665-2.68,2.567c-0.921,0.875-2.146,2.082-4.906,3.942
						l-0.195-0.375c-1.168,0.852-2.186,1.595-3.094,2.256c-1.532,1.549-2.917,2.961-4.362,4.343
						c-0.625,0.766-1.366,1.657-2.171,2.588c0,0,0.139,0.16,0.656-0.641c0.604-0.74,1.49-1.606,1.184-1.01
						c-2.49,3.465-2.346,3.18-2.046,2.593c0.15-0.293,0.338-0.662,0.256-0.675c-0.041-0.007-0.15,0.076-0.365,0.301
						c-0.104,0.116-0.238,0.264-0.407,0.452c-0.175,0.208-0.386,0.46-0.639,0.762c-0.01,0.006-0.028,0.017-0.046,0.029
						c-1.107,0.788-2.397,1.706-3.786,2.694c-0.682,0.495-1.424,0.955-2.165,1.448c-0.65,0.426-1.312,0.86-1.978,1.296
						c-0.129,1.452-0.26,2.918-0.385,4.329c0.476,0.949,0.935,1.865,1.371,2.734c0.363,0.947,0.706,1.845,1.023,2.671
						c0.314,0.858,0.602,1.642,0.854,2.33c0.016,0.434,0.031,0.833,0.045,1.194c0.003,0.329,0.006,0.622,0.008,0.877
						c-0.001-1.313,0.093-1.382,0.225-0.739c0.066,0.322,0.141,0.821,0.219,1.433c0.036,0.306,0.076,0.64,0.118,0.993l0.029,0.264
						l0.013,0.058l0.024,0.111l0.142,0.041l0.58,0.222c0.572,0.228,1.146,0.457,1.704,0.679c0.411,0.186,0.657,0.305,0.758,0.365
						c-0.027,0.229-0.049,0.227-0.067,0.044c-0.148-0.036-0.427-0.125-0.766-0.238c-0.306-0.1-0.825-0.286-0.999-0.334
						c-0.491-0.153-0.998-0.312-1.223-0.356c0.94,0.406,1.802,0.778,2.656,1.147c-0.021,0.621-0.041,1.239-0.062,1.875
						c-0.004,0.24-0.008,0.483-0.012,0.731l0,0.35l0.007,0.2c0.06-0.308,0.103-0.533,0.131-0.68c0.045-0.19,0.088-0.275,0.131-0.259
						c0.042,0.016,0.082,0.132,0.12,0.343c0.015,0.103,0.033,0.229,0.054,0.377c0.016,0.025,0.035,0.053,0.057,0.085l0.058,0.022
						c0.028,0.017,0.002-0.025,0.121,0.093c0.175,0.171,0.368,0.358,0.577,0.562c0.409,0.416,0.883,0.898,1.414,1.438
						c-0.657-0.754-1.296-1.488-1.922-2.207c0.016-1.155,0.031-2.288,0.046-3.407c-0.832-0.323-1.657-0.643-2.477-0.96l-0.78-0.292
						c-0.01,0.003-0.024,0.006-0.042,0.007c-0.006-0.005-0.012-0.012-0.019-0.022c-0.005-0.027-0.003,0.038-0.014-0.065
						l-0.031-0.299l-0.128-1.194l-0.274-2.554c-0.7-1.643-1.403-3.294-2.123-4.983c-0.462-0.88-0.93-1.771-1.408-2.681
						c0.052-0.565,0.105-1.137,0.158-1.717C1.654,218.749,1.724,218.073,1.796,217.386z"/>
					<path class="st0" d="M1.844,220.302c0.091-1.001,0.101-1.444,0.081-1.689l-0.252,2.475L2,221.742l-0.217-0.485l-0.054-0.121
						l-0.004-0.021l-0.006-0.035C1.724,221.173,1.793,220.655,1.844,220.302z"/>
				</g>
			</g>
		</g>
	</g>
</g>
</svg>