<!-- Generator: Adobe Illustrator 19.0.0, SVG Export Plug-In  -->
<svg version="1.1"
	 xmlns="http://www.w3.org/2000/svg" xmlns:xlink="http://www.w3.org/1999/xlink" xmlns:a="http://ns.adobe.com/AdobeSVGViewerExtensions/3.0/"
	 x="0px" y="0px" width="88.668px" height="84.952px" viewBox="0 0 88.668 84.952"
	 style="enable-background:new 0 0 88.668 84.952;" xml:space="preserve">
<style type="text/css">
	.st0{opacity:0.8;}
	.st1{fill:#B8B8B8;}
	.st2{fill:#D1D1D1;}
	.st3{fill:#9F9F9F;}
	.st4{fill:#8C8C8C;}
	.st5{fill:#767676;}
	.st6{fill:#606060;}
	.st7{fill:#464646;}
</style>
<defs>
</defs>
<g>
	<g>
		<g>
			<g class="st0">
				<g class="st0">
					<g>
						<path class="st1" d="M82.937,79.221c0.026,0.367,0.053,0.74,0.079,1.106c-0.478,0.055-0.201,0.886-0.485,0.992
							c-0.228-0.087-0.486-0.185-0.714-0.272c-0.146-0.487-0.341-1.003-0.53-1.473c-0.012-0.376-0.37-0.421-0.6-0.263
							c-0.603,0.353-1.004-0.583-1.676-0.025c-1.089-0.942,0.309-0.886,0.839-1.124c-0.016,0.241,0.272,0.448,0.433,0.31
							c0.295-0.08,0.792-0.119,0.602-0.589c-0.112-0.302-0.02-0.754-0.351-0.804c-0.501-0.394,4.296-0.134,3.761-0.297
							c-0.66-0.732-1.869-0.295-2.883-0.092c-0.348-0.932-1.434,0.386-1.812-0.451c-0.559-0.276-1.531,0.077-2.079-0.393
							c-1.205-0.148-2.274-0.123-3.708,0.251c-0.56,0.483-0.533-0.253-1.248-0.492c-0.475,0.081-0.941,0.16-1.415,0.241
							c-0.542,0.134-1.117,0.253-1.683,0.356c-0.598,0.021-1.171-0.016-1.787-0.039c-0.124,0.045-0.249,0.09-0.415,0.151
							c-0.011,0.882-0.803,0.928-1.672,0.369c-0.562,0.157-1.138,0.27-1.674,0.368c-0.851-0.085-1.711,0.468-2.614,0.501
							c-0.611,0.029-1.22,0.091-1.785,0.136c-0.435,0.147-0.868,0.293-1.258,0.425l-0.829,1.006
							c-0.651,0.251-0.435-0.585-1.001-0.841l-1.405,0.622c0.023-0.247-0.32-0.429-0.559-0.26c-0.599,0.422-0.94-0.095-1.077-0.581
							c0.326-0.194,0.649-0.39,0.984-0.541c0.475,0.003,0.91,0.006,1.387,0.009c0.446,0.05,0.932,0.058,1.404,0.039
							c0.534-0.422,1.064-0.843,1.647-1.235c0.043-0.014,0.129-0.044,0.215-0.073c0.134,0.39,0.282,0.823,0.416,1.213
							c0.46-0.207,0.91-0.448,1.359-0.663l-0.229-0.649l2.672-0.957c1.749-0.149,3.498-0.358,5.342-0.288
							c0.555-0.151,1.084-0.244,1.653-0.352c0.427,0.288,0.907-0.31,1.4,0.199c0.292,0.045,0.622,0.078,0.925,0.168
							c0.544-0.132,1.109-0.245,1.644-0.356c1.102,0.149,2.821-0.666,3.904-0.21c0.208-0.008,0.624-0.355,0.598,0.031
							c0.462,0.078,0.947,0.129,1.438,0.156c0.487,0.04,0.971,0.087,1.446,0.098c0.95,0.025,1.853-0.039,2.552-0.063
							c0.336,1.017,0.959,0.235,1.814,0.201c0.351,0.239,0.723,0.552,1.051,0.804c0.366-0.205,0.567,0.24,0.848,0.587
							c0.273,0.073,0.543,0.145,0.81,0.169c-0.019,0.304-1.255,0.437-2.53,0.544c-1.327,0.243-2.666,0.399-2.785,0.7
							C83.195,78.135,83.081,78.676,82.937,79.221z"/>
					</g>
					<g>
						<path class="st1" d="M52.459,69.583c-0.094,0.268-0.149,0.525-0.205,0.78c-0.596-0.388-1.215-0.723-1.771-1.108
							c0.102-0.962,0.641-1.126,1.281-1.28C52.169,68.618,52.315,69.1,52.459,69.583z"/>
					</g>
					<g>
						<path class="st1" d="M48.829,70.59c-0.782,0.597-1.118,0.849-1.054,1.367c-0.436,0.089-0.91,0.185-1.346,0.274
							c-0.444,0.044-0.896,0.053-1.334,0.002c-0.588,0.015-1.142,0.03-1.729,0.045c-0.241-0.064-0.523-0.102-0.752-0.139
							c-0.027-0.319-0.05-0.592-0.073-0.867c0.351-0.256,0.667-0.548,1.008-0.82c-0.051-0.455-0.076-0.959-0.328-1.294
							c0.746-0.165,1.457-0.304,2.213-0.506c0.202,0.518,0.831,0.575,1.331,0.379c0.922,0.135,0.854-0.49,1.21-0.487l1.176,0.825
							L48.829,70.59z"/>
					</g>
					<g>
						<path class="st2" d="M83.091,83.915c-0.575,1.092-0.838,0.327-1.149,0.505c-0.405-0.22-0.772-0.405-1.177-0.581
							c-0.039-0.416-0.086-0.735-0.11-1.108c-1.454,0.266-2.841-0.636-4.383-0.318c-1.774,0.318-3.347-0.173-5.387,0.964
							c-0.656-1.129-2.297,0.2-3.174-0.744c-0.879,0.177-1.939,1.097-2.611,0.508c-0.83,0.153-0.348,0.952-1.344,0.92
							c-1.008-1.567-3.115,1.024-4.35-0.105c-0.85-0.476,4.914-1.042,4.024-1.092c-0.356-0.31-0.756,0.077-1.12,0.159
							c-0.301,0.293,0.062,0.608-0.542,0.618c-0.06-1.478-1.064-1.477-2.189-1.579c-0.379,0.366-0.788,1.05-1.46,0.724
							c-0.478-1.002-1.774-0.845-2.702-0.084c0.287,0.296,0.53,0.603,0.774,0.912c-0.772,0.478-1.857,0.224-1.188-0.787
							c-0.911-0.542-1.815-0.323-2.397,0.162c0.171,0.666,0.228,0.888,0.273,1.063c-0.482,0.125-0.918,0.239-1.441,0.184
							c-0.567-0.206-1.07-0.388-1.637-0.594c-1.061,1.232-2.235,1.423-3.464,1.257c-0.598-0.086-1.207-0.174-1.803-0.261
							c-0.59-0.055-1.191-0.094-1.813,0.004c-0.877-0.555-3.173,0.567-3.091-0.753c0.384-0.347,0.994-0.167,1.243-0.674
							c-0.318-0.164-0.636-0.328-0.946-0.489c-0.317-0.168-0.639-0.347-0.953-0.484c-0.631-0.281-1.251-0.449-1.908-0.385
							c-0.202,0.025-0.407,0.076-0.619,0.16c-0.031,0.023-0.155,0.04-0.11,0.073c0.011,0.031,0.126,0.065,0.057,0.092
							c-0.074,0.057-0.148,0.124-0.222,0.199c-0.728,0.499-0.462-0.989-1.131-0.65c-0.496,0.601-0.075,1.463-0.973,1.239
							c-0.237-0.435-0.539-0.624-0.858-0.672c-0.309-0.062-0.666-0.002-1.103,0.023c-0.401,0.16-0.78,0.364-1.164,0.567
							c0.106,0.827-0.706,0.815-1.242,0.765c-0.451-0.267-1.115-0.065-1.716-0.036c-0.578,0.038-1.05-0.111-0.859-0.966
							c-1.126,0.222-2.393,0.413-3.764,0.327c0.216,0.39,0.392,0.728,0.579,1.159c-0.302-0.063-0.651-0.083-0.993-0.129
							l-0.054-0.007l-0.376-0.079c-0.21-0.044-0.385-0.149-0.48-0.524c-0.208-0.304-0.426-0.664-0.699-0.959
							c-0.304,0.353-0.934,0.145-1.452-0.01c-0.556-0.149-1.1-0.247-1.793,0.323c-1.238,0.407-2.366,0.616-2.498-0.442
							c-0.237-0.097-0.47-0.192-0.664-0.248c-0.57,0.248-1.07,0.538-1.613,0.759c-0.766,0.206-0.498-0.504-1.093-0.52
							c-0.209-0.022-0.362-0.052-0.518-0.074c-0.519-0.073-0.977-0.17-1.484-0.284c-0.537-0.454-1.12-0.893-1.579-1.443
							c0.068-0.256,0.219-0.545,0.296-0.808c-0.862-0.254-1.478-0.792-1.873-1.399c-0.407-0.602-0.605-1.27-0.705-1.873
							c-0.766,0.245-0.83-0.909-1.159-1.405c0.195-1.766-0.093-3.301-0.354-4.821c-0.252-1.504-0.469-3.013,0.033-4.221
							c0.562-0.876,0.191-1.6-0.027-2.322c-0.22-0.708-0.287-1.377,0.881-1.708c0.046-0.711-0.043-1.563-0.914-1.52
							c-0.684-1.497-0.23-2.812,0.067-4.112c0.301-1.346,0.507-2.639-0.564-3.955c0.705-1.605,0.127-3.193,0.221-4.766
							c-1.182-0.908-0.458-3.394-1.629-4.719c-0.012-0.495-0.153-1.075,0.627-0.863c0.273-0.139,0.223-0.406,0.22-0.631
							c-0.964-0.121-1.431-0.878-0.895-1.918c-1.065-0.842-0.651-0.891-0.013-1.075c-0.187-0.581-0.329-1.162-0.471-1.744
							c-1.85-2.379,0.812-13.046,0.786-15.708c0.163-0.981-0.953-2.159-1.573-2.937c-1.178,0.423-2.029-0.476-1.37-1.417
							c-0.167-0.96,1.08-0.649,1.296-1.096c0.598,0.158,1.049-0.301,0.837-0.912c-0.103-0.261,0.155-0.668-0.264-0.828
							c-0.81,0.34-0.798-0.453-1.133-0.789c1.303-0.842,2.549-3.082,4.517-2.345c-0.117,0.365-0.232,0.729-0.399,1.095
							c-0.028,0.448-0.101,0.853-0.174,1.303c-0.04,0.135-0.125,0.273-0.167,0.408c-0.359,0.193-0.719,0.341-1.079,0.487
							c0.174,0.749-0.381,2.144,0.717,2.11l0.032,1.07c0.277,0.081,0.598,0.117,0.877,0.199c0.007,0.268,0.016,0.579,0.024,0.848
							c-0.132,0.447-0.253,0.856-0.385,1.303c0.28,0.123,0.598,0.262,0.879,0.385c-0.221,0.896-0.431,1.749-0.641,2.602
							c0.651,0.039-0.475,7.64-0.159,7.996c0,0.133,0,0.268,0.001,0.445c0.003,0.58,0.006,1.117,0.009,1.698
							c1.148,0.665,0.15,2.144,1.114,2.764c0.001,0.09,0.001,0.179,0.002,0.224c0.071,1.158,0.143,2.319,0.211,3.433
							c0.666,2.363,1.635,5.357,0.138,7.485c0.053,0.222-0.031,0.491,0.248,0.617c0.77-0.245,0.7,0.378,0.715,0.866
							C6.71,47.88,7.013,48.76,7.25,49.019c-0.076,0.58-0.091,1.113-0.157,1.694c0.02,0.443,0.037,0.841,0.057,1.285
							c0.694,0.144,0.934,0.398,1.363,0.773c-0.077,0.225,0.23,0.738-0.191,0.629c-0.507,0.692,0.341,1.837-0.497,2.377
							c0.401,0.186,0.491,0.545,0.502,0.988c0.007,0.424-0.07,0.875,0.004,1.244c-0.767,0.482-0.258,1.475-0.396,2.197
							c2.012,1.19-0.19,2.824,0.206,4.073c-0.422,0.633-0.17,1.262,0.007,1.807c0.177,0.555,0.275,1.041-0.461,1.704
							c-0.117,0.748,0.483,0.944,1.04,1.091c-0.003,0.316-0.037,0.657-0.067,1.003c0.068,0.332,0.144,0.701,0.249,1.061L9,71.272
							c0.135,0.949-1.265,2.653,0.181,2.342c0.065,0.251,0.569,0.517,0.192,0.823c-0.195,0.647,0.063,1.161,0.403,1.612
							c0.356,0.438,0.801,0.796,0.966,1.262c0.158,0.151,0.815,0.063,0.448,0.441c0.12,0.554,0.898,0.44,1.507,0.375
							c0.619-0.081,1.084-0.094,0.82,0.666c1.359-0.602,2.295-0.412,3.376-0.182c1.057,0.228,2.28,0.487,3.568,0.01
							c-0.128,0.313,0.212,0.468,0.328,0.706c0.528,0.301,0.672-0.507,1.116-0.372c0.223,0.016,0.444,0.053,0.667,0.084
							c0.3-0.193,0.609-0.366,0.971-0.476l0.141-0.672l0.326,0.067l-0.127-0.026l0.454,0.037c0.354,0.26,0.715,0.479,1.144,0.683
							c0.372-0.022,0.789-0.076,1.206-0.146c0.629-0.111,1.344-0.273,2.022-0.46c0.071,0.265,0.141,0.53,0.224,0.839
							c0.043-0.011,0.13-0.034,0.172-0.045c0.298-0.267,0.603-0.501,0.908-0.729c0.42-0.166,0.823-0.379,1.194-0.57
							c1.839-0.159,2.737,0.452,3.535-0.203c0.226-0.027,0.453-0.029,0.634-0.026c0.371,0.214,0.725,0.472,1.067,0.692
							c0.312,0.08,0.651,0.08,1.016,0.086c0.984-0.003,1.952-0.059,2.654,0.538c0.594,0.018,1.143,0.085,1.744,0.149
							c0.589-0.134,1.18-0.205,1.76-0.345c0.046-0.006,0.135-0.019,0.224-0.031c0.789,0.128,1.638,0.249,2.444,0.329
							c0.519,0.03,1.068-0.017,1.574-0.064c1.684,0.186,2.497-0.226,3.166,0.009c0.802-0.208,1.562-0.405,2.364-0.614
							c0.137,0.486,0.478,1.003,1.077,0.581c0.238-0.169,0.582,0.014,0.559,0.26l1.405-0.622c0.567,0.256,0.35,1.092,1.001,0.841
							l0.829-1.006c0.39-0.132,0.824-0.278,1.258-0.425c0.566-0.044,1.174-0.107,1.785-0.136c0.903-0.032,1.764-0.586,2.614-0.501
							c0.536-0.097,1.113-0.211,1.674-0.368c0.869,0.559,1.661,0.513,1.672-0.369c0.166-0.06,0.292-0.106,0.415-0.151
							c0.616,0.023,1.189,0.059,1.787,0.039c0.566-0.104,1.141-0.223,1.683-0.356c0.474-0.081,0.94-0.16,1.415-0.241
							c0.715,0.239,0.688,0.974,1.248,0.492c1.434-0.374,2.503-0.4,3.708-0.251c0.549,0.47,1.521,0.117,2.079,0.393
							c0.378,0.837,1.464-0.481,1.812,0.451c1.014-0.203,2.224-0.64,2.883,0.092c0.534,0.164-4.263-0.097-3.761,0.297
							c0.331,0.051,0.239,0.502,0.351,0.804c0.19,0.47-0.307,0.509-0.602,0.589c-0.16,0.138-0.448-0.068-0.433-0.31
							c-0.531,0.238-1.929,0.181-0.839,1.124c0.672-0.558,1.074,0.378,1.676,0.025c0.231-0.158,0.588-0.112,0.6,0.263
							c0.189,0.47,0.384,0.986,0.53,1.473c0.228,0.087,0.486,0.185,0.714,0.272c0.414,0.38,0.827,0.76,1.199,1.102
							C84.015,83.247,83.889,83.935,83.091,83.915z"/>
					</g>
					<g>
						<path class="st3" d="M58.811,76.33c-0.413,0.334-0.856,0.724-1.259,1.104l-0.388,0.131c-0.472,0.019-0.959,0.011-1.404-0.039
							c-0.477-0.003-0.912-0.006-1.387-0.009c-0.336,0.151-0.658,0.347-0.984,0.541c-0.802,0.208-1.562,0.406-2.364,0.614
							c-0.144-0.388-0.309-0.676-0.484-1.008c-0.317-0.347-0.742,0.013-1.162-0.193c-0.65-0.01-1.296-0.018-1.989-0.066
							c-1.093,0.083-2.866-0.272-3.548,0.993c-0.089,0.012-0.179,0.025-0.224,0.031c-0.261-0.334-0.518-0.668-0.769-1.031
							c-0.584-0.111-1.001,0.231-1.438,0.526c-0.356,0.078-0.719,0.157-1.073,0.234c-0.32-0.388-0.586-0.852-0.837-1.282
							c-0.429-0.02-0.86-0.04-1.248-0.059c-0.247-0.027-0.474-0.039-0.656-0.037c-0.533-0.001-1.087,0.059-1.425,0.148
							c-0.357,0.081-0.61,0.252-0.795,0.382c-0.181-0.002-0.408,0-0.634,0.026c-1.649-0.292-2.034-1.374-2.93-1.085l-0.248-1.07
							c0.481-0.735,1.431-0.689,2.209-0.833c0.658,0.325,1.299,0.359,1.972,0.33c0.335-0.015,0.677-0.031,1.024-0.046
							c0.034-0.008,0.326-0.007,0.4-0.009l0.219-0.022c0.146-0.013,0.292-0.023,0.437-0.027c0.449-0.024,0.885,0.023,1.313,0.273
							c0.037,0.093,0.113,0.188,0.192,0.236c0.513,0.133,1.012,0.149,1.555,0.209c0.233,0.858,0.459,1.077,0.685,1.295
							c0.394,0.119,0.549-0.256,0.999-0.505c-0.021-0.275-0.046-0.594-0.067-0.868c0.569-0.138,1.137-0.405,1.732-0.653l0.37-0.049
							l0.616-0.08c0.041-0.005,0.124-0.016,0.206-0.027c0.384,0.326,0.738,0.642,1.18,0.917c0.768,0.075,1.576,0.153,2.341,0.227
							c0.353-0.016,0.712-0.021,1.074-0.021c1.231,0.796,2.633,0.918,4.055,0.213c0.967,0.271,2.199,0.399,2.988,0.214
							C57.581,76.359,58.414,75.305,58.811,76.33z"/>
					</g>
					<g>
						<path class="st1" d="M47.858,78.663c-0.506,0.047-1.055,0.094-1.574,0.064c-0.806-0.08-1.654-0.201-2.444-0.329
							c0.682-1.265,2.455-0.91,3.548-0.993c0.694,0.048,1.34,0.056,1.989,0.066c0.42,0.207,0.845-0.154,1.162,0.193
							c0.175,0.332,0.34,0.62,0.484,1.008C50.355,78.438,49.541,78.849,47.858,78.663z"/>
					</g>
					<g>
						<path class="st1" d="M41.662,68.195c-0.098,0.004-0.197,0.009-0.327,0.014c-0.892-0.368-1.163-0.332-1.393-0.335l0.008-0.686
							c0.724-0.399,1.281-0.673,1.639-0.273C41.621,67.463,41.641,67.828,41.662,68.195z"/>
					</g>
					<g>
						<path class="st1" d="M40.444,70.689c-0.33,0.026-0.567,0.028-0.823,0.014c-0.128-0.142-0.221-0.282-0.311-0.422
							c-0.193-0.006-0.418-0.013-0.611-0.019c-0.134-0.17-0.261-0.335-0.372-0.496c-0.196-0.202-0.387-0.398-0.575-0.591
							c-0.091-0.032-0.234-0.069-0.35-0.101c-0.107-0.04-0.291-0.055-0.293-0.08l-0.244-0.151l-0.493-0.299
							c0.068-0.223,0.208-0.443,0.282-0.622l0.42-0.038c0.079,0.005,0.085-0.029,0.369-0.015c0.194,0.004,0.528,0.032,0.488,0.017
							c0.165-0.025,0.33-0.044,0.492-0.052l0.099,0.064c0.318,0.267,0.649,0.569,0.999,0.835c0.151-0.079,0.265-0.139,0.415-0.219
							c0.081,0.097,0.183,0.134,0.318,0.216C40.426,69.546,40.438,70.094,40.444,70.689z"/>
					</g>
					<g>
						<path class="st1" d="M34.741,77.335c-0.798,0.655-1.696,0.044-3.535,0.203c-0.371,0.191-0.774,0.404-1.194,0.57
							c-0.306,0.228-0.61,0.462-0.908,0.729c-0.042,0.011-0.129,0.034-0.172,0.045c-0.082-0.309-0.153-0.574-0.224-0.839
							c-0.678,0.187-1.392,0.349-2.022,0.46c-0.417,0.071-0.834,0.124-1.206,0.146c-0.429-0.204-0.79-0.423-1.144-0.683
							c0.221-0.479,0.409-0.987,0.537-1.495c0.241-0.085,0.491-0.196,0.745-0.27c1.376-0.092,3.022-0.525,4.97-0.965
							c0.305-0.019,0.669-0.041,0.975-0.059l0.248,1.07C32.707,75.961,33.092,77.043,34.741,77.335z"/>
					</g>
					<g>
						<path class="st1" d="M23.542,78.562c-0.362,0.11-0.671,0.283-0.971,0.476c-0.223-0.031-0.444-0.067-0.667-0.084
							c-0.444-0.135-0.588,0.673-1.116,0.372c-0.116-0.238-0.457-0.392-0.328-0.706c-1.288,0.476-2.51,0.218-3.568-0.01
							c-1.081-0.23-2.017-0.421-3.376,0.182c0.264-0.76-0.201-0.746-0.82-0.666c-0.609,0.066-1.387,0.179-1.507-0.375
							c0.367-0.377-0.291-0.29-0.448-0.441c-0.165-0.466-0.61-0.824-0.966-1.262c-0.34-0.451-0.597-0.965-0.403-1.612
							c0.377-0.306-0.127-0.573-0.192-0.823C7.735,73.925,9.134,72.221,9,71.272l-0.089-0.328c-0.105-0.36-0.181-0.729-0.249-1.061
							c0.029-0.346,0.063-0.687,0.067-1.003c-0.557-0.147-1.157-0.343-1.04-1.091c0.736-0.663,0.638-1.149,0.461-1.704
							c-0.178-0.544-0.43-1.173-0.007-1.807c-0.396-1.249,1.806-2.883-0.206-4.073c0.138-0.722-0.37-1.715,0.396-2.197
							c-0.074-0.37,0.003-0.821-0.004-1.244c-0.011-0.444-0.101-0.803-0.502-0.988c0.838-0.54-0.01-1.685,0.497-2.377
							c0.42,0.109,0.113-0.404,0.191-0.629c-0.429-0.375-0.669-0.629-1.363-0.773c-0.02-0.444-0.038-0.842-0.057-1.285
							c0.067-0.581,0.082-1.114,0.157-1.694C7.013,48.76,6.71,47.88,7.445,47.946C7.43,47.458,7.5,46.836,6.73,47.08
							c-0.279-0.126-0.196-0.395-0.248-0.617c1.496-2.128,0.527-5.121-0.138-7.485c-0.068-1.114-0.14-2.275-0.211-3.433
							c0-0.045-0.001-0.134-0.002-0.224c-0.964-0.62,0.034-2.099-1.114-2.764c-0.003-0.581-0.006-1.118-0.009-1.698
							c0-0.178,0-0.312-0.001-0.445c-0.317-0.357,0.494-7.641,0.159-7.996c0.576-1.485-1.133-1.855-0.238-2.987
							c0.28,0.123,0.598,0.262,0.879,0.385c0.306,0.658,0.602,1.296,0.908,1.954c0.138-0.002,0.274-0.003,0.459-0.005
							c0.287,0.346,0.593,0.717,0.881,1.063c0.06,0.274-0.936,7.537-0.849,7.799l0.01,2.144c1.511-0.097-0.222,1.117,0.652,1.916
							c0.092,0,0.138,0,0.229-0.001c0,0.089,0,0.134,0.001,0.223c-0.137,0.268-0.271,0.582-0.452,0.85
							c0.229,0.222,0.461,0.443,0.691,0.62l0.024,2.804c0.831,0.525,0.614,1.458,0.67,2.123c0.093,0.132,0.141,0.264,0.234,0.396
							c-0.132,0.311-0.268,0.58-0.444,0.893c0.104,0.574,0.204,1.103,0.264,1.677c0.868-0.062,0.113,0.971,0.669,1.267
							c0.007,0.264,0.015,0.572,0.021,0.837c0.019,0.572,0.037,1.144,0.055,1.671c-0.133,0.311-0.25,0.584-0.383,0.894l-0.687,0.025
							c-0.242,0.937,0.592,0.99,0.528,1.653c0.092-0.004,0.137-0.006,0.228-0.009c0.144,0.261,0.306,0.555,0.45,0.814
							c-0.123,0.314-0.248,0.583-0.373,0.853l0.097,1.71c-0.323,0.723,0.649,0.885,0.728,1.405c0.024,0.421,0.043,0.75,0.064,1.123
							c0.005,0.106,0.011,0.212,0.013,0.263c-0.104,0.819-0.232,1.584-0.363,2.332c0,0.502,0,1.05,0,1.552l-0.001,0.403
							c0.002,0.584,0.005,1.206,0.007,1.753c0.278,0.239,0.189,0.437,0.193,0.633c-0.178,0.284-0.404,0.551-0.622,0.902
							c-0.029,0.483-0.104,0.982-0.162,1.526c0.368-0.08,0.737-0.127,1.106-0.183c-0.016,0.455-0.066,0.93-0.102,1.446
							c-0.1,0.347-0.194,0.732-0.274,1.128c0.063,0.391,0.148,0.811,0.25,1.227c0.134,0.509,0.276,1.017,0.486,1.501
							c-0.127,0.1-0.254,0.2-0.424,0.333c0.028,0.731,0.147,1.405,0.348,2.105c0.023,0.028,0.068,0.083,0.114,0.139
							c0.272,0.332,0.622,0.647,1.015,0.899c0.229,0.28,0.493,0.468,0.772,0.674c0.455,0.332,0.962,0.543,1.454,0.795
							c0.337,0.04,0.713,0.063,1.091,0.083c0.427,0.062,0.881,0.159,1.358,0.202c0.381,0.089,0.773,0.174,1.222,0.21
							c0.628,0.08,1.315,0.112,1.961,0.212l0.936,0.022c0.262,0.247,0.451,0.478,0.774,0.692c0.665,0.156,1.329,0.318,2.049,0.526
							L23.542,78.562z"/>
					</g>
					<g>
						<path class="st4" d="M11.014,70.998c-0.21-0.484-0.352-0.993-0.486-1.501c-0.102-0.416-0.186-0.837-0.25-1.227
							c0.08-0.396,0.174-0.782,0.274-1.128c0.036-0.517,0.086-0.991,0.102-1.446c0.174-0.179,0.306-0.315,0.437-0.449
							c0.107-0.525,0.227-1.035,0.35-1.529c-0.371-0.085-0.693-0.192-1.109-0.267c-0.048-0.123-0.14-0.21-0.189-0.304
							c-0.001-0.099-0.003-0.198-0.004-0.329c0.366-0.128,0.731-0.248,1.096-0.357c0.043-0.233,0.136-0.504,0.18-0.769
							c-0.415-0.14-0.871-0.418-1.282-0.626l0.001-0.403c0.872-0.81,0.87-1.188,0.868-1.558c0.045-0.048,0.137-0.144,0.228-0.239
							c-0.24-0.682-0.479-1.363-0.733-2.088c-0.003-0.052-0.008-0.157-0.013-0.263c-0.021-0.374-0.04-0.703-0.064-1.123
							c0.198-0.409,0.413-0.853,0.611-1.263c-0.044-0.785-0.085-1.525-0.129-2.309c0.18-1.101-0.512-1.202-0.534-1.683l-0.017-0.394
							c0.056-0.574,0.112-1.142,0.168-1.717c0.032-0.397,0.109-0.837,0.189-1.235c-0.326-0.167-0.605-0.291-0.931-0.414
							c-0.007-0.265-0.015-0.573-0.021-0.837c0.882-1.564-0.456-1.979,0.859-2.576l-0.008-0.396
							c-0.464-0.302-0.924-0.561-1.34-0.864c0.407-0.407,0.858-0.854,1.31-1.257c-0.005-0.311-0.009-0.575-0.014-0.886
							c-0.096-0.396-0.191-0.839-0.239-1.238c-0.002-0.179-0.003-0.311-0.004-0.444c-0.829-0.616-0.969-0.926-1.111-1.503
							c-0.092,0.001-0.138,0.001-0.231,0.003c-0.289-0.482-0.59-0.984-0.879-1.466c0-0.089,0-0.134-0.001-0.223
							c0.272-0.493,0.731-0.272,1.095-0.63c1.011,0.798,0.512,1.692,0.425,2.136c0.319,0.137,0.6,0.257,0.92,0.394
							c0.597,0.173,1.146,0.303,1.743,0.432l1.107,1.053c0,0.044,0.001,0.133,0.002,0.221c-0.129,1.199-0.245,2.381-0.412,3.574
							c0.015,0.789,0.029,1.534,0.044,2.322c-0.05,0.568-0.1,1.142-0.146,1.666c0.045-0.001,0.137-0.003,0.183-0.004
							c0.006,0.174,0.01,0.304,0.014,0.434c0.014,0.436,0.026,0.826,0.04,1.262c0.126,1.261,0.269,2.467,0.377,3.714
							c-0.015,0.693-0.078,1.388-0.123,2.082l-0.285,2.095c-0.059,0.156-0.119,0.3-0.185,0.44c-0.066,0.143-0.136,0.345-0.218,0.511
							c0.258,0.559,0.5,1.062,0.736,1.512c-0.167,0.355-0.306,0.65-0.445,0.945l0.118,1.684c0.033,0.533,0.066,1.148,0.117,1.423
							c-0.137,0.002-0.275,0.005-0.458,0.008c-0.138,0.286-0.27,0.444-0.406,0.682c-0.087,0.251-0.177,0.455-0.217,0.683
							c0.232,0.078,0.418,0.129,0.65,0.17c-0.034,0.422-0.107,0.859-0.172,1.307l0.049,0.631c-0.109,0.39-0.211,0.766-0.298,1.18
							c0.037,0.296,0.043,0.593,0.345,0.661c0.2,0.266,0.403,0.519,0.626,0.752c-0.418,0.545,0.198,0.491,0.267,0.796
							c-0.177,1.055,0.125,1.086,0.293,1.16c-0.017,0.262-0.048,0.509-0.037,0.769c-0.446,0.757-0.826,1.465-1.119,2.23
							C11.951,72.485,11.393,71.781,11.014,70.998z"/>
					</g>
					<g>
						<path class="st1" d="M12.122,63.326c0.039-0.228,0.13-0.431,0.217-0.683c0.135-0.238,0.268-0.396,0.406-0.682
							c0.183-0.003,0.32-0.006,0.458-0.008c0.596,0.421,1.062,0.574,0.888,1.009c-0.314,0.228-0.869,0.154-1.318,0.533
							C12.539,63.456,12.353,63.404,12.122,63.326z"/>
					</g>
					<g>
						<path class="st5" d="M15.6,39.725c-0.139-0.217-0.279-0.391-0.465-0.609c-0.552-0.259-1.151-0.563-1.747-0.824
							c-0.001-0.088-0.002-0.177-0.002-0.221l-1.107-1.053c-0.597-0.129-1.146-0.259-1.743-0.432
							c-0.32-0.137-0.601-0.257-0.92-0.394c0.087-0.444,0.586-1.338-0.425-2.136c0.727-1.074,0.586-1.787-0.008-1.517
							c-0.781-0.441-0.007-1.385-0.88-1.917c-0.085-0.572,0.902-8.116,0.841-8.707c-0.138-0.133-0.279-0.266-0.464-0.399
							c-0.14-0.132-0.281-0.266-0.421-0.443c-0.198-0.761-0.352-1.568-0.504-2.373l-0.008-0.404c0.502-0.012,1.05-0.025,1.556-0.036
							c0.587-0.285,1.126-0.616,1.714-0.906c-0.143-0.179-0.284-0.311-0.471-0.441c0.172-0.369,0.3-0.737,0.426-1.105
							c-0.007-0.227-0.014-0.455-0.02-0.636c0.084-0.321,0.117-0.597,0.195-0.92c-0.708-0.477-1.368-0.951-2.03-1.422
							c0.133-0.097,0.269-0.148,0.402-0.245c0.08-0.277,0.159-0.599,0.193-0.874c0.642,0.016,1.331,0.074,1.976,0.136
							c0.307-0.336,0.572-0.624,0.825-0.961c0.218,0.591,0.373,1.18,0.537,1.773c0.365-0.093,0.722-0.185,1.089-0.278
							c0.449-0.206-0.042-0.971,0.603-0.91c0.56,0.206,1.069,0.369,1.583,0.579c-1.042-0.973-0.165-2.292,0.755-2.297
							c0.109,0.325,0.218,0.604,0.278,0.885c0.95,0.477,0.481,1.576,0.962,2.026c0.501-0.069-0.049,1.037,1.592,0.831
							c-0.213,0.434-0.417,0.917-0.634,1.393l0.034,1.12c0.032,1.121,0.272,1.535,0.515,1.997c-0.033,0.515-0.117,1.022-0.198,1.534
							c-0.085,1.344-1.299,9.639-1.439,10.815c-0.459,0.002-0.916,0.005-1.328,0.007c-0.456,0.27-0.867,0.586-1.324,0.857
							c0.001,0.179,0.002,0.313,0.003,0.447c0.508,0.807,0.283,1.469,0.652,2.137l1.788,0.391l-0.676,1.733
							c0,0.045,0.001,0.132,0.001,0.221c0.003,0.395,0.006,0.837,0.009,1.232c-0.403,0.795-0.859,1.599-1.258,2.343
							C15.738,39.724,15.692,39.724,15.6,39.725z"/>
					</g>
					<g>
						<path class="st1" d="M18.248,39.087c-0.314-0.576-0.617-1.133-0.931-1.71c-0.003-0.395-0.006-0.836-0.009-1.232
							c0.687,0.13,1.33,0.252,2.018,0.383c0.007,0.835,0.015,1.713,0.022,2.548L18.248,39.087z"/>
					</g>
					<g>
						<path class="st1" d="M4.413,17.082l-0.032-1.07c-1.098,0.035-0.543-1.36-0.717-2.11c0.36-0.146,0.72-0.294,1.079-0.487
							c0.041-0.135,0.126-0.273,0.167-0.408c0.073-0.45,0.146-0.855,0.174-1.303c0.167-0.366,0.281-0.729,0.399-1.095
							c0.342-0.297,0.704-0.613,1.047-0.91c-1.48-1.932,0.257-2.45,1.193-2.244c0.184-0.013,0.41-0.028,0.64-0.044
							C8.528,7.766,8.688,8.12,8.89,8.47l0.023,0.409C8.421,9.13,7.892,9.399,7.4,9.65c0.002,0.045,0.007,0.135,0.012,0.226
							c0.032,0.586,0.062,1.126,0.094,1.712c-0.496,0.16-0.993,0.318-1.536,0.523c0.007,0.179,0.017,0.403,0.026,0.626
							c-0.341,0.597-0.086,1.213-0.11,1.708c0.004,0.089,0.008,0.177,0.009,0.223c0.149,0.488,0.31,1.019,0.459,1.509L5.29,17.281
							C5.012,17.199,4.69,17.163,4.413,17.082z"/>
					</g>
					<g>
						<path class="st4" d="M19.912,13.493c-1.641,0.206-1.091-0.9-1.592-0.831c-0.481-0.451-0.012-1.55-0.962-2.026
							c-0.061-0.281-0.169-0.56-0.278-0.885c-0.92,0.005-1.796,1.323-0.755,2.297c-0.514-0.21-1.023-0.373-1.583-0.579
							c-0.171,0.287-0.386,0.622-0.603,0.91c-0.415-0.028-0.729,0.125-1.089,0.278c-0.164-0.593-0.319-1.182-0.537-1.773
							c-0.254,0.337-0.518,0.625-0.825,0.961c-0.644-0.062-1.333-0.121-1.976-0.136c-0.034,0.276-0.113,0.597-0.193,0.874
							c-0.133,0.097-0.269,0.148-0.402,0.245c-0.091,0.004-0.183,0.008-0.228,0.01c-0.091,0.004-0.139,0.006-0.229,0.009
							c-0.364,0.231-0.707,0.448-1.071,0.678c-0.608-0.191-1.159-0.365-1.765-0.556c0.043-0.092,0.132-0.141,0.173-0.232
							c-0.009-0.223-0.019-0.448-0.026-0.626c0.542-0.205,1.04-0.363,1.536-0.523c-0.032-0.586-0.062-1.127-0.094-1.712
							c0.603,0.147,1.211,0.341,1.772,0.538C9.159,9.96,9.135,9.55,9.109,9.095c0.409-0.069,0.724-0.18,1.084-0.293
							c0.083-0.143,0.167-0.287,0.204-0.426c-0.144-0.129-0.29-0.258-0.436-0.43C9.606,8.152,9.248,8.311,8.89,8.47
							C8.688,8.12,8.528,7.766,8.362,7.412C8.83,6.923,9.377,6.883,9.88,6.847c0.045-0.003,0.136-0.009,0.183-0.012
							c0.516-0.451,0.985-0.949,1.453-1.451c0.307,0.441,0.662,0.88,0.967,1.278c0.251,0.824,0.433,1.602,0.615,2.427
							c0.28,0.076,0.602,0.104,0.883,0.181c0.248,0.358,0.498,0.717,0.702,1.082c0.642-0.784,0.625-1.113,0.609-1.394
							c0.39-0.399,0.825-0.803,1.26-1.208c-0.009-0.142-0.018-0.284-0.031-0.473c0.155-0.392,0.358-0.741,0.555-1.185
							c0.389-0.937,1.298-1.06,2.123-1.076c0.357,1.085,0.796,1.444,0.793,2.027c-0.163,0.255-0.379,0.508-0.594,0.762
							c0.126,0.856,0.245,1.659,0.371,2.515c-0.059,0.532-0.083,1.054-0.153,1.578c0.228-0.01,0.457-0.021,0.639-0.029
							c0.112,0.469,0.221,0.892,0.285,1.364C20.314,13.326,20.14,13.398,19.912,13.493z"/>
					</g>
					<g>
						<path class="st1" d="M14.33,7.423c-0.105-0.182-0.215-0.408-0.277-0.639c-0.285-0.121-0.614-0.238-0.903-0.405
							c0.017-0.376,0.085-0.709,0.1-1.132c0.327,0.068,0.607,0.14,0.93,0.162c0.667-0.902,1.446-0.304,1.945-0.391
							c0.306,0.405,0.872,0.601,0.952,1.073c-0.197,0.445-0.4,0.794-0.555,1.185L14.33,7.423z"/>
					</g>
					<g>
						<path class="st1" d="M19.434,2.992c-0.639-1.416-1.31-2.66-0.515-2.992c0.302,0.264,0.653,0.571,0.955,0.835
							C19.943,1.566,20.113,2.391,19.434,2.992z"/>
					</g>
					<g>
						<path class="st2" d="M59.584,69.508c-0.413,0.149-0.786,0.284-1.2,0.433c-0.49,0.472-1.133,1.258-1.434,0.251
							c-0.339,0.212-0.598,0.397-0.913,0.552c-0.145-0.433-0.816-0.399-0.958-0.836c0.128-1.251,1.626-0.696,1.8-1.771
							c0.652,0.075,1.386,0.139,2.052,0.195c0.268,0.1,0.314,0.229,0.36,0.357C59.385,68.948,59.492,69.251,59.584,69.508z"/>
					</g>
					<g>
						<path class="st2" d="M52.254,70.363c-0.848,0.42-1.457,0.652-2.266,0.82c-0.006,0.475-0.014,0.95-0.035,1.381
							c-0.995,0.556-1.524-0.031-2.178-0.609c-0.064-0.518,0.273-0.77,1.054-1.367l0.321-1.221c0.193-0.05,0.349-0.091,0.54-0.14
							c0.254,0.027,0.536,0.001,0.793,0.027C51.039,69.641,51.658,69.975,52.254,70.363z"/>
					</g>
					<g>
						<path class="st2" d="M45.221,74.432l-0.616,0.08l-0.37,0.049c-0.595,0.248-1.164,0.515-1.732,0.653
							c-0.09-0.089-0.176-0.13-0.223-0.219c-0.447,0.112-0.94,0.181-1.394,0.297c-0.544-0.061-1.042-0.076-1.555-0.209
							c-0.079-0.004-0.16-0.007-0.2-0.009c0.002-0.044,0.005-0.136,0.008-0.227c0.141-0.633,0.282-1.264,0.435-1.949
							c-0.453-0.888-0.413-1.889,0.048-2.194c0.256,0.015,0.493,0.013,0.823-0.014c0.511,0.382,1.084,0.078,1.554,0.147
							c0.19,0.132,0.346,0.26,0.544,0.435c0.023,0.275,0.046,0.547,0.073,0.867c0.229,0.037,0.511,0.075,0.752,0.139
							c0.587-0.015,1.141-0.03,1.729-0.045C45.128,72.967,45.155,73.703,45.221,74.432z"/>
					</g>
					<g>
						<path class="st2" d="M41.355,68.669l-1.102,0.063c-0.135-0.081-0.236-0.119-0.318-0.216c-0.151,0.079-0.265,0.139-0.415,0.219
							c-0.35-0.266-0.681-0.568-0.999-0.835l-0.099-0.064c0.051-0.081,0.099-0.159,0.131-0.237c0.102-0.215,0.179-0.414,0.254-0.613
							c0.371,0.066,0.771,0.137,1.143,0.203l-0.008,0.686c0.23,0.004,0.501-0.032,1.393,0.335
							C41.343,68.393,41.349,68.531,41.355,68.669z"/>
					</g>
					<g>
						<path class="st2" d="M38.699,70.262c-0.163,0.082-0.31,0.146-0.444,0.189c-0.161,0.032-0.308,0.047-0.446,0.043
							c-0.069-0.002-0.137-0.009-0.202-0.02c-0.243-0.042-0.621-0.062-0.639-0.082c-0.396-0.093-0.784-0.291-1.248-0.547
							c0.185-0.465,0.38-0.858,0.652-1.301l0.493,0.299l0.244,0.151c0.002,0.025,0.187,0.04,0.293,0.08
							c0.116,0.032,0.259,0.069,0.35,0.101c0.188,0.193,0.379,0.389,0.575,0.591C38.438,69.927,38.565,70.092,38.699,70.262z"/>
					</g>
					<g>
						<path class="st2" d="M24.873,76.473c-0.274,0.02-0.507-0.031-0.762-0.036l0.264,0.053l-0.386-0.08
							c-0.185-0.225-0.323-0.393-0.462-0.56c0.172-0.34,0.292-0.689,0.476-1.025c0.264,0.01,0.526,0.019,0.781,0.029l-0.417-0.084
							c0.494-0.217,0.941-0.581,1.128,0.113c0.042,0.456,0.081,0.866,0.123,1.321C25.363,76.277,25.114,76.388,24.873,76.473z"/>
					</g>
					<g>
						<path class="st3" d="M24.336,77.968l-0.454-0.037l0.127,0.026l-0.326-0.067c-0.72-0.208-1.384-0.37-2.049-0.526
							c-0.322-0.214-0.512-0.445-0.774-0.692l-0.936-0.022c-0.646-0.1-1.333-0.133-1.961-0.212c-0.449-0.037-0.84-0.122-1.222-0.21
							c-0.477-0.043-0.931-0.14-1.358-0.202c-0.378-0.02-0.754-0.043-1.091-0.083c-0.491-0.252-0.998-0.463-1.454-0.795
							c-0.279-0.206-0.543-0.393-0.772-0.674c-0.393-0.252-0.743-0.567-1.015-0.899c-0.046-0.056-0.091-0.111-0.114-0.139
							c-0.201-0.7-0.32-1.374-0.348-2.105c0.17-0.134,0.297-0.233,0.424-0.333c0.378,0.783,0.936,1.488,1.711,1.983
							c0.174-1.101,0.806-1.67,1.119-2.23c0.384,0.455,0.878,0.833,1.477,1.032c0.033,0.46,0.644,0.323,0.483,1.073
							c0.326,0.144,0.664,0.26,1.035,0.323c0.336,0.241,0.761,0.471,1.183,0.69c0.364,0.041,0.751,0.121,1.157,0.159
							c0.29,0.445,0.594,0.893,0.98,1.305c0.436-0.222,0.862-0.396,1.284-0.6c0.022,0.139,0.082,0.28,0.142,0.422
							c0.594,0.227,1.275,0.445,1.942,0.694c0.138,0.168,0.276,0.336,0.462,0.56l0.386,0.08l-0.264-0.053
							c0.254,0.005,0.488,0.056,0.762,0.036C24.744,76.98,24.556,77.489,24.336,77.968z"/>
					</g>
					<g>
						<path class="st2" d="M21.443,74.734c-0.422,0.203-0.848,0.378-1.284,0.6c-0.387-0.412-0.69-0.86-0.98-1.305
							c1.102,0.113,1.969-0.645,2.286,0.478C21.461,74.553,21.452,74.643,21.443,74.734z"/>
					</g>
					<g>
						<path class="st2" d="M21.183,68.175c-0.105,0.362-0.229,0.726-0.361,1.089l-0.648,0.021c-0.243,0.142-0.477,0.283-0.743,0.423
							c-0.242-0.086-0.921,0.316-0.466-0.636c0.209-0.358,0.422-0.722,0.631-1.08c0.292-0.088,0.537-0.137,0.808-0.235
							c0.285-0.368,0.557-0.737,0.787-1.104l0.493-0.023c0.017,0.27,0.043,0.584,0.017,1.309
							C21.536,67.986,21.373,68.078,21.183,68.175z"/>
					</g>
					<g>
						<path class="st2" d="M18.084,66.416c-0.376-0.04-0.774,0.214-0.844,0.093c-0.041-0.084-0.094-0.18-0.128-0.268
							c-0.801-0.025-1.057-0.315-0.282-0.863c0.494-0.256,0.987-0.521,1.477-0.803c0.197-0.039,0.35-0.048,0.501-0.075
							c-0.231,0.272-0.492,0.596-0.704,0.897c0.373-0.187,0.744-0.381,1.108-0.603c-0.021,0.191,0.307,0.087-0.18,0.702
							L18.084,66.416z"/>
					</g>
					<g>
						<path class="st2" d="M12.648,65.434c0.42-0.014,0.749-0.012,1.124-0.061c0.043,0.442-0.244,1.072-1.076,1.902
							c-0.303-0.068-0.309-0.365-0.345-0.661C12.437,66.2,12.539,65.824,12.648,65.434z"/>
					</g>
					<g>
						<path class="st2" d="M12.676,56.389c0.083-0.165,0.153-0.368,0.218-0.511c0.066-0.14,0.126-0.284,0.185-0.44
							c0.219,0.208,0.399,0.347,0.537,0.606c0.138,0.252,0.232,0.509,0.27,0.739c0.072,0.44-0.065,0.839-0.474,1.118
							C13.176,57.452,12.934,56.948,12.676,56.389z"/>
					</g>
					<g>
						<path class="st2" d="M13.365,53.343c0.045-0.694,0.108-1.389,0.123-2.082c0.657,0.317,1.072,0.425,0.905,0.777
							C14.647,52.629,14.167,52.953,13.365,53.343z"/>
					</g>
					<g>
						<path class="st2" d="M12.874,45.855c0.046-0.524,0.096-1.098,0.146-1.666c0.415,0.079,0.735,0.116,1.104,0.195
							c-0.311,0.444,0.166,1.348-1.066,1.467C13.011,45.852,12.92,45.854,12.874,45.855z"/>
					</g>
					<g>
						<path class="st2" d="M13.388,38.293c0.596,0.261,1.195,0.565,1.747,0.824c0.186,0.218,0.326,0.392,0.465,0.609
							c-0.578,1.145-1.635,0.897-1.525,2.124c-0.368,0.006-0.688,0.011-1.099,0.017C13.143,40.673,13.259,39.491,13.388,38.293z"/>
					</g>
					<g>
						<path class="st2" d="M18.248,39.087l1.099-0.01c0.067,0.475,0.135,0.956,0.202,1.432c-0.551-0.123-1.597,0.412-1.745-0.371
							C17.936,39.787,18.068,39.438,18.248,39.087z"/>
					</g>
					<g>
						<path class="st3" d="M66.143,66.888c-0.65,0.331-1.306,0.664-1.966,0.951c-0.507-0.741-1.499,0.45-2.233,0.133
							c-0.901-0.106-2.019,0.537-2.653,0.717c-0.129-0.099-0.217-0.215-0.36-0.357c-0.666-0.057-1.4-0.12-2.052-0.195
							c0.476-0.468,0.994-0.976,1.47-1.444c-0.031-0.086-0.046-0.129-0.077-0.215c0.821-0.686,1.564-1.292,1.969-0.71
							c1.803-0.513,3.537-0.711,5.393-0.304l1.677-0.598c0.842,0.439,2.477-0.361,3.055,0.798
							C70.277,67.253,68.117,66.358,66.143,66.888z"/>
					</g>
					<g>
						<path class="st3" d="M60.801,76.807c-0.449,0.214-0.899,0.456-1.359,0.663c-0.221-0.361-0.454-0.765-0.631-1.14
							c0.043-0.014,0.129-0.044,0.215-0.073l1.546-0.099L60.801,76.807z"/>
					</g>
					<g>
						<path class="st3" d="M43.221,69.158c0.252,0.335,0.277,0.839,0.328,1.294c-0.341,0.272-0.657,0.565-1.008,0.82
							c-0.198-0.175-0.354-0.304-0.544-0.435l-1.406,0.073c-0.039-0.089-0.11-0.131-0.148-0.22c-0.006-0.595-0.017-1.144-0.19-1.958
							l1.102-0.063c-0.006-0.138-0.012-0.275-0.021-0.459c0.13-0.006,0.229-0.01,0.327-0.014c-0.021-0.367-0.042-0.732-0.073-1.28
							c0.414,0.119,0.797,0.256,1.253,0.311c0.028,0.273,0.061,0.591,0.089,0.865C43.037,68.445,43.146,68.797,43.221,69.158z"/>
					</g>
					<g>
						<path class="st3" d="M10.279,68.269c0.08-0.396,0.174-0.782,0.274-1.128C10.453,67.487,10.359,67.873,10.279,68.269z"/>
					</g>
					<g>
						<path class="st3" d="M9.548,65.877c0.058-0.544,0.132-1.043,0.162-1.526c0.218-0.351,0.445-0.618,0.622-0.902
							c0.416,0.075,0.739,0.182,1.109,0.267c-0.123,0.494-0.243,1.004-0.35,1.529c-0.131,0.134-0.263,0.27-0.437,0.449
							C10.285,65.749,9.916,65.797,9.548,65.877z"/>
					</g>
					<g>
						<path class="st3" d="M10.132,61.064c0.412,0.208,0.867,0.486,1.282,0.626c-0.044,0.266-0.136,0.536-0.18,0.769
							c-0.365,0.11-0.73,0.23-1.096,0.357C10.137,62.27,10.134,61.648,10.132,61.064z"/>
					</g>
					<g>
						<path class="st3" d="M10.132,59.108c0.131-0.748,0.258-1.513,0.363-2.332c0.255,0.725,0.494,1.406,0.733,2.088
							c-0.543,0.625,0.185,1.757-1.096,1.797C10.133,60.158,10.133,59.61,10.132,59.108z"/>
					</g>
					<g>
						<path class="st3" d="M10.417,55.389c-0.079-0.521-1.051-0.682-0.728-1.405l-0.097-1.71c0.125-0.27,0.249-0.539,0.373-0.853
							c-0.143-0.259-0.306-0.553-0.45-0.814c-0.092,0.004-0.137,0.006-0.228,0.009c0.064-0.662-0.77-0.716-0.528-1.653l0.687-0.025
							c0.133-0.31,0.25-0.583,0.383-0.894c-0.017-0.527-0.036-1.099-0.055-1.671c0.325,0.123,0.604,0.248,0.931,0.414
							c-0.081,0.397-0.157,0.838-0.189,1.235c-0.056,0.575-0.112,1.143-0.168,1.717l0.017,0.394
							c0.023,0.481,0.714,0.582,0.534,1.683c0.044,0.785,0.085,1.525,0.129,2.309C10.83,54.537,10.615,54.981,10.417,55.389z"/>
					</g>
					<g>
						<path class="st3" d="M8.82,42.594c0.176-0.313,0.311-0.582,0.444-0.893c0.416,0.303,0.876,0.562,1.34,0.864l0.008,0.396
							c-1.314,0.597,0.023,1.012-0.859,2.576c-0.556-0.296,0.199-1.329-0.669-1.267C9.024,43.697,8.924,43.168,8.82,42.594z"/>
					</g>
					<g>
						<path class="st3" d="M8.055,22.828c-0.287-0.347-0.594-0.717-0.881-1.063l1.084-0.692c0.141,0.177,0.281,0.311,0.421,0.443
							C8.462,22.195,8.142,22.422,8.055,22.828z"/>
					</g>
					<g>
						<path class="st3" d="M4.929,19.431c0.132-0.447,0.253-0.856,0.385-1.303c0.511,0.211,1.064,0.422,1.571,0.59
							c-0.358,0.411-0.719,0.732-1.077,1.097C5.527,19.693,5.209,19.554,4.929,19.431z"/>
					</g>
					<g>
						<path class="st4" d="M19.828,18.003c-0.244-0.463-0.484-0.876-0.515-1.997l-0.034-1.12c0.216-0.475,0.421-0.959,0.634-1.393
							c0.017,0.425,0.035,0.897,0.054,1.368c0.273-0.009,0.593-0.02,0.869-0.029c-0.033,0.423-0.111,0.896-0.19,1.32
							C20.375,16.763,20.098,17.391,19.828,18.003z"/>
					</g>
					<g>
						<path class="st3" d="M19.966,14.861c-0.018-0.472-0.037-0.943-0.054-1.368c0.228-0.095,0.402-0.167,0.63-0.262
							c0.112,0.516,0.231,1.085,0.293,1.601C20.559,14.841,20.239,14.852,19.966,14.861z"/>
					</g>
					<g>
						<path class="st3" d="M5.824,12.969c0.043-0.092,0.132-0.141,0.173-0.232c0.561,0.244,1.078,0.538,1.592,0.788
							c-0.039,0.181-0.124,0.321-0.211,0.46l-1.491,0.46L5.824,12.969z"/>
					</g>
					<g>
						<path class="st3" d="M19.618,11.896c0.07-0.523,0.093-1.046,0.153-1.578l0.486,1.548
							C20.075,11.875,19.845,11.886,19.618,11.896z"/>
					</g>
					<g>
						<path class="st3" d="M14.683,10.351c-0.204-0.364-0.454-0.724-0.702-1.082c-0.281-0.077-0.603-0.105-0.883-0.181
							c-0.183-0.825-0.364-1.603-0.615-2.427c-0.305-0.398-0.66-0.837-0.967-1.278c0.421-0.497,1.408-0.814,1.734-0.137
							c-0.014,0.424-0.082,0.757-0.1,1.132c0.289,0.166,0.618,0.284,0.903,0.405c0.062,0.232,0.172,0.458,0.277,0.639l2.192-0.147
							c0.012,0.189,0.022,0.331,0.031,0.473c-0.436,0.405-0.871,0.809-1.26,1.208C15.308,9.238,15.325,9.568,14.683,10.351z"/>
					</g>
					<g>
						<path class="st3" d="M7.412,9.875C7.407,9.785,7.402,9.695,7.4,9.65c0.492-0.25,1.021-0.52,1.513-0.771L8.89,8.47
							c0.358-0.159,0.716-0.318,1.071-0.524c0.147,0.172,0.292,0.301,0.436,0.43c-0.036,0.139-0.121,0.283-0.204,0.426
							c-0.36,0.113-0.676,0.223-1.084,0.293C9.135,9.55,9.159,9.96,9.184,10.413C8.623,10.216,8.015,10.022,7.412,9.875z"/>
					</g>
					<g>
						<path class="st3" d="M19.2,5.015c1.126-0.912,2.058-1.34,2.779-0.908l0.087,1.173c-0.222,0.705-0.967,1.201-2.073,1.762
							C19.996,6.459,19.557,6.1,19.2,5.015z"/>
					</g>
					<g>
						<path class="st4" d="M58.349,66.694c-0.476,0.468-0.994,0.976-1.47,1.444c-0.724-0.142-0.534-1.027-1.054-1.237
							c0.917-0.544,1.851-1.719,2.447-0.422C58.303,66.565,58.319,66.607,58.349,66.694z"/>
					</g>
					<g>
						<path class="st3" d="M56.88,68.138c-0.174,1.075-1.672,0.52-1.8,1.771c-0.318-0.278-0.595-0.568-0.908-0.852
							c-0.598,0.184-1.155,0.355-1.713,0.526c-0.144-0.483-0.29-0.965-0.695-1.607c-0.091-0.306-0.169-0.569-0.247-0.833
							c0.776-0.1,1.544-0.179,2.338-0.297c0.017,0.475,0.033,0.908,0.051,1.384c1.156-0.003,1.004-1.018,1.521-1.193
							c0.12-0.041,0.241-0.082,0.4-0.136C56.346,67.111,56.155,67.996,56.88,68.138z"/>
					</g>
					<g>
						<path class="st4" d="M55.426,67.036c-0.517,0.175-0.365,1.19-1.521,1.193c-0.017-0.476-0.033-0.909-0.051-1.384
							C54.366,66.907,54.916,66.974,55.426,67.036z"/>
					</g>
					<g>
						<path class="st4" d="M51.764,67.976c-0.64,0.154-1.179,0.317-1.281,1.28c-0.257-0.027-0.539-0.001-0.793-0.027
							c-0.191,0.05-0.347,0.09-0.54,0.14l-1.176-0.825c-0.356-0.003-0.288,0.622-1.21,0.487c-0.5,0.196-1.129,0.139-1.331-0.379
							c-0.756,0.203-1.467,0.342-2.213,0.506c-0.075-0.36-0.184-0.712-0.29-1.068c-0.028-0.274-0.061-0.592-0.089-0.865l1.655,0.122
							c0.551,0.06,1.16,0.003,1.744,0.013c0.67-0.003,1.294,0.041,2.006-0.025c0.43-0.036,0.892-0.075,1.322-0.111
							c0.626-0.011,1.274-0.055,1.949-0.081C51.596,67.407,51.674,67.67,51.764,67.976z"/>
					</g>
					<g>
						<path class="st4" d="M42.569,76.082c-0.45,0.249-0.606,0.624-0.999,0.505c-0.226-0.218-0.452-0.437-0.685-1.295
							c0.454-0.116,0.948-0.185,1.394-0.297c0.048,0.089,0.134,0.13,0.223,0.219C42.523,75.488,42.548,75.807,42.569,76.082z"/>
					</g>
					<g>
						<path class="st4" d="M16.059,39.72c0.399-0.744,0.854-1.548,1.258-2.343c0.314,0.577,0.617,1.133,0.931,1.71
							c-0.179,0.351-0.312,0.7-0.444,1.051C17.207,40.014,16.656,39.889,16.059,39.72z"/>
					</g>
					<g>
						<path class="st4" d="M16.194,33.8c-0.37-0.667-0.144-1.33-0.652-2.137c-0.001-0.134-0.002-0.268-0.003-0.447
							c0.458-0.271,0.868-0.587,1.324-0.857c0.413-0.002,0.87-0.005,1.328-0.007c0.004,0.85,0.008,1.7,0.013,2.594
							c-0.411,0.268-0.178,0.844-0.221,1.245L16.194,33.8z"/>
					</g>
					<g>
						<path class="st4" d="M7.205,30.627c-0.087-0.262,0.91-7.525,0.849-7.799c0.088-0.406,0.407-0.633,0.625-1.312
							c0.185,0.133,0.326,0.266,0.464,0.399c0.062,0.591-0.925,8.135-0.841,8.707C7.799,30.624,7.48,30.626,7.205,30.627z"/>
					</g>
					<g>
						<path class="st4" d="M6.715,21.77c-0.305-0.657-0.602-1.296-0.908-1.954c0.358-0.365,0.719-0.686,1.077-1.097
							c-0.508-0.168-1.061-0.38-1.571-0.59c-0.007-0.268-0.016-0.58-0.024-0.848l1.065-1.104c-0.149-0.489-0.31-1.02-0.459-1.509
							c-0.002-0.046-0.006-0.134-0.009-0.223l1.491-0.46l0.055,1.483c-0.213,0.239-0.405,0.455-0.619,0.694
							c0.285,0.395,0.619,0.836,0.906,1.278c0.008,0.27,0.018,0.585,0.026,0.855l0.008,0.404c0.152,0.806,0.306,1.612,0.504,2.373
							l-1.084,0.692C6.989,21.767,6.853,21.768,6.715,21.77z"/>
					</g>
					<g>
						<path class="st4" d="M14.38,20.329c-0.937-0.941-0.764-1.762-1.606-2.383c-0.004-0.138-0.008-0.275-0.014-0.457
							c0.31-0.376,0.574-0.703,0.884-1.125c1.322-0.222,0.133,1.466,1.151,1.762l0.008,0.412
							C14.631,19.136,14.505,19.734,14.38,20.329z"/>
					</g>
					<g>
						<path class="st6" d="M9.302,18.258c-0.663-0.708,0.585-0.377,0.38-1.097c-0.28-0.129-0.602-0.256-0.883-0.428L7.72,17.44
							c-0.287-0.443-0.621-0.883-0.906-1.278c0.214-0.24,0.406-0.455,0.619-0.694l-0.055-1.483c0.087-0.139,0.172-0.278,0.211-0.46
							c0.363-0.23,0.707-0.447,1.071-0.678c0.091-0.004,0.138-0.006,0.229-0.009c0.045-0.002,0.137-0.006,0.228-0.01
							c0.133-0.097,0.269-0.148,0.402-0.245c0.528,0.567,1.102,1.137,1.628,1.667c-0.078,0.323-0.112,0.599-0.195,0.92
							c0.006,0.181,0.013,0.409,0.02,0.636c-0.126,0.368-0.254,0.736-0.426,1.105c0.187,0.13,0.329,0.262,0.471,0.441
							C10.428,17.642,9.889,17.973,9.302,18.258z"/>
					</g>
					<g>
						<path class="st7" d="M7.746,18.295c-0.008-0.27-0.018-0.585-0.026-0.855l1.079-0.707c0.281,0.173,0.604,0.3,0.883,0.428
							c0.205,0.72-1.043,0.389-0.38,1.097C8.796,18.27,8.248,18.283,7.746,18.295z"/>
					</g>
					<g>
						<path class="st1" d="M43.841,78.398c-0.089,0.012-0.179,0.025-0.224,0.031c-0.579,0.139-1.17,0.211-1.76,0.345
							c-0.601-0.063-1.15-0.13-1.744-0.149c-0.702-0.597-1.67-0.541-2.654-0.538c-0.364-0.006-0.704-0.006-1.016-0.086
							c-0.342-0.22-0.696-0.478-1.067-0.692c0.184-0.13,0.438-0.301,0.795-0.382c0.338-0.088,0.891-0.148,1.425-0.148
							c0.182-0.001,0.409,0.011,0.656,0.037c0.388,0.018,0.819,0.039,1.248,0.059c0.251,0.43,0.516,0.894,0.837,1.282
							c0.355-0.077,0.717-0.156,1.073-0.234C42.634,77.309,43.052,77.414,43.841,78.398z"/>
					</g>
					<g>
						<path class="st3" d="M11.014,70.998c-0.21-0.484-0.352-0.993-0.486-1.501C10.662,70.005,10.805,70.513,11.014,70.998z"/>
					</g>
					<g>
						<path class="st3" d="M9.264,41.701c-0.093-0.132-0.141-0.265-0.234-0.396c-0.056-0.665,0.161-1.597-0.67-2.123l-0.024-2.804
							c-0.23-0.177-0.462-0.398-0.691-0.62c0.182-0.268,0.316-0.582,0.452-0.85c0.289,0.482,0.59,0.984,0.879,1.466
							c0.093-0.001,0.138-0.002,0.231-0.003c0.369,0.532,0.74,1.017,1.111,1.503c0.001,0.133,0.003,0.266,0.004,0.444
							c0.048,0.399,0.143,0.842,0.239,1.238c0.005,0.311,0.009,0.575,0.014,0.886C10.122,40.847,9.671,41.295,9.264,41.701z"/>
					</g>
					<g>
						<path class="st5" d="M9.117,12.828c-0.091,0.004-0.183,0.008-0.228,0.01C8.934,12.835,9.026,12.832,9.117,12.828z"/>
					</g>
					<g>
						<path class="st3" d="M8.097,34.909c-0.092-0.089-0.138-0.133-0.23-0.222c-0.874-0.799,0.858-2.013-0.652-1.916l-0.01-2.144
							c0.274-0.001,0.594-0.003,1.098-0.005c0.874,0.532,0.1,1.476,0.88,1.917c0.594-0.269,0.735,0.443,0.008,1.517
							c-0.365,0.18-0.731,0.405-1.095,0.63C8.096,34.775,8.097,34.82,8.097,34.909z"/>
					</g>
					<g>
						<path class="st4" d="M9.191,34.056c0.727-1.074,0.586-1.787-0.008-1.517C9.777,32.269,9.918,32.982,9.191,34.056z"/>
					</g>
				</g>
			</g>
		</g>
	</g>
</g>
</svg>