<!-- Generator: Adobe Illustrator 19.0.0, SVG Export Plug-In  -->
<svg version="1.1"
	 xmlns="http://www.w3.org/2000/svg" xmlns:xlink="http://www.w3.org/1999/xlink" xmlns:a="http://ns.adobe.com/AdobeSVGViewerExtensions/3.0/"
	 x="0px" y="0px" width="167.001px" height="166.999px" viewBox="0 0 167.001 166.999"
	 style="enable-background:new 0 0 167.001 166.999;" xml:space="preserve">
<style type="text/css">
	.st0{fill:#D9D9DE;}
	.st1{fill:#828587;}
</style>
<defs>
</defs>
<path id="Base_2_" class="st0" d="M157.001,166.999H10c-5.523,0-10-4.477-10-10V10C0,4.477,4.477,0,10,0h147.001
	c5.522,0,10,4.477,10,10v146.999C167.001,162.523,162.523,166.999,157.001,166.999z"/>
<path id="K_2_" class="st1" d="M76.41,68.973l16.735-24.246c3.163-4.568,7.248-6.853,12.256-6.853c4.085,0,7.619,1.45,10.607,4.349
	c2.986,2.899,4.479,6.369,4.479,10.41c0,2.986-0.789,5.623-2.371,7.906l-15.089,21.94l18.449,23.389
	c1.845,2.328,2.767,5.053,2.767,8.17c0,4.131-1.448,7.676-4.348,10.641c-2.899,2.967-6.415,4.447-10.542,4.447
	c-4.525,0-7.973-1.471-10.346-4.414L76.41,96.513v15.551c0,4.435-0.768,7.883-2.306,10.344c-2.811,4.479-6.896,6.719-12.255,6.719
	c-4.876,0-8.654-1.646-11.333-4.941c-2.504-3.031-3.755-7.051-3.755-12.057V54.477c0-4.742,1.272-8.651,3.821-11.727
	c2.679-3.25,6.368-4.876,11.068-4.876c4.48,0,8.214,1.626,11.201,4.876c1.668,1.801,2.723,3.623,3.161,5.469
	c0.265,1.143,0.396,3.271,0.396,6.391V68.973z"/>
</svg>